<?xml version="1.0" encoding="UTF-8"?>
<svg id="Layer_1" data-name="Layer 1" xmlns="http://www.w3.org/2000/svg" viewBox="0 0 789.52 789.52">
  <defs>
    <style>
      .cls-1 {
        fill: #8b3e1b;
      }
    </style>
  </defs>
  <g>
    <g>
      <g>
        <path class="cls-1" d="M75.73,191.31c-24.29-2.05-48.01-12.31-66.55-30.85-1.8-1.8-3.43-3.72-5.08-5.62-1.77,8.64-3.16,17.41-3.72,26.4-5.99,96.49,58.74,178.95,147.3,200.49,23.47,5.71,45.92-12.81,45.92-36.96,0-17.67-12.35-32.48-29.46-36.88-51.61-13.26-89.47-60.59-88.41-116.59Z"/>
        <path class="cls-1" d="M181.26.38c-8.99.56-17.76,1.95-26.4,3.72,1.9,1.65,3.81,3.29,5.6,5.09,18.54,18.54,28.79,42.26,30.84,66.55,56-1.05,103.32,36.8,116.59,88.42,4.4,17.11,19.21,29.46,36.88,29.46,24.15,0,42.67-22.45,36.96-45.92C360.2,59.13,277.75-5.6,181.26.38Z"/>
      </g>
      <path class="cls-1" d="M139.68,29.96c30.3,30.3,30.3,79.42,0,109.71s-79.42,30.3-109.71,0C-.33,109.38-.33,60.26,29.96,29.96,60.26-.33,109.38-.33,139.68,29.96Z"/>
    </g>
    <g>
      <g>
        <path class="cls-1" d="M598.21,713.78c2.05,24.29,12.31,48.01,30.85,66.55,1.8,1.8,3.72,3.43,5.62,5.08-8.64,1.77-17.41,3.16-26.4,3.72-96.49,5.99-178.95-58.74-200.49-147.3-5.71-23.47,12.81-45.92,36.96-45.92,17.67,0,32.48,12.35,36.88,29.46,13.26,51.61,60.59,89.47,116.59,88.41Z"/>
        <path class="cls-1" d="M789.13,608.26c-.56,8.99-1.95,17.76-3.72,26.4-1.65-1.9-3.29-3.81-5.08-5.6-18.54-18.54-42.26-28.79-66.55-30.84,1.06-56-36.8-103.32-88.42-116.59-17.11-4.4-29.46-19.21-29.46-36.88,0-24.15,22.45-42.67,45.92-36.96,88.56,21.54,153.29,103.99,147.31,200.48Z"/>
      </g>
      <path class="cls-1" d="M759.55,649.84c-30.3-30.3-79.42-30.3-109.71,0-30.3,30.3-30.3,79.42,0,109.71,30.3,30.3,79.42,30.3,109.71,0,30.3-30.3,30.3-79.42,0-109.71Z"/>
    </g>
    <g>
      <g>
        <path class="cls-1" d="M598.21,75.73c2.05-24.29,12.31-48.01,30.85-66.55,1.8-1.8,3.72-3.43,5.62-5.08-8.64-1.77-17.41-3.16-26.4-3.72-96.49-5.99-178.95,58.74-200.49,147.3-5.71,23.47,12.81,45.92,36.96,45.92,17.67,0,32.48-12.35,36.88-29.46,13.26-51.61,60.59-89.47,116.59-88.41Z"/>
        <path class="cls-1" d="M789.13,181.26c-.56-8.99-1.95-17.76-3.72-26.4-1.65,1.9-3.29,3.81-5.08,5.6-18.54,18.54-42.26,28.79-66.55,30.85,1.06,56-36.8,103.32-88.42,116.59-17.11,4.4-29.46,19.21-29.46,36.88,0,24.15,22.45,42.67,45.92,36.96,88.56-21.54,153.29-103.99,147.31-200.48Z"/>
      </g>
      <path class="cls-1" d="M759.55,139.68c-30.3,30.3-79.42,30.3-109.71,0-30.3-30.3-30.3-79.42,0-109.71,30.3-30.3,79.42-30.3,109.71,0,30.3,30.3,30.3,79.42,0,109.71Z"/>
    </g>
    <g>
      <g>
        <path class="cls-1" d="M75.73,598.21c-24.29,2.05-48.01,12.31-66.55,30.85-1.8,1.8-3.43,3.72-5.08,5.62-1.77-8.64-3.16-17.41-3.72-26.4-5.99-96.49,58.74-178.95,147.3-200.49,23.47-5.71,45.92,12.81,45.92,36.96,0,17.67-12.35,32.48-29.46,36.88-51.61,13.26-89.47,60.59-88.41,116.59Z"/>
        <path class="cls-1" d="M181.26,789.13c-8.99-.56-17.76-1.95-26.4-3.72,1.9-1.65,3.81-3.29,5.6-5.09,18.54-18.54,28.79-42.26,30.84-66.55,56,1.05,103.32-36.8,116.59-88.42,4.4-17.11,19.21-29.46,36.88-29.46,24.15,0,42.67,22.45,36.96,45.92-21.54,88.56-103.99,153.29-200.48,147.31Z"/>
      </g>
      <path class="cls-1" d="M139.68,759.55c30.3-30.3,30.3-79.42,0-109.71-30.3-30.3-79.42-30.3-109.71,0-30.3,30.3-30.3,79.42,0,109.71,30.3,30.3,79.42,30.3,109.71,0Z"/>
    </g>
  </g>
  <path class="cls-1" d="M574.09,521.32c-13.68,1.6-27.32-3.47-37.07-13.22l-38.06-38.06c-11.35-11.35-15.93-27.79-12.08-43.24,6.89-19.8,7.23-41.36.96-61.32-5.1-16.23-.6-33.95,11.43-45.98l38.08-38.08c9.85-9.85,23.64-14.71,37.49-13.19,17.58,1.91,35.85-3.84,49.31-17.31,24.45-24.45,23.57-64.71-2.71-88.02-22.74-20.15-57.66-20.02-80.27.25-15.33,13.77-21.9,33.31-19.72,52.08,1.59,13.68-3.47,27.32-13.22,37.07l-38.06,38.06c-12,12-29.7,16.55-45.89,11.45-1.05-.33-2.11-.59-3.16-.88-.7-.19-1.4-.4-2.1-.58-1.5-.38-3.01-.7-4.52-1.01-.69-.14-1.37-.3-2.05-.42-1.55-.28-3.11-.5-4.67-.71-.66-.09-1.32-.2-1.98-.27-1.62-.18-3.25-.29-4.87-.39-.6-.04-1.21-.1-1.81-.13-1.75-.07-3.51-.07-5.26-.06-.48,0-.96-.02-1.44,0-2.12.05-4.24.18-6.36.37-.1.01-.21.01-.31.02-1.17.11-2.34.29-3.51.44-.39.05-.77.1-1.15.15-2.94.42-5.87.94-8.77,1.63-.54.12-1.07.3-1.6.43-1.65.42-3.29.86-4.92,1.37-.04,0-.07.02-.11.03-16.23,5.1-33.95.6-45.98-11.43l-38.08-38.08c-9.85-9.85-14.71-23.64-13.19-37.5,1.92-17.58-3.84-35.84-17.31-49.31-24.45-24.45-64.71-23.56-88.01,2.72-20.15,22.73-20.02,57.66.25,80.27,13.77,15.33,33.31,21.9,52.08,19.72,13.68-1.59,27.32,3.47,37.07,13.22l38.06,38.06c11.35,11.34,15.93,27.78,12.08,43.23-6.89,19.8-7.23,41.36-.96,61.32,5.1,16.23.6,33.95-11.43,45.98l-38.08,38.08c-9.85,9.85-23.64,14.71-37.49,13.18-17.58-1.91-35.85,3.84-49.31,17.31-24.45,24.45-23.57,64.71,2.71,88.01,22.73,20.15,57.66,20.02,80.27-.25,15.33-13.77,21.9-33.31,19.72-52.08-1.6-13.68,3.47-27.32,13.22-37.07l38.06-38.06c12-12,29.7-16.55,45.9-11.45,1.05.33,2.12.59,3.18.88.7.19,1.39.4,2.08.58,1.51.39,3.03.71,4.55,1.02.68.14,1.35.3,2.02.42,1.56.28,3.13.5,4.71.71.65.08,1.29.19,1.94.27,1.64.18,3.28.3,4.92.4.59.04,1.18.1,1.76.12,1.77.07,3.55.08,5.32.06.46,0,.92.02,1.37,0,2.16-.05,4.32-.19,6.47-.38.07,0,.13,0,.2-.01,1.18-.11,2.36-.29,3.54-.44.37-.05.75-.09,1.12-.15,2.95-.42,5.89-.94,8.8-1.63.52-.12,1.03-.29,1.55-.42,1.66-.43,3.32-.86,4.96-1.38.03-.01.07-.02.11-.03,16.23-5.11,33.95-.6,45.98,11.43l38.08,38.08c9.85,9.85,14.71,23.64,13.18,37.49-1.91,17.58,3.84,35.85,17.31,49.31,24.45,24.45,64.71,23.57,88.01-2.71,20.15-22.73,20.02-57.66-.25-80.27-13.77-15.33-33.31-21.9-52.08-19.72ZM379.15,436.59c-5.8-2.17-11.25-5.55-15.9-10.2-17.45-17.45-17.45-45.87,0-63.33,4.37-4.37,9.42-7.64,14.81-9.82.09-.04.18-.06.26-.09,1.27-.5,2.54-.96,3.84-1.34.08-.02.16-.04.24-.06,1.23-.35,2.47-.65,3.72-.9,9.86-1.89,20.25-.46,29.32,4.31,3.9,2.04,7.56,4.7,10.83,7.97,17.45,17.46,17.45,45.88,0,63.33-4.37,4.37-9.42,7.64-14.81,9.82-.1.04-.2.06-.3.1-1.25.5-2.52.95-3.81,1.33-.25.07-.5.12-.75.18-1.06.29-2.12.57-3.2.78-8.07,1.55-16.49.83-24.26-2.08Z"/>
  <g>
    <path class="cls-1" d="M-20.7,789.16c2.16.08,4.39.09,6.57.14,1.5-.26,3.01.04,4.27.87,1.3.86,2.18,2.17,2.5,3.71.31,1.53.03,3.1-.82,4.41l-.69.89,4.55-.03c1.47-.29,2.96,0,4.22.78,1.32.83,2.23,2.12,2.58,3.65.35,1.53.1,3.1-.7,4.42-.81,1.33-2.1,2.27-3.63,2.63-1.51.36-3.09.07-4.43-.77-1.34-.85-2.28-2.16-2.64-3.7-.37-1.53-.1-3.1.74-4.41.29-.46.65-.88,1.04-1.23l-3.73.02-.99.31c-1.52.31-3.1,0-4.42-.88-1.31-.88-2.22-2.22-2.55-3.76-.33-1.54-.03-3.1.84-4.4.3-.45.66-.85,1.07-1.19l-3.82-.08c-.37-.02-.67-.33-.66-.71,0-.37.31-.66.69-.65ZM-4.22,800.48c-1.17.26-2.17.96-2.82,1.97-.64,1.02-.84,2.23-.56,3.39.28,1.19,1,2.2,2.03,2.85,1.02.65,2.23.86,3.4.59,1.17-.27,2.15-.98,2.79-2,.63-1.03.82-2.24.55-3.41-.27-1.18-.98-2.18-2-2.81-1.01-.64-2.22-.85-3.4-.58ZM-13.98,790.63h-.02c-1.17.24-2.19.93-2.85,1.92-.67.99-.9,2.2-.65,3.39.25,1.18.94,2.21,1.96,2.89,1.01.67,2.21.91,3.39.67,1.17-.23,2.17-.93,2.83-1.94.65-1.02.88-2.22.64-3.39-.24-1.19-.93-2.2-1.93-2.87-1-.66-2.19-.89-3.36-.67Z"/>
    <path class="cls-1" d="M810.23.37c-2.17-.09-4.39-.1-6.57-.14-1.5.26-3-.04-4.27-.88-1.29-.85-2.18-2.17-2.5-3.69-.31-1.54-.01-3.11.82-4.42l.69-.88-4.54.03c-1.48.28-2.96.02-4.23-.78-1.31-.83-2.23-2.12-2.58-3.65-.36-1.53-.1-3.11.7-4.43.81-1.33,2.09-2.27,3.62-2.63,1.52-.35,3.1-.07,4.43.77,1.34.85,2.29,2.16,2.65,3.7.36,1.53.09,3.1-.74,4.41-.29.46-.65.88-1.05,1.23l3.73-.02,1-.3c1.52-.31,3.09,0,4.41.88,1.32.88,2.22,2.21,2.55,3.75.32,1.55.03,3.1-.85,4.4-.3.45-.66.85-1.06,1.19l3.82.08c.37,0,.67.33.66.69,0,.38-.31.68-.69.67ZM793.74-10.96c1.17-.26,2.17-.96,2.81-1.98.64-1.01.84-2.22.57-3.4-.28-1.18-1-2.19-2.03-2.84-1.03-.65-2.24-.86-3.4-.59-1.17.27-2.16.99-2.79,2.01-.63,1.03-.82,2.24-.55,3.41.27,1.18.98,2.17,1.99,2.81,1.01.64,2.21.84,3.39.58ZM803.5-1.11h0c1.18-.24,2.19-.91,2.86-1.91.66-1,.91-2.2.65-3.39-.25-1.19-.96-2.21-1.96-2.89-1.01-.67-2.22-.91-3.39-.67-1.18.24-2.19.93-2.83,1.94-.66,1.01-.88,2.21-.64,3.39.24,1.18.93,2.19,1.93,2.85.99.66,2.2.9,3.37.66Z"/>
    <path class="cls-1" d="M175.99-123.09c-33.3,14.09-65.42,31.52-95.46,51.81C50.76-51.17,22.78-28.09-2.65-2.65c-25.44,25.43-48.52,53.42-68.63,83.18-20.3,30.04-37.73,62.17-51.82,95.46-29.31,69.29-44.17,142.89-44.17,218.77s14.86,149.48,44.17,218.78c14.08,33.3,31.51,65.42,51.82,95.46,20.11,29.76,43.19,57.74,68.63,83.18,25.43,25.43,53.41,48.52,83.18,68.62,30.04,20.3,62.16,37.73,95.46,51.83,69.29,29.3,142.89,44.16,218.76,44.16s149.48-14.86,218.78-44.16c33.3-14.09,65.42-31.53,95.47-51.83,29.75-20.11,57.74-43.19,83.17-68.62,25.43-25.44,48.52-53.42,68.63-83.18,20.29-30.05,37.73-62.17,51.82-95.46,29.3-69.3,44.17-142.9,44.17-218.78s-14.86-149.47-44.17-218.77c-14.09-33.3-31.53-65.42-51.82-95.46-20.11-29.77-43.2-57.75-68.63-83.18-25.44-25.44-53.42-48.52-83.17-68.63-30.06-20.3-62.17-37.73-95.47-51.81-69.3-29.31-142.9-44.17-218.78-44.17s-149.47,14.86-218.76,44.17ZM176.69,910.97c-33.2-14.04-65.21-31.41-95.17-51.66-29.66-20.03-57.55-43.06-82.91-68.41-25.35-25.35-48.37-53.24-68.41-82.91-20.23-29.96-37.61-61.97-51.65-95.16-29.22-69.07-44.03-142.44-44.03-218.07s14.81-148.99,44.03-218.06c14.04-33.2,31.42-65.21,51.65-95.17C-49.75,51.87-26.74,23.98-1.39-1.38c25.35-25.35,53.25-48.37,82.91-68.41,29.96-20.23,61.97-37.61,95.17-51.65,69.06-29.21,142.43-44.03,218.06-44.03s149.01,14.82,218.07,44.03c33.2,14.04,65.21,31.42,95.16,51.65,29.66,20.04,57.56,43.06,82.91,68.41,25.35,25.36,48.37,53.25,68.41,82.91,20.24,29.95,37.61,61.97,51.66,95.17,29.21,69.07,44.02,142.44,44.02,218.06s-14.81,149-44.02,218.07c-14.04,33.19-31.42,65.21-51.66,95.16-20.04,29.67-43.06,57.56-68.41,82.91-25.35,25.35-53.25,48.37-82.91,68.41-29.95,20.24-61.97,37.61-95.16,51.66-69.07,29.22-142.44,44.03-218.07,44.03s-149-14.81-218.06-44.03Z"/>
    <path class="cls-1" d="M168.06-141.86c-34.51,14.59-67.8,32.66-98.93,53.69C38.3-67.33,9.3-43.41-17.06-17.05c-26.35,26.35-50.28,55.35-71.12,86.19-21.03,31.14-39.1,64.42-53.69,98.93-30.37,71.8-45.77,148.08-45.77,226.69s15.4,154.89,45.77,226.7c14.59,34.51,32.66,67.8,53.69,98.93,20.84,30.83,44.76,59.83,71.12,86.18,26.36,26.36,55.36,50.29,86.19,71.12,31.13,21.03,64.42,39.1,98.93,53.7,71.8,30.37,148.07,45.76,226.69,45.76s154.9-15.4,226.7-45.76c34.51-14.59,67.79-32.66,98.93-53.7,30.83-20.83,59.83-44.76,86.18-71.12,26.36-26.35,50.28-55.35,71.12-86.18,21.03-31.13,39.1-64.42,53.7-98.93,30.36-71.8,45.76-148.07,45.76-226.7s-15.4-154.89-45.76-226.69c-14.6-34.51-32.67-67.79-53.7-98.93-20.84-30.84-44.76-59.84-71.12-86.19-26.35-26.36-55.35-50.28-86.18-71.12-31.14-21.03-64.42-39.1-98.93-53.69-71.8-30.37-148.07-45.77-226.7-45.77s-154.89,15.4-226.69,45.77ZM168.76,929.74c-34.4-14.55-67.59-32.56-98.62-53.53-30.74-20.76-59.65-44.62-85.92-70.9-26.28-26.27-50.13-55.18-70.9-85.93-20.97-31.03-38.98-64.22-53.53-98.62-30.28-71.58-45.63-147.62-45.63-226s15.35-154.41,45.63-225.99c14.55-34.4,32.56-67.58,53.53-98.62C-65.92,39.4-42.07,10.49-15.79-15.78c26.27-26.28,55.18-50.12,85.92-70.9,31.04-20.97,64.23-38.98,98.62-53.53,71.58-30.28,147.62-45.63,225.99-45.63s154.42,15.35,226.01,45.63c34.39,14.55,67.58,32.56,98.62,53.53,30.75,20.77,59.66,44.62,85.93,70.9,26.28,26.27,50.13,55.18,70.9,85.93,20.98,31.04,38.98,64.22,53.53,98.62,30.27,71.58,45.63,147.62,45.63,225.99s-15.36,154.42-45.63,226c-14.56,34.4-32.55,67.59-53.53,98.62-20.77,30.75-44.62,59.66-70.9,85.93-26.27,26.27-55.18,50.13-85.93,70.9-31.04,20.97-64.23,38.98-98.62,53.53-71.58,30.27-147.62,45.63-226.01,45.63s-154.41-15.35-225.99-45.63Z"/>
    <path class="cls-1" d="M129.6-232.92c-40.37,17.07-79.3,38.21-115.71,62.82-36.07,24.36-70,52.35-100.82,83.17-30.83,30.83-58.82,64.75-83.18,100.82-24.6,36.42-45.74,75.35-62.81,115.71-35.52,83.98-53.53,173.2-53.53,265.16s18.01,181.19,53.53,265.17c17.08,40.36,38.21,79.3,62.81,115.72,24.37,36.07,52.36,69.99,83.18,100.81,30.82,30.82,64.75,58.81,100.82,83.18,36.41,24.61,75.34,45.73,115.71,62.81,83.99,35.53,173.2,53.54,265.16,53.54s181.18-18.01,265.17-53.54c40.37-17.07,79.29-38.2,115.72-62.81,36.07-24.37,69.99-52.36,100.81-83.18,30.83-30.83,58.82-64.75,83.19-100.81,24.6-36.42,45.73-75.36,62.81-115.72,35.53-83.98,53.53-173.2,53.53-265.17s-18-181.17-53.53-265.16c-17.08-40.37-38.21-79.3-62.81-115.71-24.37-36.08-52.36-70-83.19-100.82-30.82-30.82-64.74-58.81-100.81-83.17-36.42-24.61-75.35-45.75-115.72-62.82-83.99-35.52-173.2-53.53-265.17-53.53s-181.17,18.01-265.16,53.53ZM130.3,1020.79c-40.26-17.03-79.09-38.1-115.41-62.64-35.98-24.3-69.81-52.22-100.56-82.96-30.75-30.74-58.65-64.57-82.96-100.55-24.54-36.32-45.62-75.15-62.64-115.41-35.43-83.77-53.39-172.74-53.39-264.47s17.96-180.69,53.39-264.46c17.03-40.26,38.1-79.08,62.64-115.4,24.31-35.98,52.21-69.81,82.96-100.55,30.75-30.75,64.58-58.66,100.56-82.96,36.32-24.54,75.15-45.61,115.41-62.64,83.77-35.43,172.74-53.39,264.46-53.39s180.7,17.97,264.46,53.39c40.27,17.03,79.09,38.11,115.41,62.64,35.98,24.31,69.81,52.21,100.55,82.96,30.75,30.75,58.66,64.58,82.97,100.55,24.54,36.32,45.61,75.15,62.64,115.4,35.43,83.77,53.39,172.74,53.39,264.46s-17.96,180.7-53.39,264.47c-17.03,40.26-38.1,79.09-62.64,115.41-24.31,35.98-52.22,69.81-82.97,100.55-30.74,30.74-64.57,58.66-100.55,82.96-36.33,24.54-75.15,45.61-115.41,62.64-83.76,35.43-172.74,53.39-264.46,53.39s-180.69-17.96-264.46-53.39Z"/>
    <path class="cls-1" d="M124.6-244.75c-41.12,17.4-80.79,38.93-117.89,63.99-36.75,24.83-71.31,53.34-102.71,84.75-31.41,31.4-59.93,65.97-84.75,102.72-25.07,37.11-46.6,76.77-63.99,117.9-36.2,85.56-54.55,176.45-54.55,270.15s18.35,184.59,54.55,270.16c17.39,41.13,38.92,80.79,63.99,117.9,24.82,36.75,53.34,71.31,84.75,102.71,31.4,31.41,65.96,59.92,102.71,84.75,37.11,25.06,76.77,46.59,117.89,63.99,85.57,36.19,176.47,54.54,270.16,54.54s184.6-18.35,270.16-54.54c41.12-17.4,80.79-38.93,117.9-63.99,36.75-24.83,71.31-53.34,102.72-84.75,31.41-31.4,59.92-65.97,84.75-102.71,25.06-37.11,46.6-76.77,63.99-117.9,36.19-85.57,54.54-176.46,54.54-270.16s-18.35-184.59-54.54-270.15c-17.39-41.13-38.93-80.79-63.99-117.9-24.83-36.75-53.34-71.31-84.75-102.72-31.4-31.41-65.97-59.92-102.72-84.75-37.11-25.06-76.77-46.6-117.9-63.99-85.57-36.19-176.45-54.54-270.16-54.54s-184.59,18.35-270.16,54.54ZM125.3,1032.63c-41.02-17.36-80.58-38.83-117.59-63.83-36.65-24.77-71.12-53.2-102.45-84.53-31.33-31.32-59.77-65.8-84.53-102.45-25-37.02-46.48-76.57-63.82-117.59-36.1-85.34-54.41-176-54.41-269.46s18.31-184.11,54.41-269.46c17.34-41.01,38.82-80.58,63.82-117.59,24.77-36.66,53.21-71.13,84.53-102.46,31.33-31.32,65.8-59.76,102.45-84.53,37.01-25,76.57-46.48,117.59-63.82,85.34-36.1,176-54.41,269.45-54.41s184.12,18.31,269.46,54.41c41.03,17.34,80.58,38.82,117.59,63.82,36.65,24.77,71.12,53.21,102.45,84.53,31.33,31.33,59.77,65.8,84.53,102.46,24.99,37.01,46.47,76.57,63.83,117.59,36.1,85.35,54.39,176.01,54.39,269.46s-18.3,184.12-54.39,269.46c-17.36,41.02-38.83,80.58-63.83,117.59-24.77,36.65-53.2,71.13-84.53,102.45-31.33,31.32-65.8,59.76-102.45,84.53-37.01,25-76.57,46.48-117.59,63.83-85.34,36.09-176.01,54.4-269.46,54.4s-184.11-18.31-269.45-54.4Z"/>
    <path class="cls-1" d="M113.45-271.13c-42.82,18.11-84.12,40.53-122.75,66.63-38.27,25.86-74.25,55.55-106.96,88.25-32.7,32.7-62.39,68.68-88.24,106.96-26.1,38.63-48.52,79.93-66.63,122.75-37.69,89.1-56.8,183.74-56.8,281.3s19.11,192.21,56.8,281.31c18.11,42.82,40.52,84.12,66.63,122.76,25.86,38.27,55.54,74.25,88.24,106.95,32.7,32.7,68.69,62.39,106.96,88.25,38.63,26.09,79.93,48.52,122.75,66.62,89.1,37.7,183.75,56.8,281.3,56.8s192.21-19.1,281.31-56.8c42.82-18.1,84.12-40.53,122.76-66.62,38.27-25.86,74.25-55.55,106.95-88.25,32.71-32.7,62.39-68.68,88.24-106.95,26.1-38.63,48.52-79.94,66.63-122.76,37.68-89.1,56.8-183.74,56.8-281.31s-19.12-192.2-56.8-281.3c-18.11-42.82-40.53-84.12-66.63-122.75-25.86-38.28-55.54-74.26-88.24-106.96-32.7-32.7-68.68-62.39-106.95-88.25-38.64-26.1-79.94-48.52-122.76-66.63-89.1-37.69-183.74-56.8-281.31-56.8s-192.2,19.11-281.3,56.8ZM114.15,1059.01c-42.72-18.08-83.92-40.43-122.45-66.47-38.17-25.79-74.07-55.41-106.69-88.03-32.62-32.62-62.24-68.52-88.03-106.69-26.03-38.54-48.39-79.74-66.46-122.45-37.59-88.87-56.65-183.29-56.65-280.61s19.06-191.72,56.65-280.6c18.07-42.72,40.42-83.91,66.46-122.45,25.79-38.17,55.41-74.07,88.03-106.7,32.62-32.62,68.52-62.23,106.69-88.02,38.54-26.04,79.73-48.4,122.45-66.47,88.88-37.59,183.28-56.65,280.6-56.65s191.73,19.06,280.61,56.65c42.72,18.07,83.92,40.43,122.46,66.47,38.17,25.79,74.06,55.4,106.69,88.02,32.62,32.63,62.24,68.52,88.03,106.7,26.03,38.54,48.4,79.74,66.46,122.45,37.59,88.88,56.66,183.28,56.66,280.6s-19.06,191.74-56.66,280.61c-18.07,42.72-40.43,83.92-66.46,122.45-25.79,38.17-55.4,74.07-88.03,106.69-32.62,32.62-68.52,62.24-106.69,88.03-38.54,26.04-79.74,48.39-122.46,66.47-88.88,37.58-183.28,56.65-280.61,56.65s-191.72-19.06-280.6-56.65Z"/>
    <path class="cls-1" d="M106.02-288.71c-43.95,18.59-86.34,41.6-125.99,68.39-39.28,26.53-76.22,57.01-109.78,90.57-33.57,33.57-64.04,70.5-90.57,109.78-26.79,39.66-49.8,82.05-68.39,126-38.68,91.45-58.29,188.6-58.29,288.73s19.61,197.28,58.29,288.73c18.59,43.95,41.6,86.34,68.39,126,26.53,39.28,57,76.22,90.57,109.79,33.56,33.56,70.5,64.04,109.78,90.57,39.65,26.79,82.04,49.8,125.99,68.39,91.45,38.68,188.59,58.29,288.73,58.29s197.28-19.62,288.74-58.29c43.95-18.59,86.35-41.6,126-68.39,39.28-26.54,76.21-57.01,109.78-90.57,33.56-33.56,64.04-70.51,90.57-109.79,26.79-39.65,49.8-82.04,68.4-126,38.68-91.45,58.29-188.59,58.29-288.73s-19.62-197.27-58.29-288.73c-18.59-43.95-41.6-86.34-68.4-126-26.53-39.28-57.01-76.21-90.57-109.78-33.57-33.56-70.51-64.04-109.78-90.57-39.65-26.79-82.04-49.8-126-68.39-91.45-38.68-188.6-58.29-288.74-58.29s-197.27,19.61-288.73,58.29ZM106.73,1076.58c-43.85-18.54-86.14-41.5-125.69-68.22-39.19-26.48-76.03-56.87-109.52-90.36-33.48-33.47-63.88-70.33-90.36-109.51-26.72-39.55-49.68-81.85-68.22-125.7-38.58-91.22-58.15-188.13-58.15-288.03s19.57-196.8,58.15-288.03c18.54-43.85,41.5-86.14,68.22-125.69,26.48-39.19,56.88-76.03,90.36-109.51,33.49-33.49,70.33-63.89,109.52-90.37,39.55-26.72,81.84-49.67,125.69-68.22,91.23-38.59,188.14-58.15,288.03-58.15s196.81,19.56,288.04,58.15c43.84,18.55,86.13,41.5,125.69,68.22,39.18,26.47,76.03,56.88,109.51,90.37,33.48,33.48,63.89,70.32,90.36,109.51,26.73,39.55,49.68,81.85,68.23,125.69,38.58,91.23,58.14,188.14,58.14,288.03s-19.57,196.81-58.14,288.03c-18.55,43.85-41.5,86.14-68.23,125.7-26.47,39.18-56.88,76.03-90.36,109.51-33.48,33.49-70.33,63.89-109.51,90.36-39.56,26.73-81.85,49.68-125.69,68.22-91.23,38.58-188.13,58.15-288.04,58.15s-196.8-19.58-288.03-58.15Z"/>
    <path class="cls-1" d="M103.58-294.51c-44.33,18.75-87.08,41.95-127.07,68.97-39.61,26.76-76.86,57.49-110.71,91.34-33.85,33.85-64.58,71.1-91.34,110.71-27.02,39.99-50.23,82.74-68.97,127.07-39.01,92.23-58.79,190.19-58.79,291.18s19.78,198.96,58.79,291.19c18.74,44.32,41.95,87.08,68.97,127.06,26.76,39.61,57.49,76.86,91.34,110.71,33.85,33.85,71.1,64.58,110.71,91.35,39.99,27.02,82.74,50.22,127.07,68.96,92.22,39.01,190.19,58.79,291.17,58.79s198.96-19.78,291.19-58.79c44.32-18.74,87.08-41.94,127.06-68.96,39.62-26.77,76.86-57.5,110.71-91.35,33.85-33.85,64.59-71.1,91.34-110.71,27.02-39.99,50.23-82.75,68.96-127.06,39.02-92.23,58.79-190.19,58.79-291.19s-19.77-198.95-58.79-291.18c-18.73-44.32-41.94-87.07-68.96-127.07-26.76-39.61-57.5-76.86-91.34-110.71-33.85-33.85-71.09-64.58-110.71-91.34-39.98-27.02-82.74-50.22-127.06-68.97-92.23-39.01-190.19-58.79-291.19-58.79s-198.95,19.78-291.17,58.79ZM104.28,1082.38c-44.22-18.71-86.87-41.85-126.77-68.8-39.51-26.7-76.68-57.36-110.44-91.13-33.77-33.77-64.43-70.93-91.12-110.44-26.96-39.9-50.1-82.55-68.81-126.77-38.91-92-58.64-189.74-58.64-290.48s19.73-198.47,58.64-290.47c18.7-44.22,41.85-86.87,68.81-126.77,26.69-39.51,57.35-76.68,91.12-110.44,33.77-33.77,70.93-64.43,110.44-91.12,39.9-26.96,82.54-50.11,126.77-68.81,92-38.91,189.73-58.64,290.47-58.64s198.48,19.73,290.49,58.64c44.22,18.7,86.87,41.85,126.76,68.81,39.52,26.69,76.68,57.35,110.45,91.12,33.77,33.76,64.43,70.93,91.12,110.44,26.96,39.89,50.11,82.54,68.8,126.77,38.91,92,58.65,189.73,58.65,290.47s-19.73,198.48-58.65,290.48c-18.7,44.22-41.85,86.87-68.8,126.77-26.69,39.51-57.35,76.67-91.12,110.44-33.77,33.77-70.93,64.43-110.45,91.13-39.89,26.96-82.54,50.09-126.76,68.8-92,38.91-189.74,58.64-290.49,58.64s-198.47-19.74-290.47-58.64Z"/>
    <path class="cls-1" d="M96.59-311.06c-45.39,19.19-89.17,42.96-130.12,70.63-40.56,27.4-78.71,58.87-113.37,93.53-34.67,34.66-66.14,72.8-93.53,113.37-27.67,40.95-51.43,84.73-70.62,130.13-39.95,94.44-60.21,194.76-60.21,298.16s20.25,203.74,60.21,298.18c19.19,45.39,42.95,89.17,70.62,130.12,27.4,40.56,58.87,78.71,93.53,113.37,34.66,34.66,72.81,66.14,113.37,93.53,40.95,27.67,84.73,51.43,130.12,70.63,94.44,39.95,194.76,60.2,298.17,60.2s203.74-20.25,298.18-60.2c45.38-19.2,89.16-42.96,130.11-70.63,40.56-27.39,78.71-58.87,113.37-93.53,34.66-34.66,66.14-72.81,93.53-113.37,27.67-40.95,51.43-84.73,70.63-130.12,39.94-94.44,60.19-194.76,60.19-298.18s-20.25-203.73-60.19-298.16c-19.2-45.39-42.96-89.17-70.63-130.13-27.4-40.56-58.87-78.71-93.53-113.37-34.67-34.67-72.81-66.14-113.37-93.53-40.95-27.67-84.73-51.43-130.11-70.63-94.44-39.95-194.76-60.2-298.18-60.2s-203.72,20.25-298.17,60.2ZM97.29,1098.94c-45.29-19.16-88.96-42.86-129.82-70.47-40.47-27.34-78.52-58.73-113.11-93.31-34.58-34.59-65.98-72.64-93.32-113.11-27.6-40.86-51.31-84.53-70.46-129.82-39.85-94.22-60.06-194.3-60.06-297.48s20.2-203.25,60.06-297.47c19.15-45.28,42.86-88.96,70.46-129.82,27.34-40.46,58.73-78.52,93.32-113.1,34.58-34.59,72.64-65.98,113.11-93.32,40.85-27.6,84.53-51.31,129.82-70.46,94.22-39.86,194.3-60.06,297.46-60.06s203.27,20.2,297.48,60.06c45.28,19.15,88.95,42.86,129.81,70.46,40.46,27.34,78.52,58.73,113.11,93.32,34.57,34.58,65.98,72.64,93.31,113.1,27.6,40.85,51.31,84.53,70.47,129.82,39.84,94.22,60.06,194.3,60.06,297.47s-20.21,203.26-60.06,297.48c-19.15,45.29-42.86,88.96-70.47,129.82-27.33,40.46-58.74,78.52-93.31,113.11-34.59,34.58-72.65,65.97-113.11,93.31-40.86,27.6-84.53,51.31-129.81,70.47-94.22,39.85-194.31,60.05-297.48,60.05s-203.25-20.2-297.46-60.05Z"/>
    <path class="cls-1" d="M230.24-404.98c-52.41,10.73-103.97,26.74-153.23,47.57-48.37,20.46-95.03,45.78-138.66,75.27-43.23,29.19-83.88,62.73-120.82,99.68-36.94,36.94-70.48,77.59-99.67,120.82-29.49,43.64-54.81,90.29-75.27,138.67-20.84,49.26-36.85,100.82-47.57,153.23-11.01,53.78-16.58,109.13-16.58,164.51s5.58,110.74,16.58,164.53c10.72,52.41,26.73,103.96,47.57,153.23,20.46,48.36,45.78,95.02,75.27,138.66,29.2,43.23,62.73,83.88,99.67,120.82,36.94,36.94,77.59,70.47,120.82,99.68,43.63,29.49,90.29,54.81,138.66,75.27,49.27,20.83,100.82,36.83,153.23,47.56,53.78,11.01,109.14,16.58,164.51,16.58s110.75-5.57,164.52-16.58c52.42-10.73,103.97-26.73,153.24-47.56,48.36-20.47,95.02-45.78,138.66-75.27,43.22-29.2,83.88-62.74,120.82-99.68,36.94-36.94,70.47-77.59,99.68-120.82,29.48-43.64,54.8-90.3,75.26-138.66,20.84-49.27,36.84-100.82,47.56-153.23,11.02-53.79,16.59-109.14,16.59-164.53s-5.57-110.73-16.59-164.51c-10.72-52.41-26.72-103.97-47.56-153.23-20.46-48.37-45.78-95.03-75.26-138.67-29.21-43.23-62.74-83.88-99.68-120.82-36.94-36.94-77.6-70.49-120.82-99.68-43.64-29.49-90.3-54.81-138.66-75.27-49.27-20.83-100.82-36.84-153.24-47.57-53.78-11.01-109.13-16.59-164.52-16.59s-110.73,5.58-164.51,16.59ZM230.59,1192.74c-52.29-10.69-103.73-26.66-152.89-47.45-48.27-20.42-94.82-45.68-138.36-75.1-43.13-29.14-83.69-62.6-120.55-99.46-36.86-36.87-70.33-77.42-99.47-120.55-29.42-43.54-54.69-90.1-75.1-138.36-20.79-49.16-36.76-100.6-47.46-152.89-10.98-53.67-16.55-108.9-16.55-164.17s5.57-110.49,16.55-164.15c10.7-52.3,26.67-103.74,47.46-152.89,20.41-48.26,45.68-94.82,75.1-138.37,29.14-43.13,62.6-83.69,99.47-120.55,36.86-36.86,77.42-70.32,120.55-99.46,43.54-29.42,90.09-54.69,138.36-75.1,49.16-20.79,100.6-36.76,152.89-47.46,53.67-10.98,108.9-16.55,164.16-16.55s110.51,5.56,164.17,16.55c52.29,10.7,103.74,26.67,152.89,47.46,48.26,20.42,94.82,45.68,138.36,75.1,43.13,29.14,83.69,62.6,120.55,99.46,36.86,36.86,70.33,77.42,99.47,120.55,29.41,43.55,54.68,90.1,75.09,138.37,20.79,49.16,36.76,100.6,47.46,152.89,10.98,53.66,16.55,108.89,16.55,164.15s-5.57,110.5-16.55,164.17c-10.7,52.29-26.67,103.73-47.46,152.89-20.41,48.26-45.68,94.82-75.09,138.36-29.14,43.13-62.6,83.69-99.47,120.55-36.86,36.86-77.42,70.32-120.55,99.46-43.54,29.42-90.1,54.68-138.36,75.1-49.16,20.79-100.6,36.76-152.89,47.45-53.66,10.98-108.9,16.56-164.17,16.56s-110.49-5.57-164.16-16.56Z"/>
    <path class="cls-1" d="M231.5-398.82c-52.01,10.64-103.16,26.51-152.05,47.19-48,20.3-94.3,45.43-137.6,74.68-42.89,28.98-83.23,62.26-119.88,98.91-36.66,36.66-69.94,76.99-98.92,119.88-29.25,43.31-54.38,89.61-74.68,137.6-20.68,48.89-36.56,100.04-47.2,152.05-10.92,53.37-16.46,108.29-16.46,163.25s5.54,109.89,16.46,163.26c10.65,52,26.52,103.17,47.2,152.05,20.29,48,45.43,94.29,74.68,137.6,28.98,42.89,62.26,83.22,98.92,119.88,36.65,36.66,76.99,69.93,119.88,98.91,43.3,29.26,89.6,54.38,137.6,74.69,48.89,20.68,100.04,36.56,152.05,47.2,53.37,10.92,108.29,16.46,163.25,16.46s109.89-5.54,163.25-16.46c52.01-10.63,103.17-26.52,152.07-47.2,47.99-20.31,94.29-45.43,137.59-74.69,42.9-28.98,83.23-62.25,119.88-98.91,36.66-36.65,69.94-76.99,98.91-119.88,29.26-43.31,54.38-89.6,74.69-137.6,20.68-48.88,36.56-100.05,47.21-152.05,10.91-53.37,16.46-108.29,16.46-163.26s-5.54-109.88-16.46-163.25c-10.65-52.01-26.53-103.16-47.21-152.05-20.3-48-45.42-94.3-74.69-137.6-28.98-42.89-62.25-83.22-98.91-119.88-36.65-36.66-76.98-69.93-119.88-98.91-43.3-29.25-89.6-54.39-137.59-74.68-48.89-20.68-100.05-36.56-152.07-47.19-53.36-10.93-108.28-16.46-163.25-16.46s-109.88,5.53-163.25,16.46ZM231.86,1186.59c-51.89-10.62-102.94-26.46-151.71-47.09-47.9-20.26-94.08-45.33-137.29-74.52-42.8-28.93-83.04-62.13-119.62-98.7-36.58-36.57-69.78-76.81-98.69-119.62-29.2-43.2-54.27-89.39-74.52-137.29-20.63-48.78-36.47-99.81-47.1-151.71-10.89-53.25-16.42-108.05-16.42-162.9s5.53-109.64,16.42-162.89c10.62-51.89,26.47-102.94,47.1-151.71,20.25-47.9,45.33-94.09,74.52-137.3,28.91-42.8,62.11-83.04,98.69-119.61,36.58-36.58,76.82-69.79,119.62-98.7,43.21-29.2,89.39-54.26,137.29-74.53,48.77-20.63,99.82-36.47,151.71-47.09,53.25-10.9,108.06-16.43,162.89-16.43s109.65,5.53,162.89,16.43c51.9,10.62,102.94,26.46,151.72,47.09,47.89,20.26,94.09,45.33,137.29,74.53,42.8,28.91,83.05,62.12,119.62,98.7,36.58,36.57,69.78,76.82,98.69,119.61,29.19,43.21,54.26,89.4,74.52,137.3,20.64,48.77,36.47,99.82,47.1,151.71,10.9,53.25,16.42,108.05,16.42,162.89s-5.52,109.65-16.42,162.9c-10.62,51.9-26.46,102.94-47.1,151.71-20.26,47.89-45.33,94.09-74.52,137.29-28.92,42.8-62.12,83.05-98.69,119.62-36.57,36.58-76.82,69.78-119.62,98.7-43.2,29.19-89.4,54.26-137.29,74.52-48.78,20.64-99.82,36.47-151.72,47.09-53.25,10.9-108.05,16.42-162.89,16.42s-109.64-5.52-162.89-16.42Z"/>
    <path class="cls-1" d="M232.77-392.71c-51.61,10.57-102.38,26.32-150.89,46.84-47.63,20.14-93.56,45.08-136.53,74.11-42.56,28.75-82.59,61.78-118.95,98.15-36.38,36.37-69.4,76.39-98.15,118.96-29.03,42.97-53.97,88.91-74.11,136.54-20.52,48.51-36.28,99.28-46.85,150.88-10.84,52.95-16.33,107.46-16.33,161.99s5.49,109.04,16.33,162c10.57,51.6,26.32,102.37,46.85,150.88,20.14,47.63,45.08,93.56,74.11,136.54,28.75,42.56,61.77,82.59,98.15,118.96,36.37,36.38,76.39,69.4,118.95,98.15,42.97,29.04,88.91,53.97,136.53,74.12,48.51,20.52,99.28,36.28,150.89,46.83,52.95,10.84,107.45,16.34,161.99,16.34s109.04-5.49,162-16.34c51.6-10.55,102.37-26.31,150.88-46.83,47.63-20.15,93.56-45.08,136.53-74.12,42.57-28.75,82.6-61.77,118.97-98.15,36.37-36.37,69.4-76.4,98.15-118.96,29.03-42.98,53.97-88.91,74.12-136.54,20.51-48.51,36.27-99.28,46.83-150.88,10.84-52.95,16.34-107.46,16.34-162s-5.5-109.03-16.34-161.99c-10.55-51.61-26.32-102.37-46.83-150.88-20.15-47.63-45.08-93.57-74.12-136.54-28.75-42.57-61.78-82.59-98.15-118.96-36.37-36.38-76.4-69.4-118.97-98.15-42.97-29.03-88.91-53.97-136.53-74.11-48.51-20.52-99.28-36.28-150.88-46.84-52.96-10.83-107.46-16.33-162-16.33s-109.03,5.49-161.99,16.33ZM233.12,1180.48c-51.49-10.54-102.15-26.26-150.54-46.73-47.52-20.11-93.36-44.98-136.23-73.94-42.47-28.69-82.4-61.65-118.7-97.93-36.29-36.3-69.24-76.23-97.94-118.69-28.96-42.88-53.84-88.71-73.94-136.22-20.47-48.42-36.19-99.06-46.73-150.56-10.81-52.83-16.29-107.22-16.29-161.64s5.48-108.79,16.29-161.63c10.54-51.49,26.26-102.14,46.73-150.54,20.1-47.52,44.98-93.36,73.94-136.23,28.7-42.47,61.65-82.4,97.94-118.7,36.29-36.29,76.23-69.24,118.7-97.94,42.87-28.96,88.71-53.84,136.23-73.94,48.4-20.47,99.05-36.19,150.54-46.73,52.84-10.81,107.22-16.3,161.63-16.3s108.8,5.48,161.64,16.3c51.5,10.54,102.14,26.26,150.54,46.73,47.52,20.1,93.36,44.98,136.23,73.94,42.47,28.69,82.4,61.64,118.69,97.94,36.29,36.29,69.24,76.23,97.94,118.7,28.97,42.87,53.84,88.7,73.94,136.23,20.47,48.4,36.19,99.05,46.73,150.54,10.81,52.84,16.29,107.22,16.29,161.63s-5.48,108.8-16.29,161.64c-10.54,51.5-26.26,102.14-46.73,150.56-20.1,47.52-44.98,93.34-73.94,136.22-28.7,42.47-61.64,82.39-97.94,118.69-36.29,36.29-76.22,69.24-118.69,97.93-42.87,28.97-88.71,53.83-136.23,73.94-48.4,20.47-99.05,36.19-150.54,46.73-52.84,10.81-107.22,16.3-161.64,16.3s-108.79-5.48-161.63-16.3Z"/>
    <path class="cls-1" d="M234.01-386.64c-51.21,10.47-101.58,26.11-149.72,46.47-47.26,19.99-92.85,44.73-135.48,73.55-42.23,28.52-81.95,61.3-118.05,97.39-36.09,36.1-68.86,75.81-97.39,118.05-28.81,42.64-53.55,88.22-73.54,135.48-20.36,48.14-36,98.52-46.48,149.73-10.75,52.55-16.2,106.62-16.2,160.74s5.45,108.21,16.2,160.75c10.48,51.21,26.12,101.59,46.48,149.73,19.99,47.25,44.73,92.84,73.54,135.48,28.53,42.23,61.3,81.95,97.39,118.05,36.09,36.09,75.81,68.86,118.05,97.39,42.63,28.81,88.22,53.55,135.48,73.54,48.14,20.37,98.51,35.99,149.72,46.48,52.55,10.75,106.63,16.2,160.74,16.2s108.2-5.45,160.75-16.2c51.22-10.49,101.59-26.11,149.73-46.48,47.25-19.99,92.84-44.73,135.48-73.54,42.23-28.53,81.95-61.3,118.05-97.39,36.09-36.1,68.85-75.82,97.39-118.05,28.81-42.64,53.55-88.23,73.54-135.48,20.36-48.14,36-98.51,46.48-149.73,10.75-52.54,16.2-106.63,16.2-160.75s-5.45-108.19-16.2-160.74c-10.48-51.21-26.12-101.59-46.48-149.73-19.99-47.26-44.73-92.84-73.54-135.48-28.54-42.24-61.3-81.95-97.39-118.05-36.1-36.09-75.81-68.86-118.05-97.39-42.64-28.81-88.23-53.55-135.48-73.55-48.14-20.36-98.51-36-149.73-46.47-52.54-10.76-106.62-16.21-160.75-16.21s-108.19,5.45-160.74,16.21ZM234.38,1174.41c-51.1-10.46-101.36-26.05-149.39-46.38-47.15-19.94-92.63-44.62-135.18-73.37-42.14-28.47-81.77-61.17-117.78-97.19-36-36-68.7-75.63-97.17-117.77-28.74-42.54-53.43-88.02-73.37-135.18-20.31-48.02-35.92-98.28-46.37-149.38-10.72-52.43-16.17-106.4-16.17-160.39s5.44-107.95,16.17-160.38c10.45-51.1,26.06-101.35,46.37-149.38,19.94-47.16,44.62-92.64,73.37-135.18,28.47-42.15,61.17-81.77,97.17-117.78,36.02-36.01,75.64-68.71,117.78-97.18,42.55-28.75,88.03-53.43,135.18-73.37,48.03-20.31,98.29-35.92,149.39-46.38,52.42-10.73,106.39-16.16,160.38-16.16s107.96,5.44,160.4,16.16c51.08,10.46,101.35,26.06,149.37,46.38,47.15,19.94,92.64,44.62,135.18,73.37,42.14,28.47,81.77,61.17,117.77,97.18,36.01,36.01,68.71,75.63,97.18,117.78,28.74,42.54,53.43,88.03,73.37,135.18,20.32,48.03,35.91,98.28,46.37,149.38,10.73,52.43,16.17,106.39,16.17,160.38s-5.43,107.97-16.17,160.39c-10.45,51.09-26.05,101.35-46.37,149.38-19.94,47.16-44.64,92.65-73.37,135.18-28.47,42.14-61.17,81.77-97.18,117.77-36,36.02-75.64,68.72-117.77,97.19-42.54,28.75-88.03,53.43-135.18,73.37-48.03,20.32-98.29,35.92-149.37,46.38-52.44,10.72-106.4,16.17-160.4,16.17s-107.95-5.44-160.38-16.17Z"/>
  </g>
</svg>