<svg xmlns="http://www.w3.org/2000/svg" id="Layer_1" viewBox="0 0 1277.15 165.4"><defs><style>.st0,.st1{fill:#fff}.st1{fill-rule:evenodd}</style></defs><path d="M204.64 13.8c-2.1 0-3.81 1.7-3.81 3.81v4.28c.06.03.13.06.19.09.68.33 1.32.74 1.92 1.2v-5.81c0-.81.66-1.47 1.47-1.47v9.36c-.43-.56-.93-1.08-1.47-1.53-.64-.54-1.34-1-2.11-1.37-1.33-.65-2.83-1.01-4.41-1.01s-3.08.36-4.41 1.01c-.76.37-1.47.83-2.11 1.37q-.81.69-1.47 1.53V15.9c.81 0 1.47.66 1.47 1.47v5.81a10.3 10.3 0 0 1 1.92-1.2c.06-.03.13-.06.19-.09v-4.28c0-2.1-1.7-3.81-3.81-3.81h-1.87v25.1h1.87c2.1 0 3.81-1.7 3.81-3.81v-3.51c0-2.43 1.9-4.51 4.33-4.56 2.48-.05 4.5 1.95 4.5 4.41v3.65c0 2.1 1.7 3.81 3.81 3.81h1.87V13.8h-1.87Zm-.24 22.99c-.81 0-1.47-.66-1.47-1.47v-7.71c-.11-.19-.23-.37-.35-.55a7.5 7.5 0 0 0-1.75-1.77v1.33c-1.16-1.07-2.71-1.72-4.41-1.72s-3.25.65-4.41 1.72v-1.33a7.35 7.35 0 0 0-2.1 2.32v7.71c0 .81-.66 1.47-1.47 1.47v-5.35c0-1.72.54-3.31 1.47-4.61.57-.8 1.28-1.5 2.11-2.04 1.26-.84 2.78-1.33 4.41-1.33s3.15.49 4.41 1.33c.82.55 1.54 1.24 2.11 2.04.92 1.3 1.47 2.89 1.47 4.61v5.35ZM172.59 10.38c-.28.89-.47 1.82-.53 2.78-.37 5.96 3.63 11.05 9.1 12.38 1.45.35 2.84-.79 2.84-2.28 0-1.09-.76-2.01-1.82-2.28a7.3 7.3 0 0 1-5.46-7.4c.01-.29.05-.58.1-.86a5.15 5.15 0 0 1-4.23-2.34" class="st0"/><path d="M183.23 1.99c-.96.06-1.89.25-2.78.53 1.39.9 2.31 2.46 2.34 4.23.28-.05.57-.09.86-.1a7.284 7.284 0 0 1 7.4 5.46c.27 1.06 1.19 1.82 2.28 1.82 1.49 0 2.64-1.39 2.28-2.84-1.33-5.47-6.42-9.47-12.38-9.1M177.66 2.91h-4.68v4.68a3.92 3.92 0 0 0 3.92 3.92h4.68V6.83a3.92 3.92 0 0 0-3.92-3.92M220.25 42.32c.28-.89.47-1.82.53-2.78.37-5.96-3.63-11.05-9.1-12.38-1.45-.35-2.84.79-2.84 2.28 0 1.09.76 2.01 1.82 2.28a7.3 7.3 0 0 1 5.46 7.4c-.01.29-.05.58-.1.86 1.77.03 3.32.95 4.23 2.34M209.6 50.71c.96-.06 1.89-.25 2.78-.53a5.14 5.14 0 0 1-2.34-4.23c-.28.05-.57.09-.86.1a7.284 7.284 0 0 1-7.4-5.46c-.27-1.06-1.19-1.82-2.28-1.82-1.49 0-2.64 1.39-2.28 2.84 1.33 5.47 6.42 9.47 12.38 9.1M215.94 41.19h-4.68v4.68a3.92 3.92 0 0 0 3.92 3.92h4.68v-4.68a3.92 3.92 0 0 0-3.92-3.92M180.45 50.18c.89.28 1.82.47 2.78.53 5.96.37 11.05-3.63 12.38-9.1.35-1.45-.79-2.84-2.28-2.84-1.09 0-2.01.76-2.28 1.82a7.3 7.3 0 0 1-7.4 5.46c-.29-.01-.58-.05-.86-.1a5.15 5.15 0 0 1-2.34 4.23M172.06 39.54c.06.96.25 1.89.53 2.78.9-1.39 2.46-2.31 4.23-2.34-.05-.28-.09-.57-.1-.86a7.284 7.284 0 0 1 5.46-7.4c1.06-.27 1.82-1.19 1.82-2.28 0-1.49-1.39-2.64-2.84-2.28-5.47 1.33-9.47 6.42-9.1 12.38M176.89 41.19a3.92 3.92 0 0 0-3.92 3.92v4.68h4.68a3.92 3.92 0 0 0 3.92-3.92v-4.68zM212.39 2.52c-.89-.28-1.82-.47-2.78-.53-5.96-.37-11.05 3.63-12.38 9.1-.35 1.45.79 2.84 2.28 2.84 1.09 0 2.01-.76 2.28-1.82a7.3 7.3 0 0 1 7.4-5.46c.29.01.58.05.86.1a5.15 5.15 0 0 1 2.34-4.23M220.77 13.16c-.06-.96-.25-1.89-.53-2.78a5.14 5.14 0 0 1-4.23 2.34c.05.28.09.57.1.86a7.284 7.284 0 0 1-5.46 7.4c-1.06.27-1.82 1.19-1.82 2.28 0 1.49 1.39 2.64 2.84 2.28 5.47-1.33 9.47-6.42 9.1-12.38M215.18 2.91a3.92 3.92 0 0 0-3.92 3.92v4.68h4.68a3.92 3.92 0 0 0 3.92-3.92V2.91zM236.68 21.99c.54-.54 1.18-.96 1.91-1.25.74-.3 1.54-.44 2.42-.44.93 0 1.8.19 2.6.57s1.51.93 2.14 1.67l2.83-2.58a8.7 8.7 0 0 0-3.34-2.49c-1.33-.56-2.81-.85-4.44-.85-1.45 0-2.8.24-4.05.71a9.8 9.8 0 0 0-3.26 2.03c-.92.88-1.64 1.91-2.15 3.1-.51 1.18-.77 2.49-.77 3.9s.26 2.72.77 3.9a9.4 9.4 0 0 0 2.14 3.1c.92.88 2 1.56 3.24 2.03 1.25.48 2.6.71 4.05.71 1.65 0 3.14-.29 4.47-.86a8.74 8.74 0 0 0 3.34-2.5l-2.83-2.58c-.63.74-1.34 1.3-2.14 1.68-.8.39-1.66.58-2.6.58-.88 0-1.69-.15-2.42-.44-.74-.3-1.37-.71-1.91-1.25s-.96-1.18-1.25-1.91c-.3-.74-.44-1.55-.44-2.45s.15-1.71.44-2.45c.3-.74.71-1.37 1.25-1.91ZM287.18 28.36l-9.37-11.43h-3.61v18.84h4.31V24.34l9.37 11.43h3.6V16.93h-4.3zM267.98 19.35a9.65 9.65 0 0 0-3.27-2.03c-1.25-.47-2.62-.71-4.1-.71s-2.86.24-4.1.73a9.9 9.9 0 0 0-3.27 2.05c-.93.88-1.66 1.91-2.17 3.08-.24.55-.42 1.13-.54 1.73h4.54c.03-.09.06-.19.1-.28.3-.73.71-1.36 1.24-1.91s1.15-.97 1.87-1.26c.72-.3 1.5-.44 2.34-.44s1.62.15 2.33.44c.71.3 1.33.72 1.87 1.26.54.55.96 1.18 1.25 1.91.3.73.44 1.54.44 2.44s-.15 1.71-.44 2.44c-.3.73-.71 1.36-1.25 1.91s-1.16.97-1.87 1.26c-.71.3-1.48.44-2.33.44s-1.62-.15-2.34-.44a5.6 5.6 0 0 1-1.87-1.26c-.53-.55-.94-1.18-1.24-1.91-.05-.12-.09-.25-.13-.37h-4.53a9.202 9.202 0 0 0 2.73 4.91c.93.88 2.03 1.56 3.28 2.05 1.26.48 2.63.73 4.12.73s2.83-.24 4.08-.71a9.65 9.65 0 0 0 3.27-2.03c.93-.88 1.66-1.92 2.17-3.11s.77-2.49.77-3.89-.26-2.72-.77-3.9a9.2 9.2 0 0 0-2.17-3.1Z" class="st0"/><path d="M237.1 26.61c.15 2.13 1.9 3.84 4.04 3.95 1.74.09 3.26-.87 4.01-2.29.34-.66 1.03-1.07 1.78-1.07h9.86c.61 0 1.19.28 1.57.75a2.642 2.642 0 0 0 4.7-1.82 2.66 2.66 0 0 0-2.49-2.48c-.9-.05-1.71.35-2.22 1-.37.47-.95.74-1.56.74h-9.86c-.74 0-1.43-.41-1.78-1.07a4.26 4.26 0 0 0-3.79-2.3c-2.46 0-4.43 2.08-4.26 4.58ZM297.91 28.1c0-3.21-.06-6.14-.17-8.8-.08-1.58-.17-2.6-.25-2.79l-.03-.14c.58-.17 1.08-.25 1.52-.25 1.3 0 2.19.64 2.19 1.72 0 .89-.03 3.15-.06 6.81.97.08 2.43.11 4.45.11 1.8 0 3.57-.03 5.34-.11-.03-1.63-.06-3.4-.14-5.34-.08-1.58-.19-2.6-.22-2.79l-.06-.14c.58-.17 1.08-.25 1.52-.25 1.3 0 2.19.64 2.19 1.72 0 .8-.03 1.99-.06 3.51-.03 1.55-.05 2.71-.05 3.49 0 6.11.11 9.74.36 10.93-.58.06-1.19.28-1.91.28-1.33 0-1.77-.75-1.77-2.3 0-.75.03-1.96.08-3.65.03-1.69.06-2.9.06-3.71-1.11-.08-2.68-.11-4.76-.11-1.63 0-3.32.03-5.06.11v2.77c0 .5.03 1.3.05 2.41.03 1.13.06 1.99.06 2.6 0 1.24-.61 1.88-1.8 1.88-.08 0-.72-.08-1.85-.28.25-.53.36-3.07.36-7.66ZM318.17 29.2c0-2.02.61-3.82 1.83-5.37s2.79-2.32 4.73-2.32c3.4 0 5.09 1.83 5.09 3.96-.06 2.68-2.85 3.85-5.34 3.76-.97 0-2.1-.33-2.63-.58l-.41-.19-.11.06c0 3.4 1.6 5.59 4.4 5.59 1.33 0 2.99-.64 3.76-1.16l.58-.42.14.14c-.03.19-.08.41-.64 1.22-.28.42-.61.78-.97 1.08-.75.64-2.24 1.22-3.98 1.22-1.85 0-3.4-.66-4.62-1.96s-1.83-2.99-1.83-5.01Zm5.75-1.35c1.41 0 2.6-.83 2.6-2.41 0-1.47-.69-2.66-2.16-2.66-.58 0-1.13.3-1.63.89-.5.61-.86 1.25-1.05 1.88-.22.66-.33 1.22-.33 1.63 0 .19 1.41.66 2.57.66ZM333.64 31.45c.03-1.08.05-1.85.05-2.35 0-3.35-.28-5.89-.47-6.59-.08-.36-.17-.55-.22-.61.58-.17 1.02-.25 1.36-.25 1.33 0 2.24.66 2.24 1.77l-.19 1.02.11.03c.36-.83.97-1.52 1.77-2.05s1.6-.77 2.41-.77c.91 0 1.36.36 1.36 1.08s-.11 1.38-.33 1.96l-.14.06c-1.02-.53-1.77-.78-2.21-.78-1.85 0-2.77 1.77-2.77 5.31 0 3.24.28 5.51.44 6.03.08.28.14.42.19.44-1.13.19-1.8.28-1.94.28-1.13 0-1.74-.5-1.74-2.13 0-.58.03-1.38.08-2.46ZM344.71 31.42c.03-1.05.06-1.83.06-2.35 0-3.76-.28-6.25-.47-6.78-.08-.25-.17-.39-.19-.39.58-.17 1.02-.25 1.36-.25 1.3 0 2.35.69 2.35 1.77s-.03 2.55-.06 4.48c-.06 1.94-.08 3.21-.08 3.82 0 .86.03 1.22.19 1.88.17.69.55 1.02 1.19 1.02.33 0 .72-.17.91-.3l.14-.08.11.08s-.66 1.72-3.07 1.72c-1.41 0-2.49-.69-2.49-2.24 0-.53.03-1.33.06-2.38Zm-.39-13.97c0-1.02.86-1.88 1.85-1.88s1.88.86 1.88 1.88-.86 1.85-1.88 1.85-1.85-.86-1.85-1.85M352.87 28.07c.03-1.16.06-1.88.06-2.19 0-1.13-.06-1.83-.19-2.13q-.21-.42-1.08-.66v-1.16c.55 0 1.33-.41 2.35-1.25 1.02-.83 1.63-1.49 1.83-1.99l.64.22-.55 3.02h2.27c.66 0 1.22-.11 1.36-.22l.14-.06c.03.11.03.36.03.75 0 1.11-.47 1.41-1.55 1.41l-2.24-.06c-.06 2.19-.08 3.96-.08 5.37 0 1.58.08 2.52.39 3.51.3 1.02.97 1.55 1.99 1.55.8 0 1.94-.53 2.49-.97l.44-.33.14.11c-.03.19-.08.36-.53 1.11-.25.36-.5.69-.77.97-.58.55-1.74 1.11-2.99 1.11-3.07 0-4.18-1.96-4.18-5.37 0-.66.03-1.58.06-2.74ZM364.82 28.32c1.58-.75 3.21-1.08 4.87-1.11v-.25c0-2.46-.64-3.62-2.66-3.62-1.3 0-2.57.55-3.82 1.66l-.11-.11c.22-.86.83-1.66 1.85-2.35 1-.69 2.07-1.02 3.26-1.02 1.88 0 3.13.53 3.71 1.52s.75 1.91.75 3.35c0 .47 0 1.27-.03 2.38-.03 1.13-.06 1.94-.06 2.46v.33c0 2.05.47 3.07 1.38 3.07.33 0 .72-.17.91-.3l.14-.08.11.08s-.66 1.72-3.07 1.72c-1.3 0-2.32-.58-2.35-1.94l-.11-.06c-.66 1.22-2.1 2.13-3.76 2.13-2.24 0-3.68-1.6-3.68-3.71 0-1.88 1.08-3.38 2.66-4.15Zm2.33 5.89c.53 0 1.05-.19 1.63-.58.55-.39.83-.83.83-1.33 0-.36.03-.97.05-1.88.03-.91.03-1.6.03-2.1-.77.14-1.02.17-2.02.53-.5.19-.89.39-1.19.61-.58.47-1.19 1.38-1.19 2.49 0 1.55.77 2.27 1.85 2.27ZM377.11 37.28c.58-.14.8-.14 1.49-.14.06 1.33.94 3.76 3.98 3.76 1.8 0 3.38-.83 3.38-2.3 0-1.38-2.77-1.49-4.98-2.05-1.52-.36-2.71-1.3-2.71-2.77 0-.91.44-1.74 1.3-2.52-2.24-.58-3.38-2.05-3.38-4.4 0-1.49.58-2.74 1.74-3.74s2.63-1.49 4.43-1.49c1.05 0 1.99.14 2.82.44 1.33-.03 1.83-1.11 1.96-2.96.97 0 2.08.17 2.08 1.16 0 1.25-1.27 2.1-2.82 2.46 1.08.8 1.6 1.99 1.6 3.54s-.58 2.77-1.74 3.74c-1.16 1-2.63 1.49-4.43 1.49-.58 0-1.02-.03-1.27-.06-.28.42-.42.72-.42.97 0 1.16 3.02 1.22 5.45 1.83 1.63.41 2.93 1.52 2.93 3.29 0 1.3-.61 2.41-1.85 3.26-1.25.86-2.85 1.3-4.76 1.3-1.72 0-3.1-.39-4.12-1.19s-1.55-1.66-1.55-2.55c0-.58.28-.97.86-1.11Zm7.8-10.4c0-2.32-.94-3.98-2.93-3.98-1.52 0-2.71 1.52-2.71 3.4 0 2.32.94 3.98 2.93 3.98 1.55 0 2.71-1.52 2.71-3.4M390.61 29.2c0-2.02.61-3.82 1.83-5.37s2.79-2.32 4.73-2.32c3.4 0 5.09 1.83 5.09 3.96-.06 2.68-2.85 3.85-5.34 3.76-.97 0-2.1-.33-2.63-.58l-.42-.19-.11.06c0 3.4 1.6 5.59 4.4 5.59 1.33 0 2.99-.64 3.76-1.16l.58-.42.14.14c-.03.19-.08.41-.64 1.22-.28.42-.61.78-.97 1.08-.75.64-2.24 1.22-3.98 1.22-1.85 0-3.4-.66-4.62-1.96s-1.83-2.99-1.83-5.01Zm5.76-1.35c1.41 0 2.6-.83 2.6-2.41 0-1.47-.69-2.66-2.16-2.66-.58 0-1.13.3-1.63.89-.5.61-.86 1.25-1.05 1.88-.22.66-.33 1.22-.33 1.63 0 .19 1.41.66 2.57.66ZM546.95 13.78a6.56 6.56 0 0 1-4.11-1.91c-.11-.11-.21-.23-.31-.35-.11.53-.2 1.07-.23 1.63-.37 5.96 3.63 11.05 9.1 12.38 1.45.35 2.84-.79 2.84-2.28 0-1.09-.76-2.01-1.82-2.28a7.28 7.28 0 0 1-5.46-7.2ZM553.47 1.99c-.56.03-1.1.12-1.63.23.12.1.24.2.35.31a6.58 6.58 0 0 1 1.91 4.11 7.28 7.28 0 0 1 7.2 5.46c.27 1.06 1.19 1.82 2.28 1.82 1.49 0 2.64-1.39 2.28-2.84-1.33-5.47-6.42-9.47-12.38-9.1ZM550.9 3.82a4.8 4.8 0 0 1 0 6.78 4.8 4.8 0 0 1-6.78 0 4.8 4.8 0 0 1 0-6.78 4.8 4.8 0 0 1 6.78 0M579.22 46.05c.13 1.5.76 2.97 1.91 4.11.11.11.23.21.35.31-.53.11-1.08.2-1.63.23-5.96.37-11.05-3.63-12.38-9.1-.35-1.45.79-2.84 2.28-2.84 1.09 0 2.01.76 2.28 1.82a7.28 7.28 0 0 0 7.2 5.46ZM591.01 39.54c-.03.56-.12 1.1-.23 1.63-.1-.12-.2-.24-.31-.35a6.58 6.58 0 0 0-4.11-1.91 7.28 7.28 0 0 0-5.46-7.2c-1.06-.27-1.82-1.19-1.82-2.28 0-1.49 1.39-2.64 2.84-2.28 5.47 1.33 9.47 6.42 9.1 12.38ZM589.19 42.1c-1.87-1.87-4.9-1.87-6.78 0s-1.87 4.9 0 6.78a4.8 4.8 0 0 0 6.78 0 4.8 4.8 0 0 0 0-6.78M579.22 6.65c.13-1.5.76-2.97 1.91-4.11.11-.11.23-.21.35-.31-.53-.11-1.08-.2-1.63-.23-5.96-.37-11.05 3.63-12.38 9.1-.35 1.45.79 2.84 2.28 2.84 1.09 0 2.01-.76 2.28-1.82a7.28 7.28 0 0 1 7.2-5.46ZM591.01 13.16c-.03-.56-.12-1.1-.23-1.63-.1.12-.2.24-.31.35a6.52 6.52 0 0 1-4.11 1.9 7.28 7.28 0 0 1-5.46 7.2c-1.06.27-1.82 1.19-1.82 2.28 0 1.49 1.39 2.64 2.84 2.28 5.47-1.33 9.47-6.42 9.1-12.38ZM589.19 10.59a4.8 4.8 0 0 1-6.78 0 4.8 4.8 0 0 1 0-6.78c1.87-1.87 4.9-1.87 6.78 0s1.87 4.9 0 6.78M546.95 38.92c-1.5.13-2.97.76-4.11 1.91-.11.11-.21.23-.31.35-.11-.53-.2-1.07-.23-1.63-.37-5.96 3.63-11.05 9.1-12.38 1.45-.35 2.84.79 2.84 2.28 0 1.09-.76 2.01-1.82 2.28a7.28 7.28 0 0 0-5.46 7.2ZM553.47 50.71c-.56-.03-1.1-.12-1.63-.23.12-.1.24-.2.35-.31a6.58 6.58 0 0 0 1.91-4.11c3.46.07 6.38-2.27 7.2-5.46.27-1.06 1.19-1.82 2.28-1.82 1.49 0 2.64 1.39 2.28 2.84-1.33 5.47-6.42 9.47-12.38 9.1ZM550.9 48.88a4.8 4.8 0 0 0 0-6.78c-1.87-1.87-4.91-1.87-6.78 0s-1.87 4.9 0 6.78a4.8 4.8 0 0 0 6.78 0M558.45 14.38c0 2.08-1.69 3.76-3.76 3.76s-3.76-1.69-3.76-3.76 1.69-3.76 3.76-3.76 3.76 1.69 3.76 3.76M582.39 38.32c0 2.08-1.68 3.76-3.76 3.76s-3.76-1.69-3.76-3.76 1.69-3.76 3.76-3.76 3.76 1.69 3.76 3.76M578.62 18.15c-2.08 0-3.76-1.69-3.76-3.76s1.69-3.76 3.76-3.76 3.76 1.69 3.76 3.76-1.68 3.76-3.76 3.76M554.69 42.08c-2.08 0-3.76-1.69-3.76-3.76s1.69-3.76 3.76-3.76 3.76 1.69 3.76 3.76-1.69 3.76-3.76 3.76M566.66 16.48c-5.45 0-9.87 4.42-9.87 9.87s4.42 9.87 9.87 9.87 9.87-4.42 9.87-9.87-4.42-9.87-9.87-9.87m0 18.19c-4.6 0-8.32-3.73-8.32-8.32s3.73-8.32 8.32-8.32 8.32 3.73 8.32 8.32-3.73 8.32-8.32 8.32" class="st0"/><circle cx="566.66" cy="26.35" r="7.78" class="st0" transform="rotate(-76.72 566.637 26.36)"/><path d="M606.91 22.01c.54-.54 1.17-.95 1.91-1.25.73-.3 1.54-.44 2.42-.44.93 0 1.8.19 2.59.56.8.38 1.51.93 2.14 1.67l2.82-2.58a8.75 8.75 0 0 0-3.33-2.49c-1.33-.56-2.8-.85-4.43-.85-1.45 0-2.8.24-4.04.71-1.25.48-2.33 1.15-3.25 2.03s-1.64 1.91-2.15 3.09-.77 2.48-.77 3.9.26 2.72.77 3.9a9.4 9.4 0 0 0 2.14 3.09c.91.88 1.99 1.55 3.24 2.03s2.59.71 4.04.71c1.65 0 3.14-.29 4.46-.86a8.6 8.6 0 0 0 3.33-2.5l-2.82-2.58c-.63.74-1.34 1.3-2.14 1.68-.8.39-1.66.58-2.59.58-.88 0-1.68-.15-2.42-.44-.73-.3-1.37-.71-1.91-1.25s-.95-1.17-1.25-1.91c-.3-.73-.44-1.55-.44-2.45s.15-1.71.44-2.45c.3-.73.71-1.37 1.25-1.91ZM657.33 28.37l-9.35-11.42h-3.61v18.82h4.3V24.35l9.36 11.42h3.6V16.95h-4.3zM638.17 19.37c-.93-.88-2.02-1.55-3.27-2.03-1.25-.47-2.61-.71-4.1-.71s-2.85.24-4.1.73a9.95 9.95 0 0 0-3.26 2.04c-.93.88-1.65 1.9-2.16 3.08-.24.55-.42 1.13-.54 1.73h4.53c.03-.09.06-.19.1-.28.3-.73.71-1.36 1.24-1.91s1.15-.97 1.87-1.26c.72-.3 1.5-.44 2.34-.44s1.62.15 2.32.44c.71.3 1.33.72 1.87 1.26.54.55.95 1.18 1.25 1.91s.44 1.54.44 2.43-.15 1.71-.44 2.43c-.3.73-.71 1.36-1.25 1.91s-1.16.97-1.87 1.26c-.71.3-1.48.44-2.32.44s-1.62-.15-2.34-.44a5.6 5.6 0 0 1-1.87-1.26c-.53-.55-.94-1.18-1.24-1.91-.05-.12-.09-.25-.13-.37h-4.52c.13.63.31 1.23.56 1.81a9.3 9.3 0 0 0 2.16 3.09c.93.88 2.02 1.56 3.28 2.04 1.25.48 2.63.73 4.11.73s2.83-.24 4.07-.71a9.7 9.7 0 0 0 3.27-2.03c.93-.88 1.65-1.91 2.16-3.11.51-1.19.77-2.49.77-3.89s-.26-2.72-.77-3.9a9.3 9.3 0 0 0-2.16-3.09Z" class="st0"/><path d="M607.33 26.63c.15 2.13 1.9 3.84 4.03 3.95 1.74.09 3.26-.86 4-2.29.34-.66 1.03-1.07 1.78-1.07h9.85c.61 0 1.19.28 1.57.75.48.6 1.23.99 2.06.99 1.51 0 2.73-1.27 2.64-2.81a2.66 2.66 0 0 0-2.49-2.48c-.9-.05-1.71.35-2.22 1-.37.47-.95.74-1.56.74h-9.85c-.74 0-1.43-.41-1.77-1.07a4.258 4.258 0 0 0-8.03 2.27ZM670.53 19.01s0 .11-.02.26c-.01.15-.08.32-.21.49-.13.18-.33.33-.61.47s-.7.21-1.24.21q-1.095 0-1.71-.12c-.41-.08-.71-.2-.91-.34s-.32-.31-.36-.49-.07-.37-.07-.56c0-1.88.47-3.49 1.42-4.84.95-1.34 2.27-2.45 3.98-3.3q2.565-1.29 6.15-1.89c2.39-.4 5.03-.61 7.92-.61 1.92 0 3.93.06 6.03.19s4.27.35 6.5.66c.64.18 1.09.43 1.33.76.25.33.37.68.37 1.04 0 .24-.03.49-.1.76s-.17.51-.31.74-.33.41-.56.56-.51.22-.82.22h-.16c-.06 0-.12-.02-.18-.03-.82-.14-1.71-.26-2.67-.37s-1.96-.2-3.01-.27-2.13-.12-3.25-.15-2.25-.05-3.4-.05c-.34 0-.75.02-1.22.06s-.93.08-1.37.13c-.5.05-1.03.11-1.57.19 0 .14-.01.3-.04.47-.03.18-.06.42-.11.74s-.11.72-.18 1.21-.15 1.13-.26 1.9c-.1.78-.21 1.71-.34 2.81s-.26 2.4-.42 3.92h10.5c.3 0 .54.06.7.18q.24.18.36.45c.08.18.12.38.13.59s.02.41.02.6c0 .61-.13 1.06-.4 1.36-.26.3-.54.45-.81.45-.09 0-.38 0-.87.03-.49.02-1.09.04-1.8.07s-1.48.05-2.33.09c-.85.03-1.66.06-2.45.09s-1.51.05-2.16.07q-.975.03-1.47.03-.345 2.295-.78 4.41c-.29 1.41-.65 2.74-1.09 3.97s-.95 2.35-1.54 3.36a10.4 10.4 0 0 1-2.12 2.59c-.82.72-1.77 1.28-2.84 1.68q-1.605.6-3.69.6c-.29 0-.64-.02-1.04-.06s-.83-.1-1.27-.19-.88-.21-1.32-.35a5.7 5.7 0 0 1-1.16-.54c-.34-.21-.62-.46-.83-.75a1.6 1.6 0 0 1-.32-.98q0-.285.12-.75c.12-.465.21-.61.38-.9s.38-.54.64-.76c.26-.21.57-.32.94-.32.42 0 .85.07 1.32.21.46.14.94.29 1.43.46s1 .33 1.51.46c.52.14 1.04.21 1.57.21.42 0 .82-.17 1.21-.5q.585-.495 1.11-1.38c.35-.59.68-1.27.99-2.06.32-.79.61-1.64.89-2.56.28-.91.54-1.87.78-2.87s.46-1.99.66-2.99h-2.33c-.21 0-.48-.03-.79-.08-.32-.05-.62-.14-.91-.26s-.54-.28-.74-.48-.3-.45-.3-.76c0-.21.06-.42.17-.61q.165-.285.57-.42c.71-.15 1.32-.28 1.85-.4.53-.11 1-.21 1.41-.29s.77-.15 1.09-.22c.31-.06.61-.11.87-.15.3-1.35.54-2.52.72-3.52s.33-1.9.45-2.72c.13-.81.25-1.58.36-2.3s.25-1.48.4-2.29c-1.1.32-2.05.69-2.86 1.14-.81.44-1.48.92-2.01 1.42-.53.51-.92 1.03-1.17 1.57s-.38 1.07-.38 1.59Z" class="st0"/><path d="M698.23 27.78c.37.73.64 1.5.82 2.32q.27 1.215.27 2.34c0 1.125-.08 1.5-.25 2.25-.16.76-.4 1.49-.71 2.2s-.69 1.37-1.14 1.99-.96 1.15-1.53 1.61c-.57.45-1.2.81-1.88 1.08-.68.26-1.41.4-2.18.4-1.11 0-2.06-.24-2.85-.73a6.1 6.1 0 0 1-1.94-1.9c-.5-.78-.87-1.67-1.11-2.65-.23-.98-.35-1.98-.35-2.99 0-1.39.21-2.69.62-3.89.42-1.2 1.01-2.25 1.79-3.14a8.2 8.2 0 0 1 2.85-2.1c1.12-.51 2.38-.77 3.78-.77 1.2 0 2.32.19 3.37.56q1.575.555 2.94 1.5c.91.62 1.77 1.34 2.55 2.15.79.81 1.52 1.64 2.2 2.5l-.36 2.67c-.34-.45-.8-.95-1.38-1.48s-1.2-1.05-1.84-1.55c-.65-.5-1.29-.98-1.92-1.43s-1.17-.82-1.63-1.13l-.15.21Zm-5.84 10.54c.43 0 .84-.22 1.25-.65.4-.44.76-.98 1.06-1.65.3-.66.55-1.39.73-2.2.18-.8.27-1.57.27-2.3 0-.58-.04-1.12-.13-1.62s-.22-.93-.4-1.3-.4-.66-.68-.87-.61-.32-1-.32c-.52 0-1.01.22-1.48.66s-.88 1.01-1.23 1.69c-.35.69-.63 1.45-.83 2.28q-.3 1.245-.3 2.4 0 .795.15 1.5c.1.47.26.87.47 1.22s.5.62.85.83.78.31 1.27.31Z" class="st0"/><path d="M714.75 27.78c.37.73.64 1.5.82 2.32q.27 1.215.27 2.34c0 1.125-.08 1.5-.25 2.25-.16.76-.4 1.49-.71 2.2s-.69 1.37-1.14 1.99-.96 1.15-1.53 1.61c-.57.45-1.2.81-1.88 1.08-.68.26-1.41.4-2.18.4-1.11 0-2.06-.24-2.85-.73a6.1 6.1 0 0 1-1.94-1.9c-.5-.78-.87-1.67-1.11-2.65-.23-.98-.35-1.98-.35-2.99 0-1.39.21-2.69.62-3.89.42-1.2 1.01-2.25 1.79-3.14a8.2 8.2 0 0 1 2.85-2.1c1.12-.51 2.38-.77 3.78-.77 1.2 0 2.32.19 3.37.56q1.575.555 2.94 1.5c.91.62 1.77 1.34 2.55 2.15.79.81 1.52 1.64 2.2 2.5l-.36 2.67c-.34-.45-.8-.95-1.38-1.48s-1.2-1.05-1.84-1.55c-.65-.5-1.29-.98-1.92-1.43s-1.17-.82-1.63-1.13l-.15.21Zm-5.84 10.54c.43 0 .84-.22 1.25-.65.4-.44.76-.98 1.06-1.65.3-.66.55-1.39.73-2.2.18-.8.27-1.57.27-2.3 0-.58-.04-1.12-.13-1.62s-.22-.93-.4-1.3-.4-.66-.68-.87-.61-.32-1-.32c-.52 0-1.01.22-1.48.66s-.88 1.01-1.23 1.69c-.35.69-.63 1.45-.83 2.28q-.3 1.245-.3 2.4 0 .795.15 1.5c.1.47.26.87.47 1.22s.5.62.85.83.78.31 1.27.31Z" class="st0"/><path d="M738.25 35.6c-.3.21-.61.43-.94.63-.32.21-.64.39-.96.56-.32.16-.61.29-.9.39-.28.09-.55.18-.79.14-2.53-.42-4.11-10.16.57-19.03.38-.73.75-1.46 1.16-2.18.6-1.03 1.27-2.03 2-3l.21-.27c.25-.33.51-.65.77-.96.44-.51.9-1.01 1.38-1.48.31-.31.63-.6.96-.89.35-.3.7-.6 1.07-.89l.15-.12c.12-.09.22-.25.25-.39.39-1.8.47-3.61.29-5.44 0-.04 0-.07.02-.18.75 1.81.78 3.58.15 5.38l.09.06c.01 0 .02-.01.03-.02l1.04-.68c.17-.11.34-.23.51-.34.08-.06.13-.18.16-.29.5-1.75.66-3.52.51-5.33-.02-.28-.05-.57-.09-.86 0-.06-.02-.12-.02-.18-.72.12-1.42.27-2.11.47-.06.02-.12.03-.18.05-2.2.65-4.24 1.69-6.19 3.04.95 1.65 1.42 3.36 1.38 5.14-.02.8-.14 1.62-.38 2.45-.02-.33-.04-.66-.08-.98-.09-.93-.26-1.85-.52-2.74-.04-.15-.09-.3-.14-.45-.3-.92-.71-1.81-1.26-2.68-2.08 1.71-3.75 3.69-5.04 5.99 2.21 1.29 3.38 3.13 3.57 5.51.03.33.03.67.02 1.02l-.18-.57c-.32-.93-.73-1.82-1.31-2.64-.7-.98-1.53-1.8-2.7-2.22-.26.55-1.62 3.34-1.81 5.94-.27 3.59.65 7.16.65 7.16s-3.74.07-6.77 2.12c-.74.5-1.36 1.15-1.93 1.84s-1.05 1.42-1.45 2.2-.7 1.58-.91 2.4c-.21.83-.31 1.64-.31 2.45s.1 1.56.29 2.31c.2.74.49 1.41.89 2s.9 1.06 1.49 1.41c.6.35 1.31.53 2.13.53.58 0 1.16-.09 1.73-.27s1.14-.43 1.7-.73 1.1-.66 1.63-1.07c.52-.41 1.02-.84 1.49-1.3.3.73.66 1.32 1.07 1.76s.82.78 1.23 1.01.79.39 1.14.46c.35.08.61.11.79.11.32 0 .66-.05 1.03-.16q.555-.165 1.14-.42c.39-.17.79-.37 1.19-.59s.79-.44 1.15-.67c.87-.54 1.75-1.16 2.65-1.86l-.57-4.37a35 35 0 0 1-2.18 1.72Zm2.15-31.46q.21.33.36.69c.21.49.33 1 .39 1.5.16 1.31-.12 2.56-.54 3.1.05-.55.08-1.1.08-1.66 0-.67-.04-1.33-.13-2-.06-.46-.15-.93-.26-1.39-.05-.19-.1-.39-.16-.58.09.11.17.23.24.34Zm-6.31 4.61c1.05.37 1.94 1.58 2.34 2.87.23.74.31 1.51.16 2.15-.14-.41-.28-.85-.43-1.3-.14-.43-.3-.86-.5-1.27-.42-.85-1.02-1.61-1.57-2.46Zm-1.61 13.07c-.43-.58-.88-1.2-1.31-1.78.54.05 1.29.84 1.39 1.62q.015.135 0 .27zm1.19-2.56c-.57-1.45-1.36-2.73-2.7-3.75 1.53.34 2.82 2.02 2.7 3.75m-9.83 18.51a1.6 1.6 0 0 1-.64-.49c-.15-.2-.26-.43-.31-.68-.06-.25-.09-.5-.09-.76 0-.63.11-1.34.34-2.12s.56-1.56.99-2.33.98-1.49 1.63-2.15 1.39-1.2 2.22-1.6l1.97-.94s-.32 5.31-1.94 8.45c-1.74 3.39-3.9 2.75-4.17 2.62" class="st1"/><path d="M747.86 6.88c-5.15 2.37-8.75 6.3-11.26 11.3-1.1 2.2-2.24 5.28-2.6 7.02 3.5-.03 6.16-1.66 8.36-4.2-.02-.05-.03-.1-.05-.16-2 .15-4 .31-6.01.46a17 17 0 0 1 6.67-1.66c.26-.01.39-.11.52-.34.61-1.1 1.25-2.19 1.94-3.37l-5.87-.12c0-.03-.02-.06-.03-.09.73-.23 1.46-.48 2.2-.67 1.33-.35 2.69-.43 4.06-.41.18 0 .43-.06.52-.18.71-.91 1.39-1.85 2.09-2.8-1.23-.21-2.46-.43-3.69-.64v-.1c.71-.1 1.42-.22 2.13-.29.65-.06 1.3-.1 1.95-.05.54.04.89-.16 1.22-.63-1.03-.23-2.03-.46-3.04-.68.98-.22 1.96-.2 2.9.11.63.21.97-.1 1.36-.48-.39-.33-.77-.64-1.14-.95.02-.03.03-.07.05-.1.47.18.95.34 1.41.54.18.08.31.11.48-.01.43-.3.87-.57 1.37-.9-.35-.25-.7-.49-1.12-.79.72-.05 1.37-.07 2.02.13.16.05.37.04.54 0 .63-.17 1.24-.38 1.87-.53.61-.14 1.24-.23 1.89-.34-.94-.43-1.92-.6-2.93-.67-2.75-.17-5.34.48-7.81 1.62Z" class="st1"/><path d="M762.04 6.49c-.16-.32-.34-.62-.53-.9-.15-.23-.31-.44-.48-.65-.25-.31-.53-.61-.81-.89-.22-.21-.45-.42-.69-.61-.25-.2-.5-.4-.77-.58-.14-.1-.28-.2-.43-.29-.18-.12-.31-.13-.51 0-.15.11-.3.21-.45.31-.3.2-.61.39-.94.61l.15-.24c.27-.42.53-.82.83-1.27-.22-.1-.44-.19-.67-.29-.09-.04-.19-.08-.28-.12-.26-.12-.53-.23-.79-.34-.19-.08-.38-.16-.57-.23-.02 0-.04-.01-.05-.02-.26-.11-.55-.25-.82-.3a.7.7 0 0 0-.36 0c-.35.08-.6.55-.89.85-.07.08-.15.15-.22.23-.32.33-.63.67-.97.99-.16.15-.32.31-.48.46.18-.38.37-.75.55-1.13q.405-.84.84-1.71c-.26-.05-.52-.09-.77-.13-.48-.07-.96-.12-1.44-.16-.21-.02-.42-.03-.63-.04-.36-.02-.73-.02-1.09-.02h-.35c-.35 0-.7.02-1.05.05-.1 0-.21.01-.31.02.08.96.11 1.9.03 2.84-.01.17-.03.34-.05.51v.02a11.4 11.4 0 0 1-.72 2.87c.15-.06.29-.12.43-.18.32-.14.63-.27.94-.4.23-.1.46-.19.69-.28.1-.04.19-.07.29-.11.3-.11.61-.22.91-.32.32-.11.63-.2.95-.29.31-.09.63-.17.95-.24q.465-.105.93-.18a13 13 0 0 1 1.78-.18c.16 0 .32-.01.48 0 .73 0 1.48.06 2.22.19.07.01.13.02.2.04.17.03.34.07.5.11.43.1.86.23 1.27.39q.615.225 1.2.54c.31.16.61.34.91.54.31.21.61.43.9.67.04.03.08.07.12.1s.08.05.19.12c-.05-.1-.1-.21-.15-.31ZM749.13 2.1c.11-.43.22-.86.32-1.28-.11.43-.22.86-.32 1.28M749.39 20.09h.01z" class="st1"/><path d="M888.95 13.78a6.56 6.56 0 0 1-4.11-1.91c-.11-.11-.21-.23-.31-.35-.11.53-.2 1.08-.23 1.63-.37 5.96 3.63 11.05 9.1 12.38 1.45.35 2.84-.79 2.84-2.28 0-1.09-.76-2.01-1.82-2.28a7.28 7.28 0 0 1-5.46-7.2ZM895.47 1.99c-.56.03-1.1.12-1.63.23.12.1.24.2.35.31a6.52 6.52 0 0 1 1.9 4.11 7.28 7.28 0 0 1 7.2 5.46c.27 1.06 1.19 1.82 2.28 1.82 1.49 0 2.64-1.39 2.28-2.84-1.33-5.47-6.42-9.47-12.38-9.1ZM892.9 3.82a4.8 4.8 0 0 1 0 6.78 4.8 4.8 0 0 1-6.78 0c-1.87-1.87-1.87-4.9 0-6.78s4.9-1.87 6.78 0M921.22 46.05c.13 1.5.76 2.97 1.91 4.11.11.11.23.21.35.31-.53.11-1.08.2-1.63.23-5.96.37-11.05-3.63-12.38-9.1-.35-1.45.79-2.84 2.28-2.84 1.09 0 2.01.76 2.28 1.82a7.28 7.28 0 0 0 7.2 5.46ZM933.01 39.54c-.03.56-.12 1.1-.23 1.63-.1-.12-.2-.24-.31-.35a6.58 6.58 0 0 0-4.11-1.91 7.28 7.28 0 0 0-5.46-7.2c-1.06-.27-1.82-1.19-1.82-2.28 0-1.49 1.39-2.64 2.84-2.28 5.47 1.33 9.47 6.42 9.1 12.38ZM931.19 42.1a4.8 4.8 0 0 0-6.78 0 4.8 4.8 0 0 0 0 6.78 4.8 4.8 0 0 0 6.78 0 4.8 4.8 0 0 0 0-6.78M921.22 6.65c.13-1.5.76-2.97 1.91-4.11.11-.11.23-.21.35-.31-.53-.11-1.08-.2-1.63-.23-5.96-.37-11.05 3.63-12.38 9.1-.35 1.45.79 2.84 2.28 2.84 1.09 0 2.01-.76 2.28-1.82a7.28 7.28 0 0 1 7.2-5.46ZM933.01 13.16c-.03-.56-.12-1.1-.23-1.63-.1.12-.2.24-.31.35a6.52 6.52 0 0 1-4.11 1.9 7.28 7.28 0 0 1-5.46 7.2c-1.06.27-1.82 1.19-1.82 2.28 0 1.49 1.39 2.64 2.84 2.28 5.47-1.33 9.47-6.42 9.1-12.38ZM931.19 10.59a4.8 4.8 0 0 1-6.78 0 4.8 4.8 0 0 1 0-6.78 4.8 4.8 0 0 1 6.78 0 4.8 4.8 0 0 1 0 6.78M888.95 38.92c-1.5.13-2.97.76-4.11 1.91-.11.11-.21.23-.31.35-.11-.53-.2-1.08-.23-1.63-.37-5.96 3.63-11.05 9.1-12.38 1.45-.35 2.84.79 2.84 2.28 0 1.09-.76 2.01-1.82 2.28a7.28 7.28 0 0 0-5.46 7.2ZM895.47 50.71c-.56-.03-1.1-.12-1.63-.23.12-.1.24-.2.35-.31a6.52 6.52 0 0 0 1.9-4.11c3.46.07 6.38-2.27 7.2-5.46.27-1.06 1.19-1.82 2.28-1.82 1.49 0 2.64 1.39 2.28 2.84-1.33 5.47-6.42 9.47-12.38 9.1ZM892.9 48.88a4.8 4.8 0 0 0 0-6.78 4.8 4.8 0 0 0-6.78 0 4.8 4.8 0 0 0 0 6.78 4.8 4.8 0 0 0 6.78 0M893.74 11.79a3.41 3.41 0 0 0 .05 4.5 3.41 3.41 0 0 0 3.55.97 1.6 1.6 0 0 1 1.61.4l.93.93c.34.34.51.83.46 1.31-.07.61.13 1.25.6 1.72.85.85 2.26.82 3.07-.09.7-.79.7-2.01 0-2.8-.48-.54-1.16-.77-1.82-.69-.48.06-.95-.12-1.29-.46l-.93-.93c-.42-.42-.58-1.04-.4-1.6.37-1.17.09-2.5-.84-3.43a3.397 3.397 0 0 0-4.98.18ZM923.57 40.91a3.41 3.41 0 0 0-.05-4.5 3.41 3.41 0 0 0-3.55-.97 1.6 1.6 0 0 1-1.61-.4l-.93-.93c-.34-.34-.51-.83-.46-1.31.07-.61-.13-1.25-.6-1.72-.85-.85-2.26-.82-3.07.09-.7.79-.7 2.01 0 2.8.48.54 1.16.77 1.82.69.48-.06.95.12 1.29.46l.93.93c.42.42.58 1.04.4 1.6-.37 1.17-.09 2.5.84 3.43a3.397 3.397 0 0 0 4.98-.18ZM923.22 11.43a3.41 3.41 0 0 0-4.5.05 3.41 3.41 0 0 0-.97 3.55 1.6 1.6 0 0 1-.4 1.61l-.93.93c-.34.34-.83.51-1.31.46-.61-.07-1.25.13-1.72.6-.85.85-.82 2.26.09 3.07.79.7 2.01.7 2.8 0 .54-.48.76-1.16.69-1.82-.06-.48.12-.95.46-1.29l.93-.93c.42-.42 1.04-.58 1.6-.4 1.17.37 2.5.09 3.43-.84a3.397 3.397 0 0 0-.18-4.98ZM894.09 41.27a3.41 3.41 0 0 0 4.5-.05 3.41 3.41 0 0 0 .97-3.55 1.6 1.6 0 0 1 .4-1.61l.93-.93c.34-.34.83-.51 1.31-.46.61.07 1.25-.13 1.72-.6.85-.85.82-2.26-.09-3.07-.79-.7-2.01-.7-2.8 0a2.11 2.11 0 0 0-.69 1.82c.06.48-.12.95-.46 1.29l-.93.93c-.42.42-1.04.58-1.6.4-1.17-.37-2.5-.09-3.43.84a3.397 3.397 0 0 0 .18 4.98Z" class="st0"/><path d="M916.4 24.75c-.48-.6-1.12-1-1.8-1.35-.64-.33-1.31-.56-2-.75-.03 0-.06-.02-.08-.03-.02 0-.03-.02-.03-.04-.08-.35-.18-.7-.3-1.04-.33-.96-.75-1.86-1.45-2.62-.54-.59-1.18-1-2.02-1h-.14c-.84 0-1.47.41-2.01 1-.69.76-1.12 1.66-1.45 2.62-.12.34-.21.69-.3 1.04 0 .02-.01.03-.03.04-.03.01-.05.02-.08.03-.69.19-1.37.42-2 .75-.67.35-1.31.74-1.8 1.35-.82 1.03-.82 2.21.02 3.23.5.61 1.15 1.01 1.84 1.35.63.32 1.3.53 1.97.72.01 0 .03 0 .04.01.02 0 .03.02.03.04.01.05.02.1.04.14.22.84.5 1.65.92 2.41.36.65.81 1.22 1.42 1.66.44.31.94.46 1.45.44.51.02 1.01-.13 1.45-.44.61-.44 1.06-1.01 1.42-1.66q.315-.585.54-1.2c.02-.07.05-.13.07-.2v-.01c.29-.86.44-1.89.5-2.52v-.03a.4.4 0 0 1 0-.15l.06-.42c.06-.54.07-1.09.09-1.63.02-.42-.03-.85-.04-1.27 0-.14-.07-.23-.21-.28-.22-.08-.44-.16-.67-.23-.14-.04-.19 0-.2.15 0 .25.08.49.08.74 0 .87.02 1.74-.12 2.6-.05.33-.12.66-.2.98 0 .02-.02.04-.04.04q-.615.135-1.23.21h-.13q-.69.075-1.38.09-.69 0-1.38-.09h-.13c-.09-.01-.18-.02-.27-.04-.04 0-.07.03-.06.07.08.31.19.67.31.98 0 .02.03.03.05.03.5.04.99.06 1.49.06.75 0 1.49-.04 2.23-.14.03 0 .06-.01.09-.01.04 0 .07.04.05.08-.18.43-.42.85-.71 1.24-.22.29-.48.55-.8.73-.29.16-.57.24-.85.26-.28-.02-.56-.11-.85-.26-.32-.18-.58-.44-.8-.73-.19-.24-.35-.5-.49-.76-.27-.37-.49-1.16-.63-1.71-.04-.16-.07-.32-.11-.48 0-.04-.01-.07-.02-.1v-.04a5 5 0 0 1-.07-.4c-.14-.86-.13-1.73-.12-2.6 0-.25.08-.49.08-.74 0-.15-.05-.19-.2-.15-.23.07-.45.15-.67.23-.14.05-.21.14-.21.28-.02.42-.06.85-.04 1.27.03.69.04 1.37.15 2.05.03.19-.02.23-.2.15-.57-.24-1.09-.56-1.52-1.02-.69-.73-.78-1.61-.24-2.4.25-.37.58-.66.96-.89.91-.56 1.91-.86 2.95-1.05q1.005-.18 2.04-.18 1.02 0 2.04.18c1.04.19 2.04.49 2.95 1.05.38.23.71.52.96.89.53.78.44 1.66-.24 2.4a3.8 3.8 0 0 1-.8.65c-.01 0-.02.02-.03.04-.04.37-.1.85-.21 1.36 0 .04.03.08.07.06.39-.13.77-.28 1.14-.47.69-.35 1.34-.74 1.84-1.35.84-1.03.84-2.2.02-3.23Zm-5.42-2.5s-.04.04-.07.05h-.02c-.72-.13-1.46-.11-2.19-.16h-.08c-.72.05-1.45.04-2.17.16-.04-.01-.07-.03-.11-.04-.05-.08.02-.15.05-.22.28-.61.64-1.16 1.18-1.59.34-.27.72-.42 1.09-.44.38.02.75.16 1.09.44.53.43.9.98 1.18 1.59.03.07.11.14.05.22Z" class="st0"/><path d="M908.66 24.54a1.81 1.81 0 1 1 0 3.62 1.81 1.81 0 0 1 0-3.62M948.92 22c.54-.54 1.17-.96 1.91-1.25.74-.3 1.54-.44 2.42-.44.93 0 1.8.19 2.6.57s1.51.93 2.14 1.67l2.83-2.58a8.7 8.7 0 0 0-3.34-2.49c-1.33-.56-2.81-.85-4.44-.85-1.45 0-2.8.24-4.05.71a9.8 9.8 0 0 0-3.26 2.03c-.92.88-1.64 1.91-2.15 3.09s-.77 2.48-.77 3.9.26 2.72.77 3.9a9.3 9.3 0 0 0 2.14 3.09c.91.88 2 1.56 3.24 2.03 1.25.48 2.6.71 4.05.71 1.65 0 3.14-.29 4.47-.86a8.74 8.74 0 0 0 3.34-2.5l-2.83-2.58c-.63.74-1.34 1.3-2.14 1.68-.8.39-1.66.58-2.6.58-.88 0-1.69-.15-2.42-.44-.74-.3-1.37-.71-1.91-1.25s-.95-1.17-1.25-1.91-.44-1.55-.44-2.45.15-1.71.44-2.45c.3-.74.71-1.37 1.25-1.91M999.39 28.37l-9.36-11.42h-3.61v18.83h4.31V24.35l9.36 11.43h3.61V16.95h-4.31zM980.21 19.37a9.65 9.65 0 0 0-3.27-2.03c-1.25-.47-2.61-.71-4.1-.71s-2.86.24-4.1.73a9.9 9.9 0 0 0-3.27 2.05c-.93.88-1.65 1.91-2.17 3.08-.24.55-.42 1.13-.54 1.73h4.54c.03-.09.06-.19.1-.28.3-.73.71-1.36 1.24-1.91s1.15-.97 1.87-1.26c.72-.3 1.5-.44 2.34-.44s1.62.15 2.33.44c.71.3 1.33.72 1.87 1.26.54.55.96 1.18 1.25 1.91.3.73.44 1.54.44 2.43s-.15 1.71-.44 2.43c-.3.73-.71 1.36-1.25 1.91s-1.16.97-1.87 1.26c-.71.3-1.48.44-2.33.44s-1.62-.15-2.34-.44a5.6 5.6 0 0 1-1.87-1.26c-.53-.55-.94-1.18-1.24-1.91-.05-.12-.09-.25-.13-.37h-4.52c.13.63.31 1.23.56 1.81a9.1 9.1 0 0 0 2.17 3.09c.93.88 2.03 1.56 3.28 2.05 1.26.48 2.63.73 4.12.73s2.83-.24 4.08-.71a9.65 9.65 0 0 0 3.27-2.03c.93-.88 1.65-1.91 2.17-3.11.51-1.19.77-2.49.77-3.89s-.26-2.72-.77-3.9a9.2 9.2 0 0 0-2.17-3.09Z" class="st0"/><path d="M949.34 26.63c.15 2.13 1.9 3.84 4.03 3.95 1.74.09 3.26-.86 4-2.29.34-.66 1.03-1.07 1.78-1.07h9.86c.61 0 1.19.28 1.57.75.48.6 1.23.99 2.06.99 1.51 0 2.73-1.27 2.64-2.81a2.66 2.66 0 0 0-2.49-2.48c-.9-.05-1.71.35-2.22 1-.37.47-.95.74-1.56.74h-9.86c-.74 0-1.43-.41-1.78-1.07a4.26 4.26 0 0 0-3.79-2.3 4.26 4.26 0 0 0-4.25 4.58ZM1008.01 17.31h9.76q2.1 0 3.57.63c.98.42 1.78 1.03 2.4 1.82.62.8 1.08 1.76 1.36 2.9.29 1.14.43 2.43.43 3.88s-.15 2.71-.45 3.84-.76 2.08-1.39 2.87-1.43 1.39-2.41 1.8-2.15.62-3.51.62h-9.76zm4.2 14.68h5.09c.77 0 1.41-.12 1.93-.37.52-.24.93-.6 1.25-1.06.31-.46.54-1.03.67-1.7s.2-1.44.2-2.29-.06-1.66-.18-2.35-.34-1.28-.64-1.76c-.31-.48-.72-.85-1.25-1.1-.52-.25-1.18-.38-1.97-.38h-5.09v11.01ZM1027.62 17.31h4.2v18.36h-4.2zM1041.26 28.24v-3.67h6.63q1.41 0 2.28.87t.87 2.28v4.8q0 1.41-.87 2.28t-2.28.87h-6.22c-1.36 0-2.53-.21-3.51-.62a5.96 5.96 0 0 1-2.41-1.8c-.63-.79-1.09-1.74-1.39-2.87q-.45-1.695-.45-3.84c0-2.145.14-2.75.42-3.89s.73-2.11 1.35-2.9 1.42-1.39 2.41-1.81 2.18-.63 3.58-.63h7.87v3.67h-7.42c-.8 0-1.46.13-1.98.38s-.92.62-1.22 1.1-.51 1.07-.63 1.76-.18 1.47-.18 2.35.07 1.62.2 2.29.35 1.24.66 1.7.72.82 1.23 1.06c.52.24 1.16.37 1.93.37h3.67c.31 0 .57-.1.76-.29s.29-.45.29-.76v-1.65c0-.31-.1-.57-.29-.76s-.45-.29-.76-.29zM1053.14 17.31h4.2v18.36h-4.2zM1064.42 20.98h-5.24v-3.67h14.69v3.67h-5.24v14.69h-4.2V20.98ZM1083.32 23.24c-.31-.89-.67-1.34-1.08-1.34-.19 0-.38.11-.58.33-.19.22-.37.55-.52.98l-4.59 12.46h-4.46l5.82-15.81c.16-.44.38-.83.68-1.19q.45-.54 1.02-.93c.38-.26.8-.46 1.25-.6q.675-.21 1.38-.21c1 0 1.88.27 2.65.81a4.46 4.46 0 0 1 1.65 2.15l5.8 15.79h-4.46l-4.56-12.43ZM1096.8 27.8c0 .75.06 1.39.18 1.91s.34.96.64 1.3c.31.34.71.59 1.22.75s1.14.24 1.91.24h4.35v3.67h-4.8c-1.36 0-2.53-.14-3.5-.43q-1.455-.435-2.4-1.38t-1.38-2.43c-.29-.99-.43-2.17-.43-3.55V17.31h4.2V27.8ZM4.68 128.46a6.56 6.56 0 0 1-4.11-1.91c-.11-.11-.21-.23-.31-.35-.11.53-.2 1.08-.23 1.63-.37 5.96 3.63 11.05 9.1 12.38 1.45.35 2.84-.79 2.84-2.28 0-1.09-.76-2.01-1.82-2.28a7.28 7.28 0 0 1-5.46-7.2ZM11.2 116.66c-.56.03-1.1.12-1.63.23.12.1.24.2.35.31a6.58 6.58 0 0 1 1.91 4.11 7.29 7.29 0 0 1 7.2 5.46c.27 1.06 1.19 1.82 2.28 1.82 1.49 0 2.64-1.39 2.28-2.84-1.33-5.47-6.42-9.47-12.38-9.1ZM8.63 118.49c1.87 1.87 1.87 4.91 0 6.78s-4.91 1.87-6.78 0-1.87-4.91 0-6.78 4.91-1.87 6.78 0M36.95 160.73c.13 1.5.76 2.97 1.91 4.11.11.11.23.21.35.31-.53.11-1.08.2-1.63.23-5.96.37-11.05-3.63-12.38-9.1-.35-1.45.79-2.84 2.28-2.84 1.09 0 2.01.76 2.28 1.82a7.28 7.28 0 0 0 7.2 5.46ZM48.74 154.21c-.03.56-.12 1.1-.23 1.63-.1-.12-.2-.24-.31-.35a6.58 6.58 0 0 0-4.11-1.91 7.28 7.28 0 0 0-5.46-7.2c-1.06-.27-1.82-1.19-1.82-2.28 0-1.49 1.39-2.64 2.84-2.28 5.47 1.33 9.47 6.42 9.1 12.38ZM46.91 156.78a4.8 4.8 0 0 0-6.78 0 4.8 4.8 0 0 0 0 6.78 4.8 4.8 0 0 0 6.78 0 4.8 4.8 0 0 0 0-6.78M36.95 121.32c.13-1.5.76-2.97 1.91-4.11.11-.11.23-.21.35-.31-.53-.11-1.08-.2-1.63-.23-5.96-.37-11.05 3.63-12.38 9.1-.35 1.45.79 2.84 2.28 2.84 1.09 0 2.01-.76 2.28-1.82a7.28 7.28 0 0 1 7.2-5.46ZM48.74 127.84c-.03-.56-.12-1.1-.23-1.63-.1.12-.2.24-.31.35a6.58 6.58 0 0 1-4.11 1.91 7.28 7.28 0 0 1-5.46 7.2c-1.06.27-1.82 1.19-1.82 2.28 0 1.49 1.39 2.64 2.84 2.28 5.47-1.33 9.47-6.42 9.1-12.38ZM46.91 125.27a4.8 4.8 0 0 1-6.78 0 4.8 4.8 0 0 1 0-6.78 4.8 4.8 0 0 1 6.78 0 4.8 4.8 0 0 1 0 6.78M4.68 153.59c-1.5.13-2.97.76-4.11 1.91-.11.11-.21.23-.31.35-.11-.53-.2-1.08-.23-1.63-.37-5.96 3.63-11.05 9.1-12.38 1.45-.35 2.84.79 2.84 2.28 0 1.09-.76 2.01-1.82 2.28a7.28 7.28 0 0 0-5.46 7.2ZM11.2 165.38c-.56-.03-1.1-.12-1.63-.23.12-.1.24-.2.35-.31a6.58 6.58 0 0 0 1.91-4.11c3.46.07 6.38-2.27 7.2-5.46.27-1.06 1.19-1.82 2.28-1.82 1.49 0 2.64 1.39 2.28 2.84-1.33 5.47-6.42 9.47-12.38 9.1ZM8.63 163.55c1.87-1.87 1.87-4.9 0-6.78s-4.91-1.87-6.78 0-1.87 4.91 0 6.78 4.91 1.87 6.78 0M32.66 137.62c-.53 0-1.02-.12-1.47-.32-.85 4.25-3.54 7.64-5.56 9.68.73.4 1.31 1.06 1.61 1.85 2.33-2.3 5.49-6.24 6.4-11.34-.31.09-.63.14-.97.14ZM22.2 146.98c-2.02-2.04-4.71-5.43-5.56-9.68-.45.21-.95.32-1.47.32-.34 0-.66-.05-.97-.14.91 5.1 4.07 9.04 6.4 11.34.3-.79.88-1.45 1.61-1.85ZM18.63 133.31c1.35-.63 3.16-1.2 5.28-1.2s3.93.57 5.28 1.2c.18-.84.66-1.56 1.32-2.06-1.64-.81-3.89-1.56-6.6-1.56s-4.95.75-6.6 1.56c.66.5 1.14 1.23 1.32 2.06" class="st0"/><path d="M34.93 132.52a2.752 2.752 0 0 0-5.02 1.66c.02.48-.23.93-.65 1.17l-3.41 1.97c-.49-.46-1.15-.74-1.88-.74s-1.43.3-1.93.79l-3.5-2.02c-.42-.24-.67-.69-.65-1.17a2.752 2.752 0 0 0-5.02-1.66 2.747 2.747 0 0 0 3.75 3.86c.4-.26.92-.26 1.33-.02l3.44 1.99c-.12.3-.18.63-.18.98 0 1.29.88 2.36 2.08 2.66.01.07.02.13.02.2v4.32c0 .48-.26.92-.69 1.14-.88.46-1.48 1.38-1.48 2.44 0 1.58 1.34 2.85 2.95 2.74a2.751 2.751 0 0 0 1.07-5.18c-.43-.22-.69-.66-.69-1.14v-4.32c0-.06.01-.11.02-.17a2.746 2.746 0 0 0 2.21-2.69c0-.37-.07-.72-.21-1.04l3.33-1.92c.41-.24.93-.23 1.33.02a2.748 2.748 0 0 0 3.75-3.86ZM121.92 135.15h6.05v15.32h4.37v-15.32h6.04v-3.56h-16.46zM153.27 144.38c1.22-.53 2.17-1.3 2.83-2.32s1-2.23 1-3.66-.33-2.62-1-3.64-1.61-1.81-2.83-2.36-2.68-.82-4.37-.82h-8.17v18.88h4.4v-5.29h3.97l3.67 5.29h4.69l-4.21-6.07h.03Zm-1.59-8.38c.68.57 1.03 1.37 1.03 2.41s-.34 1.85-1.03 2.43c-.68.58-1.69.86-3.02.86h-3.53v-6.55h3.53c1.33 0 2.34.28 3.02.85M173.17 142.02q0 2.67-1.11 3.87c-.74.8-1.77 1.2-3.1 1.2s-2.34-.4-3.08-1.2q-1.11-1.2-1.11-3.87v-8.19l-4.4-2.25v10.55c0 2.79.76 4.93 2.27 6.42s3.61 2.24 6.28 2.24 4.75-.75 6.26-2.24 2.27-3.63 2.27-6.42v-10.55l-4.29 2.25v8.19ZM193.84 140.93q-.975-.585-2.13-.96c-.77-.25-1.56-.46-2.35-.63q-1.185-.255-2.16-.51t-1.56-.72c-.4-.31-.59-.71-.59-1.21q0-.6.36-1.08c.36-.48.62-.58 1.15-.77.52-.19 1.21-.28 2.08-.28s1.69.12 2.59.36 1.77.61 2.62 1.09l1.38-3.29c-.86-.54-1.87-.95-3.03-1.24s-2.33-.43-3.52-.43c-1.78 0-3.26.27-4.44.8s-2.05 1.24-2.63 2.13-.86 1.87-.86 2.95c0 .99.19 1.81.58 2.47q.585.99 1.56 1.59c.66.4 1.38.73 2.16.97s1.56.45 2.33.62 1.49.35 2.14.54c.66.19 1.18.43 1.58.73s.59.7.59 1.2c0 .4-.13.74-.38 1.04s-.64.54-1.17.71c-.53.18-1.23.27-2.09.27-1.13 0-2.26-.18-3.37-.55-1.12-.37-2.07-.84-2.86-1.42l-1.48 3.29c.84.65 1.96 1.17 3.36 1.58 1.39.4 2.85.61 4.36.61 1.78 0 3.26-.27 4.45-.81s2.07-1.25 2.66-2.13c.58-.88.88-1.85.88-2.91 0-.97-.2-1.78-.61-2.44-.4-.66-.93-1.18-1.58-1.56ZM196.88 131.59v3.56h6.05v15.32h4.37v-15.32h6.04v-3.56z" class="st0"/><path d="M177.65 126.25c-.61-.9-1.82-1.21-2.79-.72-.79.4-1.22 1.21-1.18 2.03.02.38-.18.74-.51.93l-2.71 1.56c-.39-.36-.91-.59-1.48-.59s-1.13.24-1.53.63l-2.77-1.6c-.33-.19-.53-.55-.51-.93.03-.82-.4-1.63-1.18-2.03-.97-.5-2.18-.19-2.79.72-.71 1.06-.37 2.48.71 3.11.73.42 1.6.37 2.26-.05.32-.2.73-.21 1.06-.02l2.73 1.58c-.09.24-.15.5-.15.77 0 1.02.7 1.86 1.64 2.1 0 .05.02.11.02.16v3.42c0 .38-.21.73-.54.91a2.177 2.177 0 0 0 1.16 4.1 2.176 2.176 0 0 0 .84-4.1 1.03 1.03 0 0 1-.55-.91v-3.42s0-.09.02-.13c1-.2 1.75-1.08 1.75-2.13 0-.29-.06-.57-.16-.83l2.64-1.52c.33-.19.74-.19 1.06.02.66.42 1.53.47 2.26.05 1.09-.63 1.43-2.05.71-3.11ZM64.65 136.66c.54-.54 1.18-.96 1.91-1.25.74-.3 1.54-.44 2.42-.44.93 0 1.8.19 2.6.57s1.51.93 2.14 1.67l2.83-2.59c-.9-1.1-2.01-1.93-3.34-2.49-1.33-.57-2.81-.85-4.44-.85-1.46 0-2.81.24-4.05.71-1.25.48-2.34 1.15-3.26 2.03a9.4 9.4 0 0 0-2.16 3.1c-.51 1.18-.77 2.49-.77 3.91s.26 2.72.77 3.91a9.5 9.5 0 0 0 2.14 3.1c.92.88 2 1.56 3.25 2.03 1.25.48 2.6.71 4.05.71 1.65 0 3.14-.29 4.47-.86a8.66 8.66 0 0 0 3.34-2.51l-2.83-2.59c-.63.74-1.34 1.3-2.14 1.68-.8.39-1.67.58-2.6.58-.88 0-1.69-.15-2.42-.44-.74-.3-1.37-.71-1.91-1.25s-.96-1.18-1.25-1.91c-.3-.74-.44-1.55-.44-2.45s.15-1.71.44-2.45c.3-.74.71-1.37 1.25-1.91ZM114.98 143.03l-9.38-11.44h-3.61v18.86h4.31v-11.44l9.38 11.44h3.61v-18.86h-4.31zM95.98 134.02a9.7 9.7 0 0 0-3.27-2.03c-1.25-.48-2.62-.71-4.11-.71s-2.86.24-4.11.73-2.34 1.17-3.27 2.05-1.66 1.91-2.17 3.08c-.24.55-.42 1.13-.54 1.73h4.54c.03-.09.06-.19.1-.28.3-.73.71-1.36 1.24-1.91a5.5 5.5 0 0 1 1.87-1.27c.72-.3 1.5-.44 2.34-.44s1.62.15 2.33.44a5.803 5.803 0 0 1 3.12 3.18c.3.73.44 1.54.44 2.44s-.15 1.71-.44 2.44c-.3.73-.71 1.37-1.25 1.91-.54.55-1.16.97-1.87 1.27s-1.49.44-2.33.44-1.63-.15-2.34-.44a5.5 5.5 0 0 1-1.87-1.27c-.53-.55-.94-1.19-1.24-1.91-.05-.12-.09-.25-.13-.37h-4.53c.13.63.31 1.23.56 1.81a9.1 9.1 0 0 0 2.17 3.1c.93.88 2.03 1.56 3.29 2.05 1.26.48 2.63.73 4.12.73s2.83-.24 4.08-.71c1.25-.48 2.34-1.15 3.27-2.03s1.66-1.92 2.17-3.11.77-2.49.77-3.89-.26-2.72-.77-3.91a9.2 9.2 0 0 0-2.17-3.1Z" class="st0"/><path d="M65.07 141.29c.15 2.13 1.9 3.85 4.04 3.95 1.74.09 3.26-.87 4.01-2.29.34-.66 1.03-1.07 1.78-1.07h9.87c.61 0 1.19.28 1.57.75a2.655 2.655 0 0 0 4.72-1.82 2.655 2.655 0 0 0-4.73-1.48c-.37.47-.95.74-1.56.74H74.9c-.74 0-1.43-.41-1.78-1.07a4.26 4.26 0 0 0-3.79-2.3c-2.46 0-4.44 2.08-4.26 4.58ZM360.14 128.46a6.56 6.56 0 0 1-4.11-1.91c-.11-.11-.21-.23-.31-.35-.11.53-.2 1.08-.23 1.63-.37 5.96 3.63 11.05 9.1 12.38 1.45.35 2.84-.79 2.84-2.28 0-1.09-.76-2.01-1.82-2.28a7.28 7.28 0 0 1-5.46-7.2ZM366.65 116.66c-.56.03-1.1.12-1.63.23.12.1.24.2.35.31a6.58 6.58 0 0 1 1.91 4.11 7.28 7.28 0 0 1 7.2 5.46c.27 1.06 1.19 1.82 2.28 1.82 1.49 0 2.64-1.39 2.28-2.84-1.33-5.47-6.42-9.47-12.38-9.1ZM364.09 118.49a4.8 4.8 0 0 1 0 6.78 4.8 4.8 0 0 1-6.78 0 4.8 4.8 0 0 1 0-6.78 4.8 4.8 0 0 1 6.78 0M392.41 160.73c.13 1.5.76 2.97 1.91 4.11.11.11.23.21.35.31-.53.11-1.08.2-1.63.23-5.96.37-11.05-3.63-12.38-9.1-.35-1.45.79-2.84 2.28-2.84 1.09 0 2.01.76 2.28 1.82a7.28 7.28 0 0 0 7.2 5.46ZM404.2 154.21c-.03.56-.12 1.1-.23 1.63-.1-.12-.2-.24-.31-.35a6.52 6.52 0 0 0-4.11-1.9 7.28 7.28 0 0 0-5.46-7.2c-1.06-.27-1.82-1.19-1.82-2.28 0-1.49 1.39-2.64 2.84-2.28 5.47 1.33 9.47 6.42 9.1 12.38ZM402.37 156.78a4.8 4.8 0 0 0-6.78 0 4.8 4.8 0 0 0 0 6.78 4.8 4.8 0 0 0 6.78 0 4.8 4.8 0 0 0 0-6.78M392.41 121.32c.13-1.5.76-2.97 1.91-4.11.11-.11.23-.21.35-.31-.53-.11-1.08-.2-1.63-.23-5.96-.37-11.05 3.63-12.38 9.1-.35 1.45.79 2.84 2.28 2.84 1.09 0 2.01-.76 2.28-1.82a7.28 7.28 0 0 1 7.2-5.46ZM404.2 127.84c-.03-.56-.12-1.1-.23-1.63-.1.12-.2.24-.31.35a6.58 6.58 0 0 1-4.11 1.91 7.28 7.28 0 0 1-5.46 7.2c-1.06.27-1.82 1.19-1.82 2.28 0 1.49 1.39 2.64 2.84 2.28 5.47-1.33 9.47-6.42 9.1-12.38ZM402.37 125.27a4.8 4.8 0 0 1-6.78 0c-1.87-1.87-1.87-4.91 0-6.78s4.9-1.87 6.78 0a4.8 4.8 0 0 1 0 6.78M360.14 153.59c-1.5.13-2.97.76-4.11 1.91-.11.11-.21.23-.31.35-.11-.53-.2-1.08-.23-1.63-.37-5.96 3.63-11.05 9.1-12.38 1.45-.35 2.84.79 2.84 2.28 0 1.09-.76 2.01-1.82 2.28a7.28 7.28 0 0 0-5.46 7.2ZM366.65 165.38c-.56-.03-1.1-.12-1.63-.23.12-.1.24-.2.35-.31a6.58 6.58 0 0 0 1.91-4.11c3.46.07 6.38-2.27 7.2-5.46.27-1.06 1.19-1.82 2.28-1.82 1.49 0 2.64 1.39 2.28 2.84-1.33 5.47-6.42 9.47-12.38 9.1ZM364.09 163.55a4.8 4.8 0 0 0 0-6.78c-1.87-1.87-4.91-1.87-6.78 0s-1.87 4.91 0 6.78a4.8 4.8 0 0 0 6.78 0M388.37 129.36h-17.24a3.15 3.15 0 0 0-3.15 3.15v17.24a3.15 3.15 0 0 0 3.15 3.15h17.24a3.15 3.15 0 0 0 3.15-3.15v-17.24a3.15 3.15 0 0 0-3.15-3.15m-8.62 21.21c-5.22 0-9.45-4.23-9.45-9.45s4.23-9.45 9.45-9.45 9.45 4.23 9.45 9.45-4.23 9.45-9.45 9.45m8.74-16.36c-1.01 0-1.82-.82-1.82-1.82s.82-1.82 1.82-1.82 1.82.82 1.82 1.82-.82 1.82-1.82 1.82" class="st0"/><path d="M377.05 144.63c1.19.19 1.5 1.66 1.5 1.66 0-3.22-3.05-2.91-4.19-4.73 0 0 .35.33 1.39.75 1.17.48 2.17 1.28 2.84 2.21-.45-5.34-4.62-3.17-5.71-5.14-.96 5.09 3.47 5.13 4.16 5.24ZM380.21 149.23a8.9 8.9 0 0 1-.92-6.17 8.9 8.9 0 0 0 .57 7.37c.03.05.05.09.08.13.37 0 .74-.04 1.1-.09-.31-.39-.59-.8-.84-1.25Z" class="st0"/><path d="M378.89 143.29c.8-2.39 2.04-3.02 3.58-3.99 1.33-.83 1.63-1.49 1.65-1.53-1.18 2.85-5.56 3.16-4.79 7.72 0 0 .09-2.17 1.72-2.73.96-.33 7.22-1.46 4.62-8.45-1.06 3.06-7.61.43-6.79 8.97ZM500.13 144.33c.12.52.28.87.47 1.06a.9.9 0 0 0 .66.28c.27 0 .48-.09.64-.28s.31-.55.46-1.09l3.17-12.72h4.45l-4.32 16.15c-.29 1.07-.84 1.85-1.65 2.32s-1.73.71-2.75.71c-.48 0-.96-.06-1.43-.17-.47-.12-.91-.3-1.31-.55s-.75-.56-1.05-.94-.51-.82-.63-1.34l-1.93-8.05-2.04 8.02c-.27 1.07-.81 1.85-1.64 2.32-.82.47-1.74.71-2.76.71-.48 0-.96-.06-1.44-.17-.47-.12-.91-.3-1.31-.55s-.75-.56-1.05-.94-.51-.82-.63-1.34l-4.08-16.18h4.43l2.95 12.74c.12.52.28.87.47 1.06a.9.9 0 0 0 .66.28c.27 0 .48-.09.64-.28s.31-.55.46-1.09l2.66-10.97q.24-.96.99-1.56c.5-.39 1.09-.59 1.77-.59s1.24.2 1.73.59.81.91.95 1.56l2.47 11ZM518.83 137.65c-.32-.91-.69-1.37-1.1-1.37-.2 0-.39.11-.59.34-.2.22-.38.56-.54 1.01l-4.69 12.74h-4.56l5.96-16.18c.16-.45.39-.85.7-1.22.3-.37.65-.68 1.05-.95.39-.27.82-.47 1.27-.62q.69-.21 1.41-.21c1.02 0 1.92.28 2.71.83a4.56 4.56 0 0 1 1.69 2.2l5.93 16.15h-4.56l-4.67-12.72ZM528.06 146.61h6.95c.82 0 1.5-.04 2.03-.13s.95-.21 1.26-.38c.31-.16.53-.36.64-.59.12-.23.17-.49.17-.78 0-.57-.23-1.03-.68-1.38-.46-.35-1.27-.52-2.43-.52h-1.66c-2.13 0-3.71-.5-4.74-1.49s-1.54-2.37-1.54-4.12c0-.89.15-1.69.44-2.39.3-.7.76-1.29 1.41-1.77.64-.48 1.48-.85 2.51-1.1s2.28-.38 3.74-.38h6.09v3.76h-5.69c-.84 0-1.53.04-2.08.12s-.97.2-1.29.36c-.31.16-.53.36-.66.59s-.19.5-.19.8c0 .57.23 1.02.68 1.35.46.33 1.26.5 2.43.5h1.66c2.15 0 3.73.51 4.75 1.52q1.53 1.515 1.53 4.14c0 .89-.14 1.69-.43 2.39q-.435 1.05-1.38 1.77c-.64.48-1.46.85-2.47 1.1s-2.24.38-3.69.38h-5.92l-1.45-3.76ZM545.55 131.59h4.29v7.51h8.64v-7.51h4.29v18.78h-4.29v-7.51h-8.64v7.51h-4.29zM420.11 136.66c.54-.54 1.18-.96 1.91-1.25.74-.3 1.54-.44 2.42-.44.93 0 1.8.19 2.6.57s1.51.93 2.14 1.67l2.83-2.59c-.9-1.1-2.01-1.93-3.34-2.49-1.33-.57-2.81-.85-4.44-.85-1.46 0-2.81.24-4.05.71-1.25.48-2.34 1.15-3.26 2.03a9.4 9.4 0 0 0-2.16 3.1c-.51 1.18-.77 2.49-.77 3.91s.26 2.72.77 3.91a9.5 9.5 0 0 0 2.14 3.1c.92.88 2 1.56 3.25 2.03 1.25.48 2.6.71 4.05.71 1.65 0 3.14-.29 4.47-.86a8.66 8.66 0 0 0 3.34-2.51l-2.83-2.59c-.63.74-1.34 1.3-2.14 1.68-.8.39-1.67.58-2.6.58-.88 0-1.69-.15-2.42-.44-.74-.3-1.37-.71-1.91-1.25s-.96-1.18-1.25-1.91c-.3-.74-.44-1.55-.44-2.45s.15-1.71.44-2.45c.3-.74.71-1.37 1.25-1.91ZM470.44 143.03l-9.38-11.44h-3.61v18.86h4.31v-11.44l9.38 11.44h3.61v-18.86h-4.31zM451.44 134.02a9.7 9.7 0 0 0-3.27-2.03c-1.25-.48-2.62-.71-4.11-.71s-2.86.24-4.11.73-2.34 1.17-3.27 2.05-1.66 1.91-2.17 3.08c-.24.55-.42 1.13-.54 1.73h4.54c.03-.09.06-.19.1-.28.3-.73.71-1.36 1.24-1.91a5.5 5.5 0 0 1 1.87-1.27c.72-.3 1.5-.44 2.34-.44s1.62.15 2.33.44a5.803 5.803 0 0 1 3.12 3.18c.3.73.44 1.54.44 2.44s-.15 1.71-.44 2.44c-.3.73-.71 1.37-1.25 1.91-.54.55-1.16.97-1.87 1.27s-1.49.44-2.33.44-1.63-.15-2.34-.44a5.5 5.5 0 0 1-1.87-1.27c-.53-.55-.94-1.19-1.24-1.91-.05-.12-.09-.25-.13-.37h-4.53c.13.63.31 1.23.56 1.81a9.1 9.1 0 0 0 2.17 3.1c.93.88 2.03 1.56 3.29 2.05 1.26.48 2.63.73 4.12.73s2.83-.24 4.08-.71c1.25-.48 2.34-1.15 3.27-2.03s1.66-1.92 2.17-3.11.77-2.49.77-3.89-.26-2.72-.77-3.91a9.2 9.2 0 0 0-2.17-3.1Z" class="st0"/><path d="M420.53 141.29c.15 2.13 1.9 3.85 4.04 3.95 1.74.09 3.26-.87 4.01-2.29.35-.66 1.03-1.07 1.78-1.07h9.87c.61 0 1.19.28 1.57.75a2.655 2.655 0 0 0 4.72-1.82 2.655 2.655 0 0 0-4.73-1.48c-.37.47-.96.74-1.56.74h-9.87c-.74 0-1.43-.41-1.78-1.07a4.26 4.26 0 0 0-3.79-2.3c-2.46 0-4.44 2.08-4.26 4.58ZM700.85 128.46a6.56 6.56 0 0 1-4.11-1.91c-.11-.11-.21-.23-.31-.35-.11.53-.2 1.08-.23 1.63-.37 5.96 3.63 11.05 9.1 12.38 1.45.35 2.84-.79 2.84-2.28 0-1.09-.76-2.01-1.82-2.28a7.28 7.28 0 0 1-5.46-7.2ZM707.37 116.66c-.56.03-1.1.12-1.63.23.12.1.24.2.35.31a6.58 6.58 0 0 1 1.91 4.11 7.28 7.28 0 0 1 7.2 5.46c.27 1.06 1.19 1.82 2.28 1.82 1.49 0 2.64-1.39 2.28-2.84-1.33-5.47-6.42-9.47-12.38-9.1ZM704.8 118.49a4.8 4.8 0 0 1 0 6.78 4.8 4.8 0 0 1-6.78 0 4.8 4.8 0 0 1 0-6.78 4.8 4.8 0 0 1 6.78 0M733.12 160.73c.13 1.5.76 2.97 1.91 4.11.11.11.23.21.35.31-.53.11-1.08.2-1.63.23-5.96.37-11.05-3.63-12.38-9.1-.35-1.45.79-2.84 2.28-2.84 1.09 0 2.01.76 2.28 1.82a7.28 7.28 0 0 0 7.2 5.46ZM744.92 154.21c-.03.56-.12 1.1-.23 1.63-.1-.12-.2-.24-.31-.35a6.58 6.58 0 0 0-4.11-1.91 7.28 7.28 0 0 0-5.46-7.2c-1.06-.27-1.82-1.19-1.82-2.28 0-1.49 1.39-2.64 2.84-2.28 5.47 1.33 9.47 6.42 9.1 12.38ZM743.09 156.78c-1.87-1.87-4.9-1.87-6.78 0s-1.87 4.91 0 6.78a4.8 4.8 0 0 0 6.78 0 4.8 4.8 0 0 0 0-6.78M733.12 121.32c.13-1.5.76-2.97 1.91-4.11.11-.11.23-.21.35-.31-.53-.11-1.08-.2-1.63-.23-5.96-.37-11.05 3.63-12.38 9.1-.35 1.45.79 2.84 2.28 2.84 1.09 0 2.01-.76 2.28-1.82a7.28 7.28 0 0 1 7.2-5.46ZM744.92 127.84c-.03-.56-.12-1.1-.23-1.63-.1.12-.2.24-.31.35a6.52 6.52 0 0 1-4.11 1.9 7.28 7.28 0 0 1-5.46 7.2c-1.06.27-1.82 1.19-1.82 2.28 0 1.49 1.39 2.64 2.84 2.28 5.47-1.33 9.47-6.42 9.1-12.38ZM743.09 125.27a4.8 4.8 0 0 1-6.78 0 4.8 4.8 0 0 1 0-6.78 4.8 4.8 0 0 1 6.78 0 4.8 4.8 0 0 1 0 6.78M700.85 153.59c-1.5.13-2.97.76-4.11 1.91-.11.11-.21.23-.31.35-.11-.53-.2-1.08-.23-1.63-.37-5.96 3.63-11.05 9.1-12.38 1.45-.35 2.84.79 2.84 2.28 0 1.09-.76 2.01-1.82 2.28a7.28 7.28 0 0 0-5.46 7.2ZM707.37 165.38c-.56-.03-1.1-.12-1.63-.23.12-.1.24-.2.35-.31a6.58 6.58 0 0 0 1.91-4.11c3.46.07 6.38-2.27 7.2-5.46.27-1.06 1.19-1.82 2.28-1.82 1.49 0 2.64 1.39 2.28 2.84-1.33 5.47-6.42 9.47-12.38 9.1ZM704.8 163.55a4.8 4.8 0 0 0 0-6.78 4.8 4.8 0 0 0-6.78 0 4.8 4.8 0 0 0 0 6.78 4.8 4.8 0 0 0 6.78 0" class="st0"/><path d="M718.99 150.78c.45-.74.71-1.61.71-2.53v-4.04c0 .17 0 .33-.03.5a4.96 4.96 0 0 1-2.54 3.81c-.69.38-1.49.59-2.33.59h-2.33v-2.33c0-2.69 2.2-4.9 4.9-4.9h-4.04c-2.69 0-4.9 2.2-4.9 4.9v6.37h6.37c1.35 0 2.57-.55 3.46-1.44.28-.28.52-.59.73-.92ZM721.41 133.8v4.04-.25c.13-2.58 2.28-4.65 4.89-4.65h2.33v2.33c0 2.69-2.2 4.9-4.9 4.9h4.04c2.69 0 4.9-2.2 4.9-4.9v-6.37h-6.37c-.34 0-.67.03-.98.1-.16.03-.32.07-.47.12s-.3.1-.45.17c-1.76.75-3 2.49-3 4.51ZM717.37 140.16c-2.69 0-4.9-2.2-4.9-4.9v-2.33h2.33c2.69 0 4.9 2.2 4.9 4.9v-4.04c0-2.69-2.2-4.9-4.9-4.9h-6.37v6.37c0 2.69 2.2 4.9 4.9 4.9zM732.68 149.1v-2.33c0-2.69-2.2-4.9-4.9-4.9h-4.04.25c2.58.13 4.65 2.28 4.65 4.89v2.33h-2.33c-2.69 0-4.9-2.2-4.9-4.9v4.04c0 2.69 2.2 4.9 4.9 4.9h6.37v-4.04Z" class="st1"/><path d="M723.83 141.02c0 1.81-1.47 3.27-3.27 3.27s-3.27-1.47-3.27-3.27 1.47-3.27 3.27-3.27 3.27 1.47 3.27 3.27" class="st1"/><path d="M825.13 132.33c1.55-1.05 3.31-1.57 5.33-1.57 1.41 0 2.82.25 4.17.75s2.02 1.13 2.02 1.88c0 .58-.55 1.63-1.1 2.21h-.17c-1.35-2.13-3.51-3.28-5.6-3.28-1.66 0-3.06.69-4.2 2.04-1.13 1.35-1.71 3.31-1.71 5.82 0 2.9.94 5.44 3.06 7.07 1.08.83 2.32 1.24 3.78 1.24 2.4 0 4.5-.75 6.29-2.26l.08.08c-.25 1.27-1.08 2.35-2.43 3.26s-2.93 1.35-4.67 1.35c-6.54 0-9.52-4.61-9.52-9.41 0-3.67 1.55-7.07 4.67-9.17ZM841.42 138.51c1.3-1.49 3.06-2.24 5.36-2.24s3.92.63 5.16 1.93 1.85 2.84 1.85 4.64c0 2.18-.64 4.09-1.93 5.66-1.3 1.6-3.09 2.4-5.36 2.4s-3.92-.69-5.16-2.07c-1.24-1.35-1.85-3.01-1.85-4.91 0-2.1.63-3.89 1.93-5.41m2.48 9.3c.69 1.21 1.63 1.82 2.87 1.82 1.16 0 2.07-.63 2.71-1.88.64-1.24.94-2.71.94-4.42 0-1.57-.33-2.95-1.02-4.09-.69-1.13-1.68-1.71-2.93-1.71-1.16 0-2.04.58-2.68 1.74-.63 1.16-.94 2.54-.94 4.17s.36 3.15 1.05 4.36ZM857.27 147.62c.08-1.08.11-2.37.11-3.89 0-.99-.03-2.37-.11-4.14-.08-1.57-.3-2.59-.44-2.79l-.11-.14c.58-.17 1.02-.25 1.35-.25 1.24 0 2.15.63 2.15 1.52l-.11.69.11.03c.25-.66.8-1.21 1.66-1.63.83-.41 1.71-.61 2.62-.61 2.43 0 3.64.88 3.75 2.21l.11.03c.58-1.33 2.51-2.24 4.36-2.24 1.63 0 2.73.33 3.26 1.02.52.69.77 1.63.77 2.82 0 .63-.03 1.63-.06 2.95-.03 1.35-.06 2.43-.06 3.26s.03 1.21.19 1.88c.17.69.55 1.02 1.19 1.02.33 0 .72-.17.91-.3l.14-.08.11.08s-.66 1.71-3.06 1.71c-1.35 0-2.48-.69-2.48-2.24 0-.75.03-1.85.06-3.26s.03-2.62.03-3.59c0-1.19-.03-1.66-.3-2.46-.28-.77-.94-1.13-2.04-1.13-1.19 0-2.02.83-2.4 1.96-.39 1.13-.52 2.04-.52 2.9 0 .03 0 .83.03 2.43s.03 2.43.03 2.51c0 .99-.11 1.57-.39 1.99-.22.36-.17.33-.47.63-.14.14-.22.22-.22.25-.69-.11-.88-.14-1.35-.39s-.66-.83-.66-1.74c0-.75.03-1.85.06-3.31s.03-2.68.03-3.64c0-.91 0-1.33-.17-2.04a1.9 1.9 0 0 0-.39-.83c-.33-.39-.97-.72-1.88-.72-.66 0-1.3.33-1.88 1.02s-.88 1.63-.88 2.79c0 .8.03 1.96.06 3.42.03 1.49.06 2.68.06 3.56 0 1.24-.58 1.88-1.74 1.88-.41 0-1.08-.08-1.96-.28.14-.08.39-.69.55-2.87ZM883.77 155.38c-.88.99-1.93 1.49-3.17 1.49-.36 0-.69-.08-.97-.25v-.14c.63-.25 1.13-.64 1.44-1.16.3-.52.58-1.68.77-3.42.19-1.77.3-4.39.3-7.84 0-2.37-.08-3.92-.22-4.61s-.5-1.13-1.05-1.33l-.72-.28v-1.16c1.3 0 1.88-.33 1.88-1.66 0-4.06 2.13-6.07 5.55-6.07 2.73 0 4.55 1.33 4.55 3.2l-.14.08c-.58-.97-1.74-1.44-3.42-1.44-.91 0-1.74.3-2.43.88-.72.61-1.08 1.6-1.08 2.95v.75l-.08 1.3h1.99c.66 0 1.21-.11 1.35-.22l.14-.06c.03.11.03.36.03.75 0 1.1-.47 1.41-1.55 1.41-.08 0-.39 0-.91-.03h-.94c-.08.97-.11 1.99-.11 3.12 0 .86.03 2.32.06 4.39.03 2.1.03 3.86.03 5.27 0 1.68-.44 3.04-1.3 4.06ZM891.58 138.51c1.3-1.49 3.06-2.24 5.36-2.24s3.92.63 5.16 1.93 1.85 2.84 1.85 4.64c0 2.18-.63 4.09-1.93 5.66-1.3 1.6-3.09 2.4-5.36 2.4s-3.92-.69-5.16-2.07c-1.24-1.35-1.85-3.01-1.85-4.91 0-2.1.63-3.89 1.93-5.41m2.49 9.3c.69 1.21 1.63 1.82 2.87 1.82 1.16 0 2.07-.63 2.71-1.88.64-1.24.94-2.71.94-4.42 0-1.57-.33-2.95-1.02-4.09-.69-1.13-1.68-1.71-2.93-1.71-1.16 0-2.04.58-2.68 1.74-.63 1.16-.94 2.54-.94 4.17s.36 3.15 1.05 4.36ZM907.43 146.18c.03-1.08.06-1.85.06-2.35 0-3.34-.28-5.88-.47-6.57-.08-.36-.17-.55-.22-.61.58-.17 1.02-.25 1.35-.25 1.33 0 2.24.66 2.24 1.77l-.19 1.02.11.03c.36-.83.97-1.52 1.77-2.04s1.6-.77 2.4-.77c.91 0 1.35.36 1.35 1.08s-.11 1.38-.33 1.96l-.14.06c-1.02-.52-1.77-.77-2.21-.77-1.85 0-2.76 1.77-2.76 5.3 0 3.23.28 5.49.44 6.02.08.28.14.41.19.44-1.13.19-1.79.28-1.93.28-1.13 0-1.74-.5-1.74-2.13 0-.58.03-1.38.08-2.46ZM918.56 142.82c.03-1.16.06-1.88.06-2.18 0-1.13-.06-1.82-.19-2.13q-.21-.42-1.08-.66v-1.16c.55 0 1.33-.41 2.35-1.24s1.63-1.49 1.82-1.99l.64.22-.55 3.01h2.26c.66 0 1.21-.11 1.35-.22l.14-.06c.03.11.03.36.03.75 0 1.1-.47 1.41-1.55 1.41l-2.24-.06c-.06 2.18-.08 3.95-.08 5.36 0 1.57.08 2.51.39 3.51.3 1.02.97 1.55 1.99 1.55.8 0 1.93-.52 2.48-.97l.44-.33.14.11c-.03.19-.08.36-.52 1.1-.25.36-.5.69-.77.97-.58.55-1.74 1.1-2.98 1.1-3.06 0-4.17-1.96-4.17-5.36 0-.66.03-1.57.06-2.73ZM760.83 136.66c.54-.54 1.18-.96 1.91-1.25.74-.3 1.54-.44 2.42-.44.93 0 1.8.19 2.6.57s1.51.93 2.14 1.67l2.83-2.59c-.9-1.1-2.01-1.93-3.34-2.49-1.33-.57-2.81-.85-4.44-.85-1.46 0-2.81.24-4.05.71-1.25.48-2.34 1.15-3.26 2.03a9.4 9.4 0 0 0-2.16 3.1c-.51 1.19-.77 2.49-.77 3.91s.26 2.72.77 3.91a9.5 9.5 0 0 0 2.14 3.1c.92.88 2 1.56 3.25 2.03 1.25.48 2.6.71 4.05.71 1.65 0 3.14-.29 4.47-.86a8.66 8.66 0 0 0 3.34-2.51l-2.83-2.59c-.63.74-1.34 1.3-2.14 1.68-.8.39-1.67.58-2.6.58-.88 0-1.69-.15-2.42-.44-.74-.3-1.37-.71-1.91-1.25s-.96-1.18-1.25-1.91c-.3-.74-.44-1.55-.44-2.45s.15-1.71.44-2.45c.3-.74.71-1.37 1.25-1.91ZM811.15 143.03l-9.37-11.44h-3.61v18.86h4.31v-11.44l9.37 11.44h3.61v-18.86h-4.31zM792.16 134.02a9.7 9.7 0 0 0-3.27-2.03c-1.25-.48-2.62-.71-4.11-.71s-2.86.24-4.11.73-2.34 1.17-3.27 2.05-1.66 1.91-2.17 3.08c-.24.55-.42 1.13-.54 1.73h4.54c.03-.09.06-.19.1-.28.3-.73.71-1.36 1.24-1.91a5.5 5.5 0 0 1 1.87-1.27c.72-.3 1.5-.44 2.34-.44s1.62.15 2.33.44a5.803 5.803 0 0 1 3.12 3.18c.3.73.44 1.54.44 2.44s-.15 1.71-.44 2.44c-.3.73-.71 1.37-1.25 1.91-.54.55-1.16.97-1.87 1.27s-1.49.44-2.33.44-1.63-.15-2.34-.44a5.5 5.5 0 0 1-1.87-1.27c-.53-.55-.94-1.19-1.24-1.91-.05-.12-.09-.25-.13-.37h-4.53a9.202 9.202 0 0 0 2.73 4.91c.93.88 2.03 1.56 3.29 2.05 1.26.48 2.63.73 4.12.73s2.83-.24 4.08-.71c1.25-.48 2.34-1.15 3.27-2.03s1.66-1.92 2.17-3.11.77-2.49.77-3.89-.26-2.72-.77-3.91a9.2 9.2 0 0 0-2.17-3.1Z" class="st0"/><path d="M761.25 141.29c.15 2.13 1.9 3.85 4.04 3.95 1.74.09 3.26-.87 4.01-2.29.34-.66 1.03-1.07 1.78-1.07h9.87c.61 0 1.19.28 1.57.75a2.655 2.655 0 0 0 4.72-1.82 2.655 2.655 0 0 0-4.73-1.48c-.37.47-.95.74-1.56.74h-9.87c-.74 0-1.43-.41-1.78-1.07a4.26 4.26 0 0 0-3.79-2.3c-2.46 0-4.44 2.08-4.26 4.58ZM1055.55 128.46a6.56 6.56 0 0 1-4.11-1.91c-.11-.11-.21-.23-.31-.35-.11.53-.2 1.08-.23 1.63-.37 5.96 3.63 11.05 9.1 12.38 1.45.35 2.84-.79 2.84-2.28 0-1.09-.76-2.01-1.82-2.28a7.28 7.28 0 0 1-5.46-7.2ZM1062.06 116.66c-.56.03-1.1.12-1.63.23.12.1.24.2.35.31a6.58 6.58 0 0 1 1.91 4.11 7.28 7.28 0 0 1 7.2 5.46c.27 1.06 1.19 1.82 2.28 1.82 1.49 0 2.64-1.39 2.28-2.84-1.33-5.47-6.42-9.47-12.38-9.1ZM1059.5 118.49a4.8 4.8 0 0 1 0 6.78 4.8 4.8 0 0 1-6.78 0 4.8 4.8 0 0 1 0-6.78 4.8 4.8 0 0 1 6.78 0M1087.82 160.73c.13 1.5.76 2.97 1.91 4.11.11.11.23.21.35.31-.53.11-1.08.2-1.63.23-5.96.37-11.05-3.63-12.38-9.1-.35-1.45.79-2.84 2.28-2.84 1.09 0 2.01.76 2.28 1.82a7.28 7.28 0 0 0 7.2 5.46ZM1099.61 154.21c-.03.56-.12 1.1-.23 1.63-.1-.12-.2-.24-.31-.35a6.58 6.58 0 0 0-4.11-1.91 7.28 7.28 0 0 0-5.46-7.2c-1.06-.27-1.82-1.19-1.82-2.28 0-1.49 1.39-2.64 2.84-2.28 5.47 1.33 9.47 6.42 9.1 12.38ZM1097.78 156.78a4.8 4.8 0 0 0-6.78 0 4.8 4.8 0 0 0 0 6.78 4.8 4.8 0 0 0 6.78 0 4.8 4.8 0 0 0 0-6.78M1087.82 121.32c.13-1.5.76-2.97 1.91-4.11.11-.11.23-.21.35-.31-.53-.11-1.08-.2-1.63-.23-5.96-.37-11.05 3.63-12.38 9.1-.35 1.45.79 2.84 2.28 2.84 1.09 0 2.01-.76 2.28-1.82a7.28 7.28 0 0 1 7.2-5.46ZM1099.61 127.84c-.03-.56-.12-1.1-.23-1.63-.1.12-.2.24-.31.35a6.58 6.58 0 0 1-4.11 1.91 7.28 7.28 0 0 1-5.46 7.2c-1.06.27-1.82 1.19-1.82 2.28 0 1.49 1.39 2.64 2.84 2.28 5.47-1.33 9.47-6.42 9.1-12.38ZM1097.78 125.27c-1.87 1.87-4.91 1.87-6.78 0s-1.87-4.91 0-6.78a4.8 4.8 0 0 1 6.78 0 4.8 4.8 0 0 1 0 6.78M1055.55 153.59c-1.5.13-2.97.76-4.11 1.91-.11.11-.21.23-.31.35-.11-.53-.2-1.08-.23-1.63-.37-5.96 3.63-11.05 9.1-12.38 1.45-.35 2.84.79 2.84 2.28 0 1.09-.76 2.01-1.82 2.28a7.28 7.28 0 0 0-5.46 7.2ZM1062.06 165.38c-.56-.03-1.1-.12-1.63-.23.12-.1.24-.2.35-.31a6.58 6.58 0 0 0 1.91-4.11c3.46.07 6.38-2.27 7.2-5.46.27-1.06 1.19-1.82 2.28-1.82 1.49 0 2.64 1.39 2.28 2.84-1.33 5.47-6.42 9.47-12.38 9.1ZM1059.5 163.55c1.87-1.87 1.87-4.91 0-6.78s-4.91-1.87-6.78 0a4.8 4.8 0 0 0 0 6.78 4.8 4.8 0 0 0 6.78 0M1066.49 128.6c0 1.78-1.45 3.23-3.23 3.23s-3.23-1.45-3.23-3.23 1.45-3.23 3.23-3.23 3.23 1.45 3.23 3.23" class="st0"/><circle cx="1087.24" cy="153.45" r="3.23" class="st0"/><path d="M1061.43 153.45s24.15-4.86 22.6-10.41c-1.56-5.56-13.2.27-3.47-7.37 9.3-7.28 9.36-7.42 9.36-7.42s-17.19 5.84-20.18 7.27c-3 1.43-6.91 5.06.87 7.5 7.77 2.43-9.17 10.44-9.17 10.44ZM1115.46 136.85c.54-.54 1.17-.95 1.9-1.25s1.54-.44 2.41-.44c.93 0 1.79.19 2.59.56s1.51.93 2.13 1.66l2.82-2.57c-.89-1.09-2-1.92-3.33-2.48-1.32-.56-2.8-.84-4.42-.84-1.45 0-2.79.24-4.04.71a9.65 9.65 0 0 0-3.24 2.02c-.92.88-1.64 1.9-2.15 3.08s-.76 2.48-.76 3.89.25 2.71.76 3.89a9.35 9.35 0 0 0 2.13 3.08c.91.88 1.99 1.55 3.23 2.02s2.59.71 4.04.71c1.64 0 3.13-.29 4.45-.86q1.98-.855 3.33-2.49l-2.82-2.57q-.945 1.095-2.13 1.68c-.8.39-1.66.58-2.59.58-.88 0-1.68-.15-2.41-.44s-1.37-.71-1.9-1.25c-.54-.54-.95-1.17-1.25-1.9-.29-.73-.44-1.55-.44-2.44s.15-1.71.44-2.44c.3-.73.71-1.37 1.25-1.9ZM1165.77 143.2l-9.33-11.39h-3.6v18.77h4.29v-11.39l9.34 11.39h3.59v-18.77h-4.29zM1146.65 134.22a9.7 9.7 0 0 0-3.26-2.02c-1.24-.47-2.61-.71-4.09-.71s-2.85.24-4.09.72a9.9 9.9 0 0 0-3.26 2.04c-.93.88-1.65 1.9-2.16 3.07-.24.55-.42 1.13-.54 1.73h4.52c.03-.09.06-.19.1-.28.3-.72.71-1.36 1.23-1.9a5.4 5.4 0 0 1 1.86-1.26c.71-.3 1.49-.44 2.33-.44s1.61.15 2.32.44q1.065.435 1.86 1.26c.54.55.95 1.18 1.25 1.9s.44 1.53.44 2.43-.15 1.7-.44 2.43a5.7 5.7 0 0 1-1.25 1.9q-.81.825-1.86 1.26c-.71.29-1.48.44-2.32.44s-1.62-.15-2.33-.44a5.2 5.2 0 0 1-1.86-1.26c-.53-.55-.94-1.18-1.23-1.9-.05-.12-.09-.24-.13-.37h-4.51a9.137 9.137 0 0 0 2.72 4.88q1.395 1.32 3.27 2.04c1.25.48 2.62.72 4.1.72s2.82-.24 4.06-.71a9.8 9.8 0 0 0 3.26-2.02c.93-.88 1.65-1.91 2.16-3.1s.76-2.48.76-3.87-.25-2.71-.76-3.89a9.1 9.1 0 0 0-2.16-3.08Z" class="st0"/><path d="M1115.88 141.46c.15 2.12 1.89 3.83 4.02 3.94 1.73.09 3.25-.86 3.99-2.28.34-.66 1.03-1.07 1.77-1.07h9.83c.61 0 1.18.28 1.56.75a2.637 2.637 0 0 0 4.69-1.81 2.65 2.65 0 0 0-2.49-2.47c-.9-.05-1.7.35-2.22 1-.37.47-.95.74-1.55.74h-9.83c-.74 0-1.43-.41-1.77-1.06a4.25 4.25 0 0 0-3.77-2.29c-2.45 0-4.42 2.07-4.24 4.56ZM1177.83 151.49c-1.61-1.39-2.42-3.09-2.42-5.11 0-1.84.67-3.41 1.97-4.71s3-1.97 5.02-1.97c.99 0 1.84.18 2.56.54-2.56 1.03-4.21 3.27-4.21 5.43s1.7 3.81 4.93 3.81c1.88 0 3.5-.49 4.8-1.43 1.35-.94 2.02-2.11 2.02-3.5 0-.58-.18-1.26-.54-1.93-.72-1.3-1.21-1.88-2.69-3.36-.94-1.03-1.61-1.75-2.11-2.33-.94-1.03-2.24-3.59-2.24-5.74 0-2.56 1.03-4.66 3.05-6.37 2.06-1.7 4.62-2.56 7.62-2.56 4.3 0 6.95 2.02 6.95 4.89 0 1.39-.58 2.6-1.75 3.59-1.12.94-2.47 1.43-3.99 1.43-.45 0-.9-.05-1.35-.13 2.06-1.57 3.09-3.27 3.09-5.16 0-1.75-.9-2.6-2.73-2.6-1.57 0-3 .58-4.3 1.79-1.3 1.17-1.93 2.65-1.93 4.39 0 2.11 1.03 3.54 2.87 5.34l.9.9c.49.49.85.76.99.94l.85.94c.76.9.99 1.39 1.39 2.33.49.9.63 1.88.63 2.96 0 2.74-1.12 5.07-3.41 6.95-2.29 1.84-5.2 2.78-8.83 2.78-3.09 0-5.47-.72-7.13-2.11ZM1213.25 144.63a22.2 22.2 0 0 1-4.53 6.1c-1.75 1.61-3.63 2.42-5.56 2.42-2.56 0-4.17-1.48-4.17-3.99 0-.9.22-1.93.67-3.05l3.63-9.24h-2.47l.63-1.7h2.51l2.11-5.43c.22-.63.36-1.17.36-1.61 0-.67-.27-1.21-.81-1.52 3.95-.54 6.1-.9 6.41-1.12l-3.81 9.68h3.41l-.63 1.7h-3.45l-4.21 10.72c-.18.4-.27.81-.27 1.17 0 .9.45 1.34 1.39 1.34 2.74 0 5.25-2.11 7.44-6.28z" class="st0"/><path d="M1209.8 150.05c0-.76.36-2.11 1.08-3.95l2.69-6.99c.22-.63.36-1.17.36-1.61 0-.67-.27-1.21-.81-1.52.72 0 1.88-.13 3.45-.4 1.66-.27 2.65-.49 2.96-.72l-4.98 12.73c-.22.63-.36 1.12-.36 1.52 0 .67.31.99.99.99 1.52 0 3.32-1.93 5.38-5.83l3.41-8.92 4.53-.49-4.98 12.73c-.22.63-.36 1.12-.36 1.52 0 .67.31.99.99.99.94 0 1.97-.63 3.05-1.93s2.02-2.78 2.87-4.35l1.34.81c-1.21 2.29-2.65 4.3-4.35 6.01-1.66 1.66-3.41 2.51-5.16 2.51-2.15 0-3.14-1.35-3.14-3.09v-.36c-1.93 2.29-3.9 3.45-5.83 3.45-2.15 0-3.14-1.35-3.14-3.09Z" class="st0"/><path d="M1245.67 148.17c1.12-1.3 2.06-2.78 2.91-4.35l1.35.81c-1.21 2.33-2.69 4.35-4.39 6.05-1.66 1.66-3.41 2.47-5.29 2.47s-2.96-1.03-2.96-3.09c0-.36.09-.85.22-1.52-1.66 3.09-3.59 4.62-5.87 4.62-2.47 0-3.72-1.35-3.72-3.99 0-1.75.54-3.81 1.61-6.1 1.12-2.29 2.51-4.21 4.26-5.87s3.41-2.47 5.02-2.47 2.6.9 2.87 2.73l3.99-10.49c.22-.63.36-1.17.36-1.61 0-.67-.31-1.17-.9-1.48.67 0 1.84-.13 3.5-.4 1.66-.31 2.69-.54 3-.76l-9.77 24.88c-.22.63-.36 1.12-.36 1.52 0 .67.31.99.99.99 1.03 0 2.11-.63 3.18-1.93Zm-8.79-1.12c.67-1.03 1.12-1.88 1.43-2.56l1.48-2.96c.31-1.39.49-2.38.49-3 0-1.03-.31-1.57-.99-1.57-.81 0-1.75.72-2.87 2.2-1.12 1.39-2.06 3.05-2.82 4.93-.76 1.79-1.12 3.27-1.12 4.44 0 1.03.36 1.57 1.08 1.57 1.03 0 2.11-.94 3.32-3.05" class="st0"/><path d="M1246.53 150.05c0-.76.36-2.11 1.08-3.95l2.69-6.99c.22-.63.36-1.17.36-1.61 0-.67-.27-1.21-.81-1.52.72 0 1.88-.13 3.45-.4 1.66-.27 2.65-.49 2.96-.72l-4.98 12.73c-.22.63-.36 1.12-.36 1.52 0 .67.31.99.99.99.99 0 2.06-.67 3.23-2.02 1.21-1.39 2.15-2.78 2.91-4.26l1.34.85c-1.34 2.33-2.87 4.35-4.53 6.01s-3.36 2.47-5.2 2.47c-2.15 0-3.14-1.35-3.14-3.09Z" class="st0"/><path d="M1277.15 143.55c-1.48 3.41-4.35 5.69-8.12 5.69h-.54c-2.2 2.6-4.57 3.9-7.08 3.9-3.09 0-5.29-2.2-5.29-5.6 0-1.79.49-3.68 1.52-5.6 1.03-2.02 2.42-3.72 4.26-5.11s3.63-2.11 5.47-2.11c3.27 0 4.84 2.38 4.84 5.43 0 2.24-.72 4.57-2.2 6.95 2.51-.22 4.44-1.7 5.74-4.44l1.39.9Zm-11.93 4.49c-1.34-1.03-2.02-2.69-2.02-5.07 0-1.7.4-3.32 1.17-4.8-1.12 1.21-2.11 2.87-2.91 4.98-.76 2.11-1.17 3.77-1.17 5.07 0 1.39.49 2.11 1.52 2.11s2.2-.76 3.41-2.29m1.48-11.44c-1.21 1.75-1.79 3.59-1.79 5.6 0 1.79.54 3.14 1.57 3.99 1.61-2.73 2.42-5.25 2.42-7.58 0-1.39-.49-2.11-1.48-2.11-.18 0-.4.04-.72.09ZM1250.49 134.15s8.31-1.67 7.77-3.58-4.54.09-1.19-2.54c3.2-2.5 3.22-2.55 3.22-2.55s-5.91 2.01-6.94 2.5-2.38 1.74.3 2.58c2.67.84-3.15 3.59-3.15 3.59Z" class="st0"/></svg>