<?xml version="1.0" encoding="UTF-8"?>
<svg id="Layer_1" data-name="Layer 1" xmlns="http://www.w3.org/2000/svg" viewBox="0 0 613.73 363.43">
  <defs>
    <style>
      .cls-1, .cls-2 {
        fill: #fff;
      }

      .cls-2 {
        fill-rule: evenodd;
      }
    </style>
  </defs>
  <g>
    <g>
      <path class="cls-1" d="M33.81,14.31c-2.18,0-3.95,1.77-3.95,3.95v4.44c.07.03.13.06.2.09.71.34,1.37.76,1.99,1.25v-6.02c0-.84.68-1.52,1.52-1.52h0v9.71c-.45-.58-.96-1.12-1.52-1.59-.66-.56-1.39-1.04-2.18-1.42-1.38-.67-2.94-1.05-4.58-1.05s-3.19.38-4.58,1.05c-.79.38-1.52.86-2.18,1.42-.56.47-1.07,1.01-1.52,1.59v-9.71h0c.84,0,1.52.68,1.52,1.52v6.02c.61-.49,1.28-.91,1.99-1.25.06-.03.13-.06.2-.09v-4.44c0-2.18-1.77-3.95-3.95-3.95h-1.94v26.03h1.94c2.18,0,3.95-1.77,3.95-3.95v-3.64c0-2.52,1.97-4.68,4.49-4.73,2.57-.05,4.66,2.02,4.66,4.58v3.79c0,2.18,1.77,3.95,3.95,3.95h1.94V14.31h-1.94ZM33.57,38.16h0c-.84,0-1.52-.68-1.52-1.52v-7.99c-.11-.19-.23-.38-.36-.57-.5-.71-1.11-1.33-1.82-1.83v1.38c-1.2-1.11-2.81-1.79-4.58-1.79s-3.37.68-4.58,1.79v-1.38c-.7.51-1.31,1.12-1.82,1.83-.13.18-.25.37-.36.57v7.99c0,.84-.68,1.52-1.52,1.52h0v-5.55c0-1.78.56-3.43,1.52-4.78.59-.83,1.33-1.55,2.18-2.12,1.31-.87,2.89-1.38,4.58-1.38s3.27.51,4.58,1.38c.85.57,1.59,1.29,2.18,2.12.96,1.35,1.52,3,1.52,4.78v5.55Z"/>
      <g>
        <g>
          <g>
            <path class="cls-1" d="M.57,10.77c-.29.92-.49,1.89-.55,2.89-.38,6.18,3.76,11.46,9.44,12.84,1.5.37,2.94-.82,2.94-2.37,0-1.13-.79-2.08-1.89-2.36-3.37-.87-5.83-4-5.66-7.68.01-.3.05-.6.1-.89-1.84-.03-3.45-.99-4.38-2.43Z"/>
            <path class="cls-1" d="M11.61,2.07c-1,.06-1.96.26-2.89.55,1.44.94,2.4,2.55,2.43,4.38.29-.05.59-.09.89-.1,3.68-.17,6.81,2.29,7.68,5.66.28,1.1,1.23,1.89,2.36,1.89,1.55,0,2.73-1.44,2.37-2.94-1.38-5.67-6.66-9.82-12.84-9.44Z"/>
          </g>
          <path class="cls-1" d="M5.83,3.02H.98v4.86c0,2.24,1.82,4.06,4.06,4.06h4.86v-4.86c0-2.24-1.82-4.06-4.06-4.06Z"/>
        </g>
        <g>
          <g>
            <path class="cls-1" d="M50,43.89c.29-.92.49-1.89.55-2.89.38-6.18-3.76-11.46-9.44-12.84-1.5-.37-2.94.82-2.94,2.37,0,1.13.79,2.08,1.89,2.36,3.37.87,5.83,4,5.66,7.68-.01.3-.05.6-.1.89,1.84.03,3.45.99,4.38,2.43Z"/>
            <path class="cls-1" d="M38.96,52.59c1-.06,1.96-.26,2.89-.55-1.44-.94-2.4-2.55-2.43-4.38-.29.05-.59.09-.89.1-3.68.17-6.81-2.29-7.68-5.66-.28-1.1-1.23-1.89-2.36-1.89-1.55,0-2.73,1.44-2.37,2.94,1.38,5.67,6.66,9.82,12.84,9.44Z"/>
          </g>
          <path class="cls-1" d="M45.54,42.72h-4.86v4.86c0,2.24,1.82,4.06,4.06,4.06h4.86v-4.86c0-2.24-1.82-4.06-4.06-4.06Z"/>
        </g>
        <g>
          <g>
            <path class="cls-1" d="M8.72,52.04c.92.29,1.89.48,2.89.55,6.18.38,11.46-3.76,12.84-9.44.37-1.5-.82-2.94-2.37-2.94-1.13,0-2.08.79-2.36,1.89-.87,3.37-4,5.83-7.68,5.66-.3-.01-.6-.05-.89-.1-.03,1.84-.99,3.45-2.43,4.38Z"/>
            <path class="cls-1" d="M.02,41c.06,1,.26,1.96.55,2.89.94-1.44,2.55-2.4,4.38-2.43-.05-.29-.09-.59-.1-.89-.17-3.68,2.29-6.81,5.66-7.68,1.1-.28,1.89-1.23,1.89-2.36,0-1.55-1.44-2.73-2.94-2.37C3.79,29.54-.36,34.82.02,41Z"/>
          </g>
          <path class="cls-1" d="M5.04,42.72c-2.24,0-4.06,1.82-4.06,4.06v4.86h4.86c2.24,0,4.06-1.82,4.06-4.06v-4.86h-4.86Z"/>
        </g>
        <g>
          <g>
            <path class="cls-1" d="M41.85,2.61c-.92-.29-1.89-.48-2.89-.55-6.18-.38-11.46,3.76-12.84,9.44-.37,1.5.82,2.94,2.37,2.94,1.13,0,2.08-.79,2.36-1.89.87-3.37,4-5.83,7.68-5.66.3.01.6.05.89.1.03-1.84.99-3.45,2.43-4.38Z"/>
            <path class="cls-1" d="M50.55,13.65c-.06-1-.26-1.96-.55-2.89-.94,1.44-2.55,2.4-4.38,2.43.05.29.09.59.1.89.17,3.68-2.29,6.81-5.66,7.68-1.1.28-1.89,1.23-1.89,2.36,0,1.55,1.44,2.73,2.94,2.37,5.67-1.38,9.82-6.66,9.44-12.84Z"/>
          </g>
          <path class="cls-1" d="M44.74,3.02c-2.24,0-4.06,1.82-4.06,4.06v4.86h4.86c2.24,0,4.06-1.82,4.06-4.06V3.02h-4.86Z"/>
        </g>
      </g>
    </g>
    <g>
      <g>
        <g>
          <path class="cls-1" d="M67.05,22.8c.56-.56,1.22-.99,1.98-1.3.76-.31,1.6-.46,2.51-.46.97,0,1.87.2,2.69.59.83.39,1.57.97,2.22,1.73l2.93-2.68c-.93-1.14-2.08-2-3.46-2.58-1.38-.59-2.91-.88-4.61-.88-1.51,0-2.91.25-4.2.74-1.29.49-2.42,1.2-3.38,2.11-.96.91-1.7,1.98-2.23,3.21-.53,1.23-.8,2.58-.8,4.05s.27,2.82.8,4.05c.53,1.23,1.27,2.3,2.22,3.21.95.91,2.07,1.61,3.36,2.11,1.29.49,2.69.74,4.2.74,1.71,0,3.26-.3,4.63-.89,1.38-.6,2.53-1.46,3.46-2.6l-2.93-2.68c-.65.76-1.39,1.35-2.22,1.74-.83.4-1.73.6-2.69.6-.91,0-1.75-.15-2.51-.46-.76-.31-1.42-.74-1.98-1.3-.56-.56-.99-1.22-1.3-1.98-.31-.76-.46-1.61-.46-2.54s.15-1.78.46-2.54c.31-.76.74-1.42,1.3-1.98Z"/>
          <polygon class="cls-1" points="119.42 29.41 109.7 17.56 105.96 17.56 105.96 37.1 110.43 37.1 110.43 25.24 120.14 37.1 123.88 37.1 123.88 17.56 119.42 17.56 119.42 29.41"/>
          <path class="cls-1" d="M99.51,20.07c-.97-.91-2.1-1.61-3.39-2.11-1.29-.49-2.71-.74-4.26-.74s-2.96.25-4.26.75c-1.29.5-2.42,1.21-3.39,2.12-.97.91-1.72,1.98-2.25,3.2-.25.57-.43,1.17-.56,1.8h4.71c.03-.1.06-.2.1-.29.31-.75.74-1.41,1.28-1.98.55-.57,1.2-1.01,1.94-1.31.74-.31,1.55-.46,2.43-.46s1.68.15,2.41.46c.74.31,1.38.74,1.94,1.31.56.57.99,1.23,1.3,1.98.31.75.46,1.6.46,2.53s-.15,1.77-.46,2.53c-.31.75-.74,1.41-1.3,1.98-.56.57-1.21,1-1.94,1.31-.74.31-1.54.46-2.41.46s-1.68-.15-2.43-.46c-.75-.31-1.39-.74-1.94-1.31-.55-.57-.98-1.23-1.28-1.98-.05-.12-.09-.25-.13-.38h-4.69c.13.65.33,1.28.58,1.88.53,1.23,1.28,2.3,2.25,3.21.97.91,2.1,1.62,3.41,2.12,1.3.5,2.73.75,4.27.75s2.94-.25,4.23-.74c1.29-.49,2.42-1.2,3.39-2.11.97-.91,1.72-1.99,2.25-3.23.53-1.24.8-2.58.8-4.03s-.27-2.82-.8-4.05c-.53-1.23-1.28-2.3-2.25-3.21Z"/>
        </g>
        <path class="cls-1" d="M67.48,27.6c.16,2.21,1.97,3.99,4.19,4.1,1.8.09,3.38-.9,4.15-2.37.36-.69,1.07-1.11,1.84-1.11h10.23c.63,0,1.23.29,1.63.78.5.63,1.28,1.03,2.14,1.03,1.57,0,2.84-1.32,2.74-2.91-.08-1.38-1.21-2.5-2.59-2.57-.93-.05-1.77.37-2.31,1.04-.39.49-.99.77-1.62.77h-10.23c-.77,0-1.49-.42-1.84-1.11-.74-1.42-2.22-2.38-3.93-2.38-2.55,0-4.6,2.16-4.41,4.75Z"/>
      </g>
      <g>
        <path class="cls-1" d="M130.55,29.14c0-3.33-.06-6.37-.17-9.13-.09-1.64-.17-2.7-.26-2.9l-.03-.14c.6-.17,1.12-.26,1.58-.26,1.35,0,2.27.66,2.27,1.78,0,.92-.03,3.27-.06,7.06,1,.09,2.53.11,4.62.11,1.87,0,3.7-.03,5.54-.11-.03-1.69-.06-3.53-.14-5.54-.09-1.64-.2-2.7-.23-2.9l-.06-.14c.6-.17,1.12-.26,1.58-.26,1.35,0,2.27.66,2.27,1.78,0,.83-.03,2.07-.06,3.64-.03,1.61-.06,2.81-.06,3.62,0,6.34.11,10.1.37,11.33-.6.06-1.23.29-1.98.29-1.38,0-1.84-.77-1.84-2.38,0-.77.03-2.04.09-3.79.03-1.75.06-3.01.06-3.84-1.15-.09-2.78-.11-4.94-.11-1.69,0-3.44.03-5.25.11v2.87c0,.52.03,1.35.06,2.5.03,1.18.06,2.07.06,2.7,0,1.29-.63,1.95-1.87,1.95-.09,0-.75-.09-1.92-.29.26-.55.37-3.19.37-7.95Z"/>
        <path class="cls-1" d="M151.56,30.29c0-2.09.63-3.96,1.89-5.57,1.26-1.61,2.9-2.41,4.91-2.41,3.53,0,5.28,1.89,5.28,4.1-.06,2.78-2.96,3.99-5.54,3.9-1,0-2.18-.34-2.73-.6l-.43-.2-.12.06c0,3.53,1.66,5.8,4.56,5.8,1.38,0,3.1-.66,3.9-1.21l.6-.43.14.14c-.03.2-.09.43-.66,1.26-.29.43-.63.8-1,1.12-.77.66-2.32,1.26-4.13,1.26-1.92,0-3.53-.69-4.79-2.04-1.26-1.35-1.89-3.1-1.89-5.19ZM157.53,28.88c1.46,0,2.7-.86,2.7-2.5,0-1.52-.72-2.75-2.24-2.75-.6,0-1.18.32-1.69.92-.52.63-.89,1.29-1.09,1.95-.23.69-.34,1.26-.34,1.69,0,.2,1.46.69,2.67.69Z"/>
        <path class="cls-1" d="M167.6,32.61c.03-1.12.06-1.92.06-2.44,0-3.47-.29-6.11-.49-6.83-.09-.37-.17-.57-.23-.63.6-.17,1.06-.26,1.41-.26,1.38,0,2.32.69,2.32,1.84l-.2,1.06.12.03c.37-.86,1-1.58,1.84-2.12.83-.55,1.66-.8,2.5-.8.95,0,1.41.37,1.41,1.12s-.11,1.43-.34,2.04l-.14.06c-1.06-.55-1.84-.8-2.3-.8-1.92,0-2.87,1.84-2.87,5.51,0,3.36.29,5.71.46,6.26.09.29.14.43.2.46-1.18.2-1.87.29-2.01.29-1.18,0-1.81-.52-1.81-2.21,0-.6.03-1.43.09-2.55Z"/>
        <path class="cls-1" d="M179.08,32.58c.03-1.09.06-1.89.06-2.44,0-3.9-.29-6.49-.49-7.03-.09-.26-.17-.4-.2-.4.6-.17,1.06-.26,1.41-.26,1.35,0,2.44.72,2.44,1.84s-.03,2.64-.06,4.65c-.06,2.01-.09,3.33-.09,3.96,0,.89.03,1.26.2,1.95.17.72.57,1.06,1.23,1.06.34,0,.75-.17.95-.32l.14-.09.11.09s-.69,1.78-3.18,1.78c-1.46,0-2.58-.72-2.58-2.32,0-.55.03-1.38.06-2.47ZM178.68,18.09c0-1.06.89-1.95,1.92-1.95s1.95.89,1.95,1.95-.89,1.92-1.95,1.92-1.92-.89-1.92-1.92Z"/>
        <path class="cls-1" d="M187.55,29.11c.03-1.21.06-1.95.06-2.27,0-1.18-.06-1.89-.2-2.21-.14-.29-.52-.52-1.12-.69v-1.2c.57,0,1.38-.43,2.44-1.29,1.06-.86,1.69-1.55,1.89-2.07l.66.23-.57,3.13h2.35c.69,0,1.26-.11,1.41-.23l.14-.06c.03.11.03.37.03.77,0,1.15-.49,1.46-1.61,1.46l-2.32-.06c-.06,2.27-.09,4.1-.09,5.57,0,1.64.09,2.61.4,3.64.32,1.06,1,1.61,2.07,1.61.83,0,2.01-.55,2.58-1l.46-.34.14.11c-.03.2-.09.37-.55,1.15-.26.37-.52.72-.8,1-.6.57-1.81,1.15-3.1,1.15-3.19,0-4.33-2.04-4.33-5.57,0-.69.03-1.64.06-2.84Z"/>
        <path class="cls-1" d="M199.95,29.37c1.64-.77,3.33-1.12,5.05-1.15v-.26c0-2.55-.66-3.76-2.76-3.76-1.35,0-2.67.57-3.96,1.72l-.11-.11c.23-.89.86-1.72,1.92-2.44,1.03-.72,2.15-1.06,3.39-1.06,1.95,0,3.24.55,3.85,1.58.6,1.03.77,1.98.77,3.47,0,.49,0,1.32-.03,2.47-.03,1.18-.06,2.01-.06,2.55v.34c0,2.12.49,3.19,1.44,3.19.34,0,.75-.17.95-.32l.14-.09.11.09s-.69,1.78-3.18,1.78c-1.35,0-2.41-.6-2.44-2.01l-.11-.06c-.69,1.26-2.18,2.21-3.9,2.21-2.32,0-3.82-1.66-3.82-3.85,0-1.95,1.12-3.5,2.75-4.3ZM202.36,35.48c.55,0,1.09-.2,1.69-.6.57-.4.86-.86.86-1.38,0-.37.03-1,.06-1.95.03-.95.03-1.66.03-2.18-.8.14-1.06.17-2.09.55-.52.2-.92.4-1.23.63-.6.49-1.23,1.43-1.23,2.58,0,1.61.8,2.35,1.92,2.35Z"/>
        <path class="cls-1" d="M212.69,38.67c.6-.14.83-.14,1.55-.14.06,1.38.98,3.9,4.13,3.9,1.87,0,3.5-.86,3.5-2.38,0-1.43-2.87-1.55-5.17-2.12-1.58-.37-2.81-1.35-2.81-2.87,0-.95.46-1.81,1.35-2.61-2.32-.6-3.5-2.12-3.5-4.56,0-1.55.6-2.84,1.81-3.87,1.21-1.03,2.73-1.55,4.59-1.55,1.09,0,2.07.14,2.93.46,1.38-.03,1.89-1.15,2.04-3.07,1,0,2.15.17,2.15,1.2,0,1.29-1.32,2.18-2.93,2.55,1.12.83,1.66,2.07,1.66,3.67s-.6,2.87-1.81,3.87c-1.21,1.03-2.73,1.55-4.59,1.55-.6,0-1.06-.03-1.32-.06-.29.43-.43.75-.43,1,0,1.21,3.13,1.26,5.65,1.89,1.69.43,3.04,1.58,3.04,3.41,0,1.35-.63,2.5-1.92,3.39-1.29.89-2.96,1.35-4.94,1.35-1.78,0-3.21-.4-4.28-1.23-1.06-.83-1.61-1.72-1.61-2.64,0-.6.29-1,.89-1.15ZM220.78,27.88c0-2.41-.98-4.13-3.04-4.13-1.58,0-2.81,1.58-2.81,3.53,0,2.41.98,4.13,3.04,4.13,1.61,0,2.81-1.58,2.81-3.53Z"/>
        <path class="cls-1" d="M226.69,30.29c0-2.09.63-3.96,1.89-5.57,1.26-1.61,2.9-2.41,4.91-2.41,3.53,0,5.28,1.89,5.28,4.1-.06,2.78-2.96,3.99-5.54,3.9-1,0-2.18-.34-2.73-.6l-.43-.2-.11.06c0,3.53,1.66,5.8,4.56,5.8,1.38,0,3.1-.66,3.9-1.21l.6-.43.14.14c-.03.2-.09.43-.66,1.26-.29.43-.63.8-1,1.12-.77.66-2.32,1.26-4.13,1.26-1.92,0-3.53-.69-4.79-2.04-1.26-1.35-1.89-3.1-1.89-5.19ZM232.66,28.88c1.46,0,2.7-.86,2.7-2.5,0-1.52-.72-2.75-2.24-2.75-.6,0-1.18.32-1.69.92-.52.63-.89,1.29-1.09,1.95-.23.69-.34,1.26-.34,1.69,0,.2,1.46.69,2.67.69Z"/>
      </g>
    </g>
  </g>
  <g>
    <g>
      <g>
        <g>
          <g>
            <path class="cls-1" d="M379.24,14.3c-1.56-.13-3.08-.79-4.26-1.98-.12-.12-.22-.24-.33-.36-.11.55-.2,1.11-.24,1.69-.38,6.18,3.76,11.46,9.44,12.84,1.5.37,2.94-.82,2.94-2.37,0-1.13-.79-2.08-1.89-2.36-3.31-.85-5.73-3.88-5.66-7.47Z"/>
            <path class="cls-1" d="M386,2.07c-.58.04-1.14.12-1.69.24.12.11.24.21.36.33,1.19,1.19,1.84,2.71,1.98,4.26,3.59-.07,6.62,2.36,7.47,5.66.28,1.1,1.23,1.89,2.36,1.89,1.55,0,2.73-1.44,2.37-2.94-1.38-5.67-6.66-9.82-12.84-9.44Z"/>
          </g>
          <path class="cls-1" d="M383.33,3.96c1.94,1.94,1.94,5.09,0,7.03-1.94,1.94-5.09,1.94-7.03,0-1.94-1.94-1.94-5.09,0-7.03,1.94-1.94,5.09-1.94,7.03,0Z"/>
        </g>
        <g>
          <g>
            <path class="cls-1" d="M412.7,47.76c.13,1.56.79,3.08,1.98,4.26.12.12.24.22.36.33-.55.11-1.12.2-1.69.24-6.18.38-11.46-3.76-12.84-9.44-.37-1.5.82-2.94,2.37-2.94,1.13,0,2.08.79,2.36,1.89.85,3.31,3.88,5.73,7.47,5.66Z"/>
            <path class="cls-1" d="M424.93,41c-.04.58-.12,1.14-.24,1.69-.11-.12-.21-.24-.33-.36-1.19-1.19-2.71-1.84-4.26-1.98.07-3.59-2.36-6.62-5.66-7.47-1.1-.28-1.89-1.23-1.89-2.36,0-1.55,1.44-2.73,2.94-2.37,5.67,1.38,9.82,6.66,9.44,12.84Z"/>
          </g>
          <path class="cls-1" d="M423.04,43.67c-1.94-1.94-5.09-1.94-7.03,0-1.94,1.94-1.94,5.09,0,7.03,1.94,1.94,5.09,1.94,7.03,0,1.94-1.94,1.94-5.09,0-7.03Z"/>
        </g>
        <g>
          <g>
            <path class="cls-1" d="M412.7,6.89c.13-1.56.79-3.08,1.98-4.26.12-.12.24-.22.36-.33-.55-.11-1.12-.2-1.69-.24-6.18-.38-11.46,3.76-12.84,9.44-.37,1.5.82,2.94,2.37,2.94,1.13,0,2.08-.79,2.36-1.89.85-3.31,3.88-5.73,7.47-5.66Z"/>
            <path class="cls-1" d="M424.93,13.65c-.04-.58-.12-1.14-.24-1.69-.11.12-.21.24-.33.36-1.19,1.19-2.71,1.84-4.26,1.98.07,3.59-2.36,6.62-5.66,7.47-1.1.28-1.89,1.23-1.89,2.36,0,1.55,1.44,2.73,2.94,2.37,5.67-1.38,9.82-6.66,9.44-12.84Z"/>
          </g>
          <path class="cls-1" d="M423.04,10.99c-1.94,1.94-5.09,1.94-7.03,0-1.94-1.94-1.94-5.09,0-7.03s5.09-1.94,7.03,0,1.94,5.09,0,7.03Z"/>
        </g>
        <g>
          <g>
            <path class="cls-1" d="M379.24,40.36c-1.56.13-3.08.79-4.26,1.98-.12.12-.22.24-.33.36-.11-.55-.2-1.12-.24-1.69-.38-6.18,3.76-11.46,9.44-12.84,1.5-.37,2.94.82,2.94,2.37,0,1.13-.79,2.08-1.89,2.36-3.31.85-5.73,3.88-5.66,7.47Z"/>
            <path class="cls-1" d="M386,52.59c-.58-.04-1.14-.12-1.69-.24.12-.11.24-.21.36-.33,1.19-1.19,1.84-2.71,1.98-4.26,3.59.07,6.62-2.36,7.47-5.66.28-1.1,1.23-1.89,2.36-1.89,1.55,0,2.73,1.44,2.37,2.94-1.38,5.67-6.66,9.82-12.84,9.44Z"/>
          </g>
          <path class="cls-1" d="M383.33,50.7c1.94-1.94,1.94-5.09,0-7.03-1.94-1.94-5.09-1.94-7.03,0s-1.94,5.09,0,7.03c1.94,1.94,5.09,1.94,7.03,0Z"/>
        </g>
      </g>
      <g>
        <g>
          <path class="cls-1" d="M391.16,14.92c0,2.16-1.75,3.9-3.9,3.9s-3.9-1.75-3.9-3.9,1.75-3.9,3.9-3.9,3.9,1.75,3.9,3.9Z"/>
          <path class="cls-1" d="M415.99,39.74c0,2.16-1.75,3.9-3.9,3.9s-3.9-1.75-3.9-3.9,1.75-3.9,3.9-3.9,3.9,1.75,3.9,3.9Z"/>
        </g>
        <g>
          <path class="cls-1" d="M412.08,18.82c-2.16,0-3.9-1.75-3.9-3.9s1.75-3.9,3.9-3.9,3.9,1.75,3.9,3.9-1.75,3.9-3.9,3.9Z"/>
          <circle class="cls-1" cx="387.26" cy="39.74" r="3.9"/>
        </g>
      </g>
      <path class="cls-1" d="M399.67,17.09c-5.65,0-10.24,4.58-10.24,10.24s4.58,10.24,10.24,10.24,10.24-4.58,10.24-10.24-4.58-10.24-10.24-10.24ZM399.67,35.96c-4.77,0-8.63-3.86-8.63-8.63s3.86-8.63,8.63-8.63,8.63,3.86,8.63,8.63-3.86,8.63-8.63,8.63Z"/>
      <path class="cls-1" d="M407.74,27.33c0,4.46-3.61,8.07-8.07,8.07s-8.07-3.61-8.07-8.07,3.61-8.07,8.07-8.07,8.07,3.61,8.07,8.07Z"/>
    </g>
    <g>
      <g>
        <g>
          <path class="cls-1" d="M441.42,22.82c.56-.56,1.22-.99,1.98-1.3.76-.31,1.6-.46,2.51-.46.97,0,1.86.2,2.69.59.83.39,1.56.97,2.22,1.73l2.93-2.68c-.93-1.13-2.08-1.99-3.46-2.58-1.38-.59-2.91-.88-4.6-.88-1.51,0-2.9.25-4.19.74-1.29.49-2.42,1.19-3.37,2.11-.96.91-1.7,1.98-2.23,3.21-.53,1.23-.79,2.58-.79,4.04s.27,2.82.79,4.04c.53,1.23,1.27,2.3,2.22,3.21.95.91,2.07,1.61,3.36,2.1,1.29.49,2.69.74,4.19.74,1.71,0,3.25-.3,4.63-.89,1.38-.59,2.53-1.46,3.46-2.59l-2.93-2.68c-.65.76-1.39,1.34-2.22,1.74-.83.4-1.72.6-2.69.6-.91,0-1.75-.15-2.51-.46-.76-.31-1.42-.74-1.98-1.3-.56-.56-.99-1.22-1.3-1.98-.31-.76-.46-1.61-.46-2.54s.15-1.77.46-2.54c.31-.76.74-1.42,1.3-1.98Z"/>
          <polygon class="cls-1" points="493.71 29.42 484.01 17.58 480.28 17.58 480.28 37.1 484.74 37.1 484.74 25.26 494.44 37.1 498.17 37.1 498.17 17.58 493.71 17.58 493.71 29.42"/>
          <path class="cls-1" d="M473.84,20.09c-.97-.91-2.1-1.61-3.39-2.11-1.29-.49-2.71-.74-4.25-.74s-2.96.25-4.25.75c-1.29.5-2.42,1.21-3.39,2.12-.97.91-1.71,1.98-2.24,3.19-.25.57-.43,1.17-.56,1.79h4.7c.03-.1.06-.19.1-.29.31-.75.73-1.41,1.28-1.98.55-.57,1.19-1,1.94-1.31.74-.31,1.55-.46,2.42-.46s1.68.15,2.41.46c.73.31,1.38.74,1.94,1.31.56.57.99,1.23,1.3,1.98.31.75.46,1.59.46,2.52s-.15,1.77-.46,2.52c-.31.75-.74,1.41-1.3,1.98-.56.57-1.2,1-1.94,1.31-.73.31-1.54.46-2.41.46s-1.68-.15-2.42-.46c-.74-.31-1.39-.74-1.94-1.31-.55-.57-.98-1.23-1.28-1.98-.05-.12-.09-.25-.13-.38h-4.69c.13.65.33,1.28.58,1.88.53,1.23,1.28,2.3,2.24,3.21.97.91,2.1,1.62,3.4,2.12,1.3.5,2.72.75,4.26.75s2.93-.25,4.22-.74c1.29-.49,2.42-1.19,3.39-2.1.97-.91,1.71-1.98,2.24-3.22.53-1.24.79-2.58.79-4.03s-.26-2.82-.79-4.04c-.53-1.23-1.28-2.3-2.24-3.21Z"/>
        </g>
        <path class="cls-1" d="M441.85,27.62c.16,2.21,1.97,3.98,4.18,4.09,1.8.09,3.38-.9,4.15-2.37.36-.68,1.07-1.11,1.84-1.11h10.21c.63,0,1.23.29,1.63.78.5.63,1.27,1.03,2.14,1.03,1.57,0,2.83-1.32,2.74-2.91-.08-1.38-1.21-2.49-2.58-2.57-.93-.05-1.77.37-2.3,1.04-.39.49-.99.77-1.61.77h-10.21c-.77,0-1.48-.42-1.84-1.11-.74-1.42-2.22-2.38-3.92-2.38-2.55,0-4.59,2.16-4.41,4.74Z"/>
      </g>
      <g>
        <path class="cls-1" d="M507.41,19.72s0,.12-.02.27c-.01.16-.09.33-.22.51-.13.18-.34.35-.64.49-.29.14-.72.22-1.29.22-.76,0-1.35-.04-1.78-.13-.43-.08-.74-.2-.94-.35-.2-.15-.33-.32-.37-.51-.05-.19-.07-.38-.07-.58,0-1.95.49-3.62,1.47-5.02.98-1.39,2.36-2.54,4.13-3.43,1.77-.89,3.9-1.54,6.38-1.96,2.48-.42,5.22-.63,8.21-.63,1.99,0,4.07.07,6.25.2,2.18.13,4.43.36,6.74.69.67.18,1.13.45,1.38.79.26.34.38.7.38,1.08,0,.25-.04.51-.11.79-.07.27-.18.53-.32.77-.14.24-.34.43-.58.58-.24.15-.53.23-.85.23-.05,0-.11,0-.17,0-.06,0-.12-.02-.19-.03-.85-.14-1.77-.27-2.77-.38-.99-.11-2.03-.2-3.12-.27-1.09-.07-2.21-.12-3.37-.16-1.16-.03-2.33-.05-3.52-.05-.35,0-.78.02-1.27.06-.49.04-.97.09-1.42.14-.52.05-1.07.12-1.63.2,0,.14-.01.31-.04.49-.03.18-.07.44-.12.77-.05.33-.11.75-.19,1.26-.07.51-.16,1.17-.26,1.97-.1.8-.22,1.78-.35,2.92-.13,1.14-.27,2.49-.43,4.06h10.89c.31,0,.56.06.73.19.17.12.29.28.37.47.08.19.12.39.14.61.01.22.02.42.02.62,0,.63-.14,1.1-.41,1.41-.27.31-.56.47-.84.47-.09,0-.39,0-.9.03-.51.02-1.13.04-1.86.07-.73.03-1.54.06-2.41.09-.88.03-1.72.06-2.54.09-.82.03-1.56.05-2.24.07-.67.02-1.18.03-1.52.03-.24,1.58-.5,3.11-.8,4.57-.3,1.47-.68,2.84-1.13,4.11-.45,1.28-.98,2.44-1.6,3.49-.62,1.05-1.35,1.94-2.2,2.69-.85.75-1.83,1.32-2.94,1.74-1.11.41-2.39.62-3.83.62-.3,0-.66-.02-1.08-.06-.42-.04-.86-.1-1.31-.2-.46-.09-.91-.21-1.36-.36-.45-.15-.85-.34-1.21-.56-.35-.22-.64-.48-.86-.78-.22-.29-.33-.63-.33-1.01,0-.2.04-.45.13-.78.08-.32.22-.63.39-.93.18-.3.4-.56.67-.79.27-.22.59-.33.97-.33.43,0,.89.07,1.36.22.48.14.97.3,1.48.48.51.18,1.03.34,1.57.48.54.14,1.08.22,1.63.22.43,0,.85-.17,1.26-.52.41-.35.79-.82,1.15-1.43.36-.61.7-1.32,1.03-2.14.33-.82.63-1.7.92-2.65.29-.95.56-1.94.8-2.97.25-1.03.48-2.07.69-3.1h-2.41c-.22,0-.5-.03-.82-.08-.33-.05-.64-.14-.94-.26-.3-.12-.56-.29-.77-.5-.21-.21-.31-.47-.31-.79,0-.22.06-.43.18-.63.12-.2.31-.34.59-.43.73-.16,1.37-.29,1.92-.41.55-.12,1.04-.22,1.46-.3.43-.09.8-.16,1.13-.23.33-.07.63-.12.9-.16.31-1.4.56-2.62.75-3.65.18-1.03.34-1.97.47-2.82.13-.84.25-1.64.37-2.39.12-.75.26-1.54.41-2.38-1.14.33-2.13.72-2.96,1.18-.84.46-1.53.95-2.08,1.47-.55.52-.95,1.07-1.22,1.63-.26.56-.39,1.11-.39,1.65Z"/>
        <path class="cls-1" d="M536.14,28.81c.38.76.66,1.56.85,2.4.19.84.28,1.65.28,2.42s-.09,1.55-.26,2.34c-.17.79-.42,1.54-.74,2.28-.32.73-.71,1.42-1.18,2.06-.46.64-.99,1.2-1.59,1.67-.6.47-1.25.84-1.95,1.12-.71.27-1.46.41-2.26.41-1.15,0-2.14-.25-2.95-.76-.82-.5-1.49-1.16-2.01-1.97-.52-.81-.91-1.73-1.15-2.75-.24-1.02-.36-2.05-.36-3.1,0-1.44.22-2.78.65-4.03.43-1.25,1.05-2.34,1.85-3.26.8-.92,1.79-1.65,2.95-2.18,1.16-.53,2.47-.8,3.93-.8,1.24,0,2.41.19,3.49.58,1.09.39,2.1.9,3.05,1.55.95.65,1.83,1.39,2.65,2.23.82.84,1.58,1.7,2.29,2.59l-.37,2.77c-.35-.47-.83-.98-1.43-1.53-.6-.55-1.24-1.09-1.91-1.61-.67-.52-1.34-1.02-1.99-1.48-.65-.46-1.22-.85-1.69-1.17l-.16.22ZM530.07,39.75c.44,0,.88-.23,1.3-.68.42-.45.78-1.02,1.1-1.71.31-.69.57-1.45.76-2.28.19-.83.28-1.63.28-2.39,0-.6-.05-1.16-.14-1.68-.09-.52-.23-.96-.41-1.34-.18-.38-.42-.68-.71-.9-.29-.22-.63-.33-1.04-.33-.54,0-1.05.23-1.53.69-.48.46-.91,1.04-1.28,1.76-.37.71-.65,1.5-.86,2.37-.21.86-.31,1.7-.31,2.49,0,.55.05,1.07.16,1.55.1.48.27.91.49,1.27.22.36.52.65.88.86.37.22.8.32,1.32.32Z"/>
        <path class="cls-1" d="M553.27,28.81c.38.76.66,1.56.85,2.4.19.84.28,1.65.28,2.42s-.09,1.55-.26,2.34c-.17.79-.42,1.54-.74,2.28-.32.73-.71,1.42-1.18,2.06-.46.64-.99,1.2-1.59,1.67-.6.47-1.25.84-1.95,1.12-.71.27-1.46.41-2.26.41-1.15,0-2.14-.25-2.95-.76-.82-.5-1.49-1.16-2.01-1.97-.52-.81-.91-1.73-1.15-2.75-.24-1.02-.36-2.05-.36-3.1,0-1.44.22-2.78.65-4.03.43-1.25,1.05-2.34,1.85-3.26.8-.92,1.79-1.65,2.95-2.18,1.16-.53,2.47-.8,3.93-.8,1.24,0,2.41.19,3.49.58,1.09.39,2.1.9,3.05,1.55.95.65,1.83,1.39,2.65,2.23.82.84,1.58,1.7,2.29,2.59l-.37,2.77c-.35-.47-.83-.98-1.43-1.53-.6-.55-1.24-1.09-1.91-1.61-.67-.52-1.34-1.02-1.99-1.48-.65-.46-1.22-.85-1.69-1.17l-.16.22ZM547.2,39.75c.44,0,.88-.23,1.3-.68.42-.45.78-1.02,1.1-1.71.31-.69.57-1.45.76-2.28.19-.83.28-1.63.28-2.39,0-.6-.05-1.16-.14-1.68-.09-.52-.23-.96-.41-1.34-.18-.38-.42-.68-.71-.9-.29-.22-.63-.33-1.04-.33-.54,0-1.05.23-1.53.69-.48.46-.91,1.04-1.28,1.76-.37.71-.65,1.5-.86,2.37-.21.86-.31,1.7-.31,2.49,0,.55.05,1.07.16,1.55.1.48.27.91.49,1.27.22.36.52.65.88.86.37.22.8.32,1.32.32Z"/>
      </g>
      <g>
        <path class="cls-2" d="M577.64,36.92c-.31.22-.64.44-.97.66-.33.22-.66.41-.99.58-.33.17-.64.3-.93.4-.29.1-.57.19-.81.15-2.62-.44-4.26-10.53.59-19.73.4-.75.77-1.52,1.21-2.26.62-1.07,1.31-2.1,2.07-3.11.07-.1.14-.19.21-.28.26-.34.53-.67.8-.99.46-.53.93-1.04,1.43-1.53.32-.32.66-.63,1-.93.36-.32.73-.62,1.11-.92.05-.04.11-.08.16-.13.12-.09.22-.26.26-.41.41-1.86.49-3.74.3-5.64,0-.04,0-.08.02-.19.78,1.87.81,3.72.16,5.58.03.02.06.04.09.06.01,0,.02-.01.03-.02.36-.23.72-.47,1.08-.7.18-.12.36-.24.53-.36.08-.06.13-.19.17-.3.52-1.81.68-3.65.53-5.53-.02-.29-.05-.59-.09-.89,0-.06-.02-.12-.02-.19-.75.12-1.48.28-2.19.48-.06.02-.12.03-.18.05-2.29.67-4.4,1.75-6.42,3.15.98,1.72,1.47,3.49,1.43,5.33-.02.83-.15,1.68-.4,2.54-.02-.34-.04-.68-.08-1.02-.1-.97-.27-1.92-.54-2.84-.05-.16-.09-.31-.14-.47-.31-.95-.74-1.88-1.3-2.78-2.16,1.78-3.89,3.83-5.23,6.21,2.29,1.34,3.51,3.25,3.7,5.71.03.34.03.69.02,1.05-.06-.2-.12-.39-.19-.59-.33-.97-.76-1.89-1.36-2.74-.72-1.02-1.58-1.86-2.8-2.3-.27.57-1.68,3.47-1.88,6.16-.28,3.72.68,7.43.68,7.43,0,0-3.88.08-7.02,2.19-.77.52-1.41,1.19-2,1.9-.59.71-1.09,1.47-1.5,2.28-.41.81-.73,1.64-.94,2.49-.22.86-.32,1.7-.32,2.54s.1,1.62.3,2.4c.2.77.51,1.46.92,2.07.41.61.93,1.1,1.55,1.46.62.37,1.36.55,2.21.55.6,0,1.2-.09,1.8-.28.6-.19,1.18-.44,1.77-.76.58-.31,1.14-.68,1.69-1.11.54-.43,1.06-.87,1.54-1.34.31.76.68,1.37,1.11,1.83.42.46.85.81,1.28,1.05.42.24.82.4,1.18.48.36.08.63.12.81.12.33,0,.68-.06,1.07-.17.39-.11.78-.26,1.19-.43.41-.18.82-.38,1.24-.61.42-.23.82-.46,1.2-.7.9-.56,1.82-1.2,2.75-1.92l-.59-4.54c-.78.67-1.54,1.26-2.26,1.79ZM579.87,4.29c.15.23.27.47.38.71.21.5.34,1.03.41,1.56.17,1.36-.13,2.65-.56,3.22.05-.57.08-1.15.08-1.72,0-.69-.04-1.38-.13-2.08-.06-.48-.15-.96-.27-1.44-.05-.2-.1-.4-.16-.6.09.11.18.23.25.36ZM573.32,9.07c1.09.38,2.01,1.64,2.43,2.98.24.77.32,1.56.17,2.23-.15-.42-.29-.89-.44-1.35-.15-.44-.31-.89-.52-1.31-.43-.88-1.06-1.66-1.63-2.55ZM571.65,22.63c-.44-.6-.92-1.24-1.36-1.85.57.06,1.34.87,1.44,1.68.01.09.01.18,0,.28-.03-.04-.06-.08-.08-.11ZM572.89,19.97c-.59-1.5-1.41-2.83-2.8-3.89,1.59.36,2.93,2.1,2.8,3.89ZM562.69,39.18c-.29-.13-.51-.3-.67-.51-.16-.21-.26-.44-.32-.71-.06-.26-.09-.52-.09-.79,0-.65.12-1.39.35-2.2.24-.81.58-1.62,1.03-2.41.45-.8,1.01-1.54,1.69-2.23.67-.69,1.44-1.24,2.31-1.66l2.04-.97s-.34,5.5-2.01,8.76c-1.81,3.52-4.04,2.85-4.33,2.72Z"/>
        <path class="cls-2" d="M587.6,7.13c-5.34,2.45-9.07,6.53-11.67,11.72-1.14,2.28-2.33,5.48-2.7,7.28,3.63-.04,6.39-1.72,8.67-4.35-.02-.05-.03-.11-.05-.16-2.07.16-4.15.32-6.24.48,2.2-1.04,4.5-1.62,6.92-1.73.27-.01.41-.11.54-.35.64-1.14,1.3-2.27,2.01-3.5-2.05-.04-4.07-.08-6.09-.12,0-.03-.02-.06-.03-.1.76-.23,1.51-.49,2.28-.69,1.38-.36,2.79-.44,4.21-.42.18,0,.44-.06.54-.19.73-.95,1.44-1.92,2.17-2.91-1.27-.22-2.55-.44-3.83-.66,0-.04,0-.07,0-.11.74-.1,1.47-.23,2.21-.3.67-.06,1.35-.1,2.02-.05.56.04.92-.16,1.26-.66-1.07-.24-2.11-.47-3.15-.71,1.02-.22,2.04-.21,3.01.12.66.22,1.01-.11,1.41-.5-.41-.34-.8-.66-1.19-.98.02-.04.04-.07.05-.11.49.18.99.35,1.46.56.19.08.32.11.5-.01.44-.31.9-.6,1.43-.94-.36-.26-.73-.51-1.16-.82.74-.05,1.42-.07,2.1.14.17.05.38.04.56,0,.65-.17,1.29-.4,1.94-.55.64-.15,1.29-.24,1.96-.35-.97-.45-1.99-.62-3.03-.69-2.85-.18-5.53.5-8.1,1.68Z"/>
        <path class="cls-2" d="M602.31,6.73c-.17-.33-.35-.64-.55-.94-.16-.24-.33-.46-.5-.68-.26-.33-.55-.63-.85-.92-.23-.22-.47-.43-.72-.64-.26-.21-.52-.41-.79-.6-.15-.1-.29-.2-.44-.3-.19-.12-.33-.14-.53,0-.15.11-.31.22-.47.33-.31.2-.63.41-.98.63.05-.08.11-.16.16-.25.28-.43.55-.85.86-1.32-.23-.1-.46-.2-.69-.3-.1-.04-.19-.09-.29-.13-.27-.12-.55-.24-.82-.36-.2-.08-.4-.16-.59-.24-.02,0-.04-.02-.06-.02-.27-.11-.57-.26-.85-.31-.13-.03-.26-.03-.37,0-.36.08-.63.57-.93.88-.08.08-.15.16-.23.24-.33.35-.66.69-1,1.03-.16.16-.33.32-.5.47.19-.39.38-.78.57-1.17.28-.58.57-1.17.87-1.78-.27-.05-.54-.09-.8-.13-.5-.07-1-.13-1.49-.16-.22-.02-.44-.03-.65-.04-.38-.02-.76-.02-1.13-.02-.12,0-.24,0-.36,0-.36,0-.72.02-1.09.05-.11,0-.22.01-.32.02.09.99.11,1.97.03,2.94-.01.18-.03.35-.05.53v.02c-.12,1-.36,1.99-.75,2.97.15-.06.3-.13.45-.19.33-.14.65-.28.97-.42.24-.1.48-.2.72-.29.1-.04.2-.08.3-.11.31-.12.63-.23.95-.34.33-.11.66-.21.99-.3.33-.09.65-.17.98-.25.32-.07.64-.13.96-.19.3-.05.6-.09.9-.12.31-.03.63-.06.94-.07.17,0,.33-.01.5,0,.76,0,1.53.06,2.31.2.07.01.14.02.21.04.18.03.35.07.52.11.45.11.89.24,1.32.4.43.16.85.35,1.25.56.32.17.63.35.94.56.32.21.63.44.94.69.04.03.08.07.12.1.04.03.08.06.2.13-.05-.11-.1-.21-.16-.32ZM588.92,2.18c.11-.44.22-.89.33-1.33h0c-.11.44-.22.89-.34,1.33Z"/>
        <polygon class="cls-2" points="589.19 20.84 589.2 20.83 589.19 20.84 589.19 20.84"/>
        <polygon class="cls-2" points="589.2 20.83 589.2 20.83 589.2 20.83 589.2 20.83"/>
      </g>
    </g>
  </g>
  <g>
    <g>
      <g>
        <g>
          <g>
            <path class="cls-1" d="M379.24,163.51c-1.56-.13-3.08-.79-4.26-1.98-.12-.12-.22-.24-.33-.36-.11.55-.2,1.12-.24,1.69-.38,6.18,3.76,11.46,9.44,12.84,1.5.37,2.94-.82,2.94-2.37,0-1.13-.79-2.08-1.89-2.36-3.31-.85-5.73-3.88-5.66-7.47Z"/>
            <path class="cls-1" d="M386,151.28c-.58.04-1.14.12-1.69.24.12.11.24.21.36.33,1.19,1.19,1.84,2.71,1.98,4.26,3.59-.07,6.62,2.36,7.47,5.66.28,1.1,1.23,1.89,2.36,1.89,1.55,0,2.73-1.44,2.37-2.94-1.38-5.67-6.66-9.82-12.84-9.44Z"/>
          </g>
          <path class="cls-1" d="M383.33,153.17c1.94,1.94,1.94,5.09,0,7.03s-5.09,1.94-7.03,0c-1.94-1.94-1.94-5.09,0-7.03s5.09-1.94,7.03,0Z"/>
        </g>
        <g>
          <g>
            <path class="cls-1" d="M412.7,196.98c.13,1.56.79,3.08,1.98,4.26.12.12.24.22.36.33-.55.11-1.12.2-1.69.24-6.18.38-11.46-3.76-12.84-9.44-.37-1.5.82-2.94,2.37-2.94,1.13,0,2.08.79,2.36,1.89.85,3.31,3.88,5.73,7.47,5.66Z"/>
            <path class="cls-1" d="M424.93,190.22c-.04.58-.12,1.14-.24,1.69-.11-.12-.21-.24-.33-.36-1.19-1.19-2.71-1.84-4.26-1.98.07-3.59-2.36-6.62-5.66-7.47-1.1-.28-1.89-1.23-1.89-2.36,0-1.55,1.44-2.73,2.94-2.37,5.67,1.38,9.82,6.66,9.44,12.84Z"/>
          </g>
          <path class="cls-1" d="M423.04,192.88c-1.94-1.94-5.09-1.94-7.03,0-1.94,1.94-1.94,5.09,0,7.03,1.94,1.94,5.09,1.94,7.03,0,1.94-1.94,1.94-5.09,0-7.03Z"/>
        </g>
        <g>
          <g>
            <path class="cls-1" d="M412.7,156.1c.13-1.56.79-3.08,1.98-4.26.12-.12.24-.22.36-.33-.55-.11-1.12-.2-1.69-.24-6.18-.38-11.46,3.76-12.84,9.44-.37,1.5.82,2.94,2.37,2.94,1.13,0,2.08-.79,2.36-1.89.85-3.31,3.88-5.73,7.47-5.66Z"/>
            <path class="cls-1" d="M424.93,162.86c-.04-.58-.12-1.14-.24-1.69-.11.12-.21.24-.33.36-1.19,1.19-2.71,1.84-4.26,1.98.07,3.59-2.36,6.62-5.66,7.47-1.1.28-1.89,1.23-1.89,2.36,0,1.55,1.44,2.73,2.94,2.37,5.67-1.38,9.82-6.66,9.44-12.84Z"/>
          </g>
          <path class="cls-1" d="M423.04,160.2c-1.94,1.94-5.09,1.94-7.03,0-1.94-1.94-1.94-5.09,0-7.03,1.94-1.94,5.09-1.94,7.03,0,1.94,1.94,1.94,5.09,0,7.03Z"/>
        </g>
        <g>
          <g>
            <path class="cls-1" d="M379.24,189.57c-1.56.13-3.08.79-4.26,1.98-.12.12-.22.24-.33.36-.11-.55-.2-1.12-.24-1.69-.38-6.18,3.76-11.46,9.44-12.84,1.5-.37,2.94.82,2.94,2.37,0,1.13-.79,2.08-1.89,2.36-3.31.85-5.73,3.88-5.66,7.47Z"/>
            <path class="cls-1" d="M386,201.8c-.58-.04-1.14-.12-1.69-.24.12-.11.24-.21.36-.33,1.19-1.19,1.84-2.71,1.98-4.26,3.59.07,6.62-2.36,7.47-5.66.28-1.1,1.23-1.89,2.36-1.89,1.55,0,2.73,1.44,2.37,2.94-1.38,5.67-6.66,9.82-12.84,9.44Z"/>
          </g>
          <path class="cls-1" d="M383.33,199.91c1.94-1.94,1.94-5.09,0-7.03s-5.09-1.94-7.03,0c-1.94,1.94-1.94,5.09,0,7.03s5.09,1.94,7.03,0Z"/>
        </g>
      </g>
      <g>
        <g>
          <path class="cls-1" d="M408.25,173.02c-.55,0-1.06-.12-1.53-.34-.88,4.4-3.67,7.92-5.77,10.04.76.42,1.35,1.1,1.67,1.92,2.41-2.38,5.69-6.47,6.64-11.76-.32.09-.66.14-1,.14Z"/>
          <path class="cls-1" d="M397.41,182.72c-2.1-2.11-4.89-5.63-5.77-10.04-.47.21-.98.34-1.53.34-.35,0-.68-.05-1-.14.94,5.29,4.22,9.38,6.64,11.76.31-.82.91-1.5,1.67-1.92Z"/>
          <path class="cls-1" d="M393.71,168.54c1.4-.65,3.28-1.24,5.47-1.24s4.07.59,5.47,1.24c.19-.87.69-1.62,1.37-2.14-1.7-.84-4.04-1.62-6.84-1.62s-5.14.78-6.84,1.62c.68.52,1.18,1.27,1.37,2.14Z"/>
        </g>
        <path class="cls-1" d="M410.61,167.72c-.8-1.18-2.38-1.59-3.65-.94-1.03.53-1.6,1.59-1.55,2.66.02.5-.24.96-.67,1.21l-3.54,2.04c-.51-.48-1.19-.77-1.95-.77s-1.49.31-2,.82l-3.63-2.09c-.43-.25-.69-.72-.67-1.21.05-1.07-.52-2.13-1.55-2.66-1.27-.65-2.85-.25-3.65.94-.94,1.38-.49,3.25.93,4.07.95.55,2.09.49,2.96-.06.42-.27.95-.27,1.38-.02l3.57,2.06c-.12.32-.19.66-.19,1.02,0,1.33.92,2.45,2.15,2.76.01.07.02.14.02.21v4.48c0,.5-.27.96-.71,1.19-.91.47-1.53,1.43-1.53,2.53,0,1.64,1.39,2.96,3.06,2.84,1.42-.1,2.57-1.27,2.64-2.69.06-1.16-.58-2.18-1.53-2.67-.44-.23-.71-.69-.71-1.19v-4.49c0-.06.01-.12.02-.17,1.31-.26,2.3-1.41,2.3-2.79,0-.38-.08-.75-.21-1.08l3.45-1.99c.43-.25.96-.24,1.38.02.87.55,2.01.61,2.96.06,1.42-.82,1.87-2.68.93-4.07Z"/>
      </g>
    </g>
    <g>
      <g>
        <polygon class="cls-1" points="500.84 170.45 507.1 170.45 507.1 186.34 511.63 186.34 511.63 170.45 517.9 170.45 517.9 166.75 500.84 166.75 500.84 170.45"/>
        <path class="cls-1" d="M533.34,180.03c1.27-.55,2.25-1.35,2.94-2.41.69-1.05,1.03-2.32,1.03-3.79s-.35-2.71-1.03-3.78c-.69-1.06-1.67-1.88-2.94-2.45-1.27-.57-2.78-.85-4.53-.85h-8.48v19.58h4.56v-5.48h3.92c.07,0,.13,0,.2,0l3.8,5.49h4.87l-4.36-6.3s.02,0,.03-.01ZM531.69,171.33c.71.59,1.06,1.42,1.06,2.5s-.35,1.92-1.06,2.52c-.71.6-1.75.9-3.13.9h-3.67v-6.8h3.67c1.38,0,2.42.29,3.13.88Z"/>
        <path class="cls-1" d="M553.99,177.58c0,1.85-.38,3.18-1.15,4.01-.76.83-1.84,1.24-3.22,1.24s-2.42-.41-3.19-1.24c-.76-.83-1.15-2.17-1.15-4.01v-8.49l-4.56-2.33v10.94c0,2.89.78,5.11,2.35,6.66,1.57,1.55,3.74,2.32,6.52,2.32s4.92-.77,6.49-2.32c1.57-1.55,2.35-3.77,2.35-6.66v-10.94l-4.45,2.33v8.49Z"/>
        <path class="cls-1" d="M575.42,176.45c-.67-.4-1.41-.73-2.21-.99-.8-.26-1.61-.48-2.43-.66-.82-.18-1.57-.35-2.24-.53-.67-.18-1.21-.42-1.62-.74-.41-.32-.62-.74-.62-1.26,0-.41.13-.78.38-1.12.25-.34.65-.6,1.19-.8.54-.2,1.26-.29,2.15-.29s1.75.13,2.69.38c.93.25,1.84.63,2.71,1.13l1.43-3.41c-.9-.56-1.94-.99-3.15-1.29-1.2-.3-2.42-.45-3.65-.45-1.85,0-3.38.28-4.6.83-1.22.55-2.13,1.29-2.73,2.21-.6.92-.9,1.94-.9,3.06,0,1.03.2,1.88.6,2.56.4.68.94,1.23,1.62,1.65.68.42,1.43.76,2.24,1.01.81.25,1.62.47,2.42.64.8.18,1.54.36,2.22.56.68.2,1.23.45,1.64.76.41.31.62.72.62,1.24,0,.41-.13.77-.39,1.08-.26.31-.67.55-1.22.74-.55.19-1.27.28-2.17.28-1.18,0-2.34-.19-3.5-.57-1.16-.38-2.14-.87-2.97-1.47l-1.54,3.41c.88.67,2.04,1.22,3.48,1.64,1.45.42,2.95.63,4.52.63,1.85,0,3.39-.28,4.62-.84,1.23-.56,2.15-1.3,2.76-2.21.61-.91.91-1.92.91-3.02,0-1.01-.21-1.85-.63-2.53-.42-.68-.97-1.22-1.64-1.62Z"/>
        <polygon class="cls-1" points="578.58 166.75 578.58 170.45 584.85 170.45 584.85 186.34 589.38 186.34 589.38 170.45 595.65 170.45 595.65 166.75 578.58 166.75"/>
      </g>
      <path class="cls-1" d="M558.63,161.21c-.63-.94-1.89-1.26-2.89-.74-.82.42-1.26,1.26-1.23,2.11.02.39-.19.76-.53.96l-2.81,1.62c-.4-.38-.94-.61-1.54-.61s-1.18.25-1.58.65l-2.87-1.66c-.34-.2-.55-.57-.53-.96.04-.85-.41-1.69-1.23-2.11-1.01-.51-2.26-.19-2.89.74-.74,1.1-.39,2.57.74,3.22.75.44,1.65.39,2.34-.05.33-.21.75-.22,1.1-.02l2.83,1.63c-.1.25-.15.52-.15.8,0,1.05.73,1.93,1.71,2.18,0,.06.02.11.02.17v3.55c0,.39-.22.76-.56.94-.72.38-1.22,1.13-1.22,2,0,1.3,1.1,2.34,2.42,2.25,1.13-.08,2.03-1,2.09-2.13.05-.92-.46-1.72-1.21-2.12-.35-.18-.57-.55-.57-.94v-3.55s0-.09.02-.14c1.04-.2,1.82-1.12,1.82-2.21,0-.3-.06-.59-.17-.86l2.74-1.58c.34-.2.76-.19,1.1.02.69.44,1.59.49,2.34.05,1.13-.65,1.48-2.12.74-3.22Z"/>
      <path class="cls-1" d="M441.44,172.01c.56-.56,1.22-.99,1.98-1.3.76-.31,1.6-.46,2.51-.46.97,0,1.87.2,2.7.59.83.39,1.57.97,2.22,1.73l2.93-2.68c-.93-1.14-2.09-2-3.47-2.58-1.38-.59-2.92-.88-4.61-.88-1.51,0-2.91.25-4.21.74-1.3.49-2.42,1.2-3.38,2.11-.96.91-1.7,1.98-2.24,3.21-.53,1.23-.8,2.58-.8,4.05s.27,2.82.8,4.05c.53,1.23,1.27,2.3,2.22,3.21.95.91,2.07,1.62,3.37,2.11,1.29.49,2.7.74,4.21.74,1.71,0,3.26-.3,4.64-.89,1.38-.6,2.53-1.46,3.47-2.6l-2.93-2.68c-.65.76-1.39,1.35-2.22,1.75-.83.4-1.73.6-2.7.6-.91,0-1.75-.15-2.51-.46-.76-.31-1.43-.74-1.98-1.3-.56-.56-.99-1.22-1.3-1.98-.31-.76-.46-1.61-.46-2.54s.15-1.78.46-2.54c.31-.76.74-1.43,1.3-1.98Z"/>
      <polygon class="cls-1" points="493.63 178.63 483.91 166.76 480.16 166.76 480.16 186.32 484.63 186.32 484.63 174.45 494.36 186.32 498.1 186.32 498.1 166.76 493.63 166.76 493.63 178.63"/>
      <path class="cls-1" d="M473.93,169.27c-.97-.91-2.1-1.62-3.4-2.11-1.29-.49-2.71-.74-4.26-.74s-2.97.25-4.26.75c-1.29.5-2.43,1.21-3.39,2.12-.97.91-1.72,1.98-2.25,3.2-.25.57-.43,1.17-.56,1.8h4.71c.03-.1.06-.2.1-.29.31-.75.74-1.42,1.29-1.98.55-.57,1.2-1.01,1.94-1.31.74-.31,1.55-.46,2.43-.46s1.68.15,2.42.46c.74.31,1.38.74,1.94,1.31.56.57.99,1.23,1.3,1.98.31.75.46,1.6.46,2.53s-.15,1.77-.46,2.53c-.31.75-.74,1.42-1.3,1.98-.56.57-1.21,1.01-1.94,1.31-.74.31-1.54.46-2.42.46s-1.69-.15-2.43-.46c-.75-.31-1.39-.74-1.94-1.31-.55-.57-.98-1.23-1.29-1.98-.05-.12-.09-.25-.13-.38h-4.7c.13.65.33,1.28.58,1.88.53,1.23,1.28,2.3,2.25,3.21.97.91,2.1,1.62,3.41,2.12,1.3.5,2.73.75,4.28.75s2.94-.25,4.23-.74c1.29-.49,2.43-1.2,3.4-2.11.97-.91,1.72-1.99,2.25-3.23.53-1.24.8-2.58.8-4.04s-.27-2.82-.8-4.05c-.53-1.23-1.28-2.3-2.25-3.21Z"/>
      <path class="cls-1" d="M441.87,176.81c.16,2.21,1.97,3.99,4.19,4.1,1.8.09,3.39-.9,4.16-2.38.36-.69,1.07-1.11,1.85-1.11h10.24c.63,0,1.23.29,1.63.78.5.63,1.28,1.03,2.14,1.03,1.57,0,2.84-1.32,2.74-2.92-.08-1.38-1.21-2.5-2.59-2.57-.94-.05-1.78.37-2.31,1.04-.39.49-.99.77-1.62.77h-10.24c-.77,0-1.49-.42-1.84-1.11-.74-1.42-2.22-2.39-3.93-2.39-2.55,0-4.6,2.16-4.42,4.75Z"/>
    </g>
  </g>
  <g>
    <g>
      <g>
        <g>
          <g>
            <path class="cls-1" d="M4.85,324.89c-1.56-.13-3.08-.79-4.26-1.98-.12-.12-.22-.24-.33-.36-.11.55-.2,1.12-.24,1.69-.38,6.18,3.76,11.46,9.44,12.84,1.5.37,2.94-.82,2.94-2.37,0-1.13-.79-2.08-1.89-2.36-3.31-.85-5.73-3.88-5.66-7.47Z"/>
            <path class="cls-1" d="M11.61,312.66c-.58.04-1.14.12-1.69.24.12.11.24.21.36.33,1.19,1.19,1.84,2.71,1.98,4.26,3.59-.07,6.62,2.36,7.47,5.66.28,1.1,1.23,1.89,2.36,1.89,1.55,0,2.73-1.44,2.37-2.94-1.38-5.67-6.66-9.82-12.84-9.44Z"/>
          </g>
          <path class="cls-1" d="M8.95,314.56c1.94,1.94,1.94,5.09,0,7.03-1.94,1.94-5.09,1.94-7.03,0-1.94-1.94-1.94-5.09,0-7.03,1.94-1.94,5.09-1.94,7.03,0Z"/>
        </g>
        <g>
          <g>
            <path class="cls-1" d="M38.32,358.36c.13,1.56.79,3.08,1.98,4.26.12.12.24.22.36.33-.55.11-1.12.2-1.69.24-6.18.38-11.46-3.76-12.84-9.44-.37-1.5.82-2.94,2.37-2.94,1.13,0,2.08.79,2.36,1.89.85,3.31,3.88,5.73,7.47,5.66Z"/>
            <path class="cls-1" d="M50.55,351.6c-.04.58-.12,1.14-.24,1.69-.11-.12-.21-.24-.33-.36-1.19-1.19-2.71-1.84-4.26-1.98.07-3.59-2.36-6.62-5.66-7.47-1.1-.28-1.89-1.23-1.89-2.36,0-1.55,1.44-2.73,2.94-2.37,5.67,1.38,9.82,6.66,9.44,12.84Z"/>
          </g>
          <path class="cls-1" d="M48.65,354.26c-1.94-1.94-5.09-1.94-7.03,0-1.94,1.94-1.94,5.09,0,7.03,1.94,1.94,5.09,1.94,7.03,0,1.94-1.94,1.94-5.09,0-7.03Z"/>
        </g>
        <g>
          <g>
            <path class="cls-1" d="M38.32,317.49c.13-1.56.79-3.08,1.98-4.26.12-.12.24-.22.36-.33-.55-.11-1.12-.2-1.69-.24-6.18-.38-11.46,3.76-12.84,9.44-.37,1.5.82,2.94,2.37,2.94,1.13,0,2.08-.79,2.36-1.89.85-3.31,3.88-5.73,7.47-5.66Z"/>
            <path class="cls-1" d="M50.55,324.25c-.04-.58-.12-1.14-.24-1.69-.11.12-.21.24-.33.36-1.19,1.19-2.71,1.84-4.26,1.98.07,3.59-2.36,6.62-5.66,7.47-1.1.28-1.89,1.23-1.89,2.36,0,1.55,1.44,2.73,2.94,2.37,5.67-1.38,9.82-6.66,9.44-12.84Z"/>
          </g>
          <path class="cls-1" d="M48.65,321.58c-1.94,1.94-5.09,1.94-7.03,0-1.94-1.94-1.94-5.09,0-7.03,1.94-1.94,5.09-1.94,7.03,0,1.94,1.94,1.94,5.09,0,7.03Z"/>
        </g>
        <g>
          <g>
            <path class="cls-1" d="M4.85,350.96c-1.56.13-3.08.79-4.26,1.98-.12.12-.22.24-.33.36-.11-.55-.2-1.12-.24-1.69-.38-6.18,3.76-11.46,9.44-12.84,1.5-.37,2.94.82,2.94,2.37,0,1.13-.79,2.08-1.89,2.36-3.31.85-5.73,3.88-5.66,7.47Z"/>
            <path class="cls-1" d="M11.61,363.19c-.58-.04-1.14-.12-1.69-.24.12-.11.24-.21.36-.33,1.19-1.19,1.84-2.71,1.98-4.26,3.59.07,6.62-2.36,7.47-5.66.28-1.1,1.23-1.89,2.36-1.89,1.55,0,2.73,1.44,2.37,2.94-1.38,5.67-6.66,9.82-12.84,9.44Z"/>
          </g>
          <path class="cls-1" d="M8.95,361.29c1.94-1.94,1.94-5.09,0-7.03-1.94-1.94-5.09-1.94-7.03,0s-1.94,5.09,0,7.03c1.94,1.94,5.09,1.94,7.03,0Z"/>
        </g>
      </g>
      <path class="cls-1" d="M34.13,325.83h-17.88c-1.81,0-3.27,1.46-3.27,3.27v17.88c0,1.81,1.46,3.27,3.27,3.27h17.88c1.81,0,3.27-1.46,3.27-3.27v-17.88c0-1.81-1.46-3.27-3.27-3.27ZM25.2,347.83c-5.41,0-9.8-4.39-9.8-9.8s4.39-9.8,9.8-9.8,9.8,4.39,9.8,9.8-4.39,9.8-9.8,9.8ZM34.26,330.86c-1.04,0-1.89-.85-1.89-1.89s.85-1.89,1.89-1.89,1.89.85,1.89,1.89-.85,1.89-1.89,1.89Z"/>
      <g>
        <path class="cls-1" d="M22.39,341.67c1.23.2,1.56,1.73,1.56,1.73,0-3.34-3.16-3.02-4.35-4.9,0,0,.37.34,1.44.78,1.22.5,2.26,1.33,2.95,2.29-.47-5.53-4.79-3.29-5.92-5.34-.99,5.28,3.6,5.32,4.32,5.44Z"/>
        <path class="cls-1" d="M25.67,346.44c-1.12-2.03-1.4-4.29-.95-6.39-.88,2.42-.75,5.2.6,7.64.03.05.05.09.08.14.39,0,.77-.04,1.15-.09-.32-.4-.61-.83-.87-1.3Z"/>
        <path class="cls-1" d="M24.3,340.28c.83-2.48,2.11-3.14,3.71-4.14,1.38-.86,1.69-1.54,1.71-1.58-1.22,2.96-5.77,3.27-4.97,8.01,0,0,.09-2.25,1.79-2.83.99-.34,7.49-1.52,4.79-8.76-1.1,3.17-7.89.45-7.04,9.3Z"/>
      </g>
    </g>
    <g>
      <g>
        <path class="cls-1" d="M150.04,341.35c.13.54.29.9.49,1.1s.42.29.68.29c.28,0,.5-.1.67-.29.17-.19.32-.57.47-1.13l3.28-13.19h4.62l-4.48,16.75c-.3,1.11-.87,1.92-1.71,2.41-.84.49-1.79.74-2.85.74-.5,0-1-.06-1.49-.18-.49-.12-.95-.31-1.36-.57-.42-.26-.78-.58-1.09-.97-.31-.39-.52-.85-.65-1.39l-2-8.35-2.11,8.32c-.28,1.11-.84,1.92-1.7,2.41-.85.49-1.81.74-2.87.74-.5,0-1-.06-1.49-.18-.49-.12-.95-.31-1.36-.57-.42-.26-.78-.58-1.09-.97-.31-.39-.52-.85-.65-1.39l-4.23-16.78h4.59l3.06,13.22c.13.54.29.9.49,1.1.19.19.42.29.68.29.28,0,.5-.1.67-.29.17-.19.32-.57.47-1.13l2.75-11.38c.17-.67.51-1.21,1.03-1.61.52-.41,1.13-.61,1.84-.61s1.28.2,1.79.61c.51.41.84.95.99,1.61l2.56,11.41Z"/>
        <path class="cls-1" d="M169.44,334.42c-.33-.95-.71-1.42-1.14-1.42-.2,0-.41.12-.61.35-.2.23-.39.58-.56,1.04l-4.87,13.22h-4.73l6.18-16.78c.17-.46.41-.89.72-1.27.32-.38.68-.71,1.09-.99.41-.28.85-.49,1.32-.64.47-.15.96-.22,1.46-.22,1.06,0,1.99.29,2.81.86.82.57,1.4,1.34,1.75,2.28l6.15,16.75h-4.73l-4.84-13.19Z"/>
        <path class="cls-1" d="M179.01,343.72h7.21c.85,0,1.55-.05,2.1-.14.55-.09.98-.22,1.31-.39.32-.17.55-.37.67-.61.12-.24.18-.51.18-.81,0-.59-.24-1.07-.71-1.43-.47-.36-1.31-.54-2.52-.54h-1.72c-2.21,0-3.84-.51-4.91-1.54-1.07-1.03-1.6-2.45-1.6-4.27,0-.93.15-1.75.46-2.48.31-.72.79-1.34,1.46-1.84.67-.5,1.53-.88,2.6-1.14,1.07-.26,2.36-.39,3.88-.39h6.32v3.9h-5.9c-.87,0-1.59.04-2.16.13-.57.08-1.01.21-1.34.38-.32.17-.55.37-.68.61-.13.24-.19.52-.19.83,0,.59.24,1.06.71,1.4.47.34,1.31.51,2.52.51h1.73c2.23,0,3.87.52,4.92,1.57,1.06,1.05,1.59,2.48,1.59,4.3,0,.93-.15,1.75-.45,2.48-.3.72-.77,1.34-1.43,1.84-.66.5-1.51.88-2.56,1.14-1.05.26-2.32.39-3.83.39h-6.14l-1.51-3.9Z"/>
        <path class="cls-1" d="M197.15,328.14h4.45v7.79h8.96v-7.79h4.45v19.48h-4.45v-7.79h-8.96v7.79h-4.45v-19.48Z"/>
      </g>
      <path class="cls-1" d="M67.05,333.4c.56-.56,1.22-.99,1.98-1.3.76-.31,1.6-.46,2.51-.46.97,0,1.87.2,2.7.59.83.39,1.57.97,2.22,1.73l2.93-2.68c-.93-1.14-2.09-2-3.47-2.58-1.38-.59-2.92-.88-4.61-.88-1.51,0-2.91.25-4.21.74-1.3.49-2.42,1.2-3.38,2.11-.96.91-1.7,1.98-2.24,3.21-.53,1.23-.8,2.58-.8,4.05s.27,2.82.8,4.05c.53,1.23,1.27,2.3,2.22,3.21.95.91,2.07,1.62,3.37,2.11,1.29.49,2.7.74,4.21.74,1.71,0,3.26-.3,4.64-.89,1.38-.6,2.53-1.46,3.47-2.6l-2.93-2.68c-.65.76-1.39,1.35-2.22,1.75-.83.4-1.73.6-2.7.6-.91,0-1.75-.15-2.51-.46-.76-.31-1.43-.74-1.98-1.3-.56-.56-.99-1.22-1.3-1.98-.31-.76-.46-1.61-.46-2.54s.15-1.78.46-2.54c.31-.76.74-1.43,1.3-1.98Z"/>
      <polygon class="cls-1" points="119.25 340.01 109.52 328.14 105.78 328.14 105.78 347.7 110.25 347.7 110.25 335.84 119.97 347.7 123.72 347.7 123.72 328.14 119.25 328.14 119.25 340.01"/>
      <path class="cls-1" d="M99.55,330.66c-.97-.91-2.1-1.62-3.4-2.11-1.29-.49-2.71-.74-4.26-.74s-2.97.25-4.26.75c-1.29.5-2.43,1.21-3.39,2.12-.97.91-1.72,1.98-2.25,3.2-.25.57-.43,1.17-.56,1.8h4.71c.03-.1.06-.2.1-.29.31-.75.74-1.42,1.29-1.98.55-.57,1.2-1.01,1.94-1.31.74-.31,1.55-.46,2.43-.46s1.68.15,2.42.46c.74.31,1.38.74,1.94,1.31.56.57.99,1.23,1.3,1.98.31.75.46,1.6.46,2.53s-.15,1.77-.46,2.53c-.31.75-.74,1.42-1.3,1.98-.56.57-1.21,1.01-1.94,1.31-.74.31-1.54.46-2.42.46s-1.69-.15-2.43-.46c-.75-.31-1.39-.74-1.94-1.31-.55-.57-.98-1.23-1.29-1.98-.05-.12-.09-.25-.13-.38h-4.7c.13.65.33,1.28.58,1.88.53,1.23,1.28,2.3,2.25,3.21.97.91,2.1,1.62,3.41,2.12,1.3.5,2.73.75,4.28.75s2.94-.25,4.23-.74c1.29-.49,2.43-1.2,3.4-2.11.97-.91,1.72-1.99,2.25-3.23.53-1.24.8-2.58.8-4.04s-.27-2.82-.8-4.05c-.53-1.23-1.28-2.3-2.25-3.21Z"/>
      <path class="cls-1" d="M67.49,338.2c.16,2.21,1.97,3.99,4.19,4.1,1.8.09,3.39-.9,4.16-2.38.36-.69,1.07-1.11,1.85-1.11h10.24c.63,0,1.23.29,1.63.78.5.63,1.28,1.03,2.14,1.03,1.57,0,2.84-1.32,2.74-2.92-.08-1.38-1.21-2.5-2.59-2.57-.94-.05-1.78.37-2.31,1.04-.39.49-.99.77-1.62.77h-10.24c-.77,0-1.49-.42-1.84-1.11-.74-1.42-2.22-2.39-3.93-2.39-2.55,0-4.6,2.16-4.42,4.75Z"/>
    </g>
  </g>
  <g>
    <g>
      <g>
        <g>
          <g>
            <path class="cls-1" d="M379.24,325.11c-1.56-.13-3.08-.79-4.26-1.98-.12-.12-.22-.24-.33-.36-.11.55-.2,1.12-.24,1.69-.38,6.18,3.76,11.46,9.44,12.84,1.5.37,2.94-.82,2.94-2.37,0-1.13-.79-2.08-1.89-2.36-3.31-.85-5.73-3.88-5.66-7.47Z"/>
            <path class="cls-1" d="M386,312.88c-.58.04-1.14.12-1.69.24.12.11.24.21.36.33,1.19,1.19,1.84,2.71,1.98,4.26,3.59-.07,6.62,2.36,7.47,5.66.28,1.1,1.23,1.89,2.36,1.89,1.55,0,2.73-1.44,2.37-2.94-1.38-5.67-6.66-9.82-12.84-9.44Z"/>
          </g>
          <path class="cls-1" d="M383.33,314.77c1.94,1.94,1.94,5.09,0,7.03-1.94,1.94-5.09,1.94-7.03,0-1.94-1.94-1.94-5.09,0-7.03,1.94-1.94,5.09-1.94,7.03,0Z"/>
        </g>
        <g>
          <g>
            <path class="cls-1" d="M412.7,358.57c.13,1.56.79,3.08,1.98,4.26.12.12.24.22.36.33-.55.11-1.12.2-1.69.24-6.18.38-11.46-3.76-12.84-9.44-.37-1.5.82-2.94,2.37-2.94,1.13,0,2.08.79,2.36,1.89.85,3.31,3.88,5.73,7.47,5.66Z"/>
            <path class="cls-1" d="M424.93,351.82c-.04.58-.12,1.14-.24,1.69-.11-.12-.21-.24-.33-.36-1.19-1.19-2.71-1.84-4.26-1.98.07-3.59-2.36-6.62-5.66-7.47-1.1-.28-1.89-1.23-1.89-2.36,0-1.55,1.44-2.73,2.94-2.37,5.67,1.38,9.82,6.66,9.44,12.84Z"/>
          </g>
          <path class="cls-1" d="M423.04,354.48c-1.94-1.94-5.09-1.94-7.03,0-1.94,1.94-1.94,5.09,0,7.03,1.94,1.94,5.09,1.94,7.03,0,1.94-1.94,1.94-5.09,0-7.03Z"/>
        </g>
        <g>
          <g>
            <path class="cls-1" d="M412.7,317.7c.13-1.56.79-3.08,1.98-4.26.12-.12.24-.22.36-.33-.55-.11-1.12-.2-1.69-.24-6.18-.38-11.46,3.76-12.84,9.44-.37,1.5.82,2.94,2.37,2.94,1.13,0,2.08-.79,2.36-1.89.85-3.31,3.88-5.73,7.47-5.66Z"/>
            <path class="cls-1" d="M424.93,324.46c-.04-.58-.12-1.14-.24-1.69-.11.12-.21.24-.33.36-1.19,1.19-2.71,1.84-4.26,1.98.07,3.59-2.36,6.62-5.66,7.47-1.1.28-1.89,1.23-1.89,2.36,0,1.55,1.44,2.73,2.94,2.37,5.67-1.38,9.82-6.66,9.44-12.84Z"/>
          </g>
          <path class="cls-1" d="M423.04,321.8c-1.94,1.94-5.09,1.94-7.03,0s-1.94-5.09,0-7.03c1.94-1.94,5.09-1.94,7.03,0,1.94,1.94,1.94,5.09,0,7.03Z"/>
        </g>
        <g>
          <g>
            <path class="cls-1" d="M379.24,351.17c-1.56.13-3.08.79-4.26,1.98-.12.12-.22.24-.33.36-.11-.55-.2-1.12-.24-1.69-.38-6.18,3.76-11.46,9.44-12.84,1.5-.37,2.94.82,2.94,2.37,0,1.13-.79,2.08-1.89,2.36-3.31.85-5.73,3.88-5.66,7.47Z"/>
            <path class="cls-1" d="M386,363.4c-.58-.04-1.14-.12-1.69-.24.12-.11.24-.21.36-.33,1.19-1.19,1.84-2.71,1.98-4.26,3.59.07,6.62-2.36,7.47-5.66.28-1.1,1.23-1.89,2.36-1.89,1.55,0,2.73,1.44,2.37,2.94-1.38,5.67-6.66,9.82-12.84,9.44Z"/>
          </g>
          <path class="cls-1" d="M383.33,361.51c1.94-1.94,1.94-5.09,0-7.03-1.94-1.94-5.09-1.94-7.03,0s-1.94,5.09,0,7.03c1.94,1.94,5.09,1.94,7.03,0Z"/>
        </g>
      </g>
      <g>
        <path class="cls-2" d="M398.04,348.26c.47-.77.74-1.67.74-2.63v-4.19c0,.17,0,.35-.03.52-.17,1.7-1.2,3.16-2.64,3.95-.72.39-1.54.62-2.42.62h-2.41v-2.41c0-2.79,2.29-5.08,5.08-5.08h-4.19c-2.79,0-5.08,2.29-5.08,5.08v6.6h6.6c1.4,0,2.67-.57,3.59-1.49.29-.29.54-.61.75-.96Z"/>
        <path class="cls-2" d="M400.56,330.65v4.19c0-.09,0-.17,0-.26.14-2.67,2.37-4.82,5.07-4.82h2.41v2.41c0,2.79-2.29,5.08-5.08,5.08h4.19c2.79,0,5.08-2.29,5.08-5.08v-6.6h-6.6c-.35,0-.69.04-1.02.1-.16.03-.33.08-.49.13-.16.05-.31.11-.47.17-1.82.77-3.11,2.58-3.11,4.68h0Z"/>
        <path class="cls-2" d="M396.37,337.25c-2.79,0-5.08-2.29-5.08-5.08v-2.41h2.41c2.79,0,5.08,2.29,5.08,5.08v-4.19c0-2.79-2.29-5.08-5.08-5.08h-6.6v6.6c0,2.79,2.29,5.08,5.08,5.08h4.19Z"/>
        <path class="cls-2" d="M412.24,346.52v-2.41c0-2.79-2.29-5.08-5.08-5.08h-4.19c.09,0,.17,0,.26,0,2.67.14,4.82,2.37,4.82,5.07v2.41h-2.41c-2.79,0-5.08-2.29-5.08-5.08v4.19c0,2.79,2.29,5.08,5.08,5.08h6.6v-4.19Z"/>
      </g>
      <path class="cls-2" d="M403.07,338.14c0,1.88-1.52,3.4-3.4,3.4s-3.4-1.52-3.4-3.4,1.52-3.4,3.4-3.4,3.4,1.52,3.4,3.4Z"/>
    </g>
    <g>
      <g>
        <path class="cls-1" d="M508.13,329.12c1.6-1.09,3.44-1.63,5.53-1.63,1.46,0,2.92.26,4.32.77,1.4.52,2.09,1.17,2.09,1.95,0,.6-.57,1.69-1.15,2.29h-.17c-1.4-2.2-3.64-3.41-5.81-3.41-1.72,0-3.18.72-4.35,2.12-1.17,1.4-1.77,3.44-1.77,6.04,0,3.01.97,5.64,3.18,7.33,1.12.86,2.4,1.29,3.92,1.29,2.49,0,4.67-.77,6.53-2.35l.09.09c-.26,1.32-1.12,2.43-2.52,3.38-1.4.94-3.03,1.4-4.84,1.4-6.79,0-9.88-4.78-9.88-9.76,0-3.81,1.6-7.33,4.84-9.51Z"/>
        <path class="cls-1" d="M525.02,335.53c1.35-1.55,3.18-2.32,5.55-2.32s4.07.66,5.35,2c1.29,1.35,1.92,2.95,1.92,4.81,0,2.26-.66,4.24-2,5.87-1.35,1.66-3.21,2.49-5.55,2.49s-4.07-.72-5.35-2.15c-1.29-1.4-1.92-3.12-1.92-5.1,0-2.18.66-4.04,2-5.61ZM527.6,345.18c.72,1.26,1.69,1.89,2.98,1.89,1.2,0,2.15-.66,2.81-1.95.66-1.29.97-2.81.97-4.58,0-1.63-.34-3.06-1.06-4.24s-1.75-1.78-3.03-1.78c-1.2,0-2.12.6-2.78,1.8-.66,1.2-.97,2.63-.97,4.32s.37,3.26,1.09,4.52Z"/>
        <path class="cls-1" d="M541.46,344.98c.09-1.12.11-2.46.11-4.04,0-1.03-.03-2.46-.11-4.29-.09-1.63-.31-2.69-.46-2.89l-.11-.14c.6-.17,1.06-.26,1.4-.26,1.29,0,2.23.66,2.23,1.57l-.11.72.11.03c.26-.69.83-1.26,1.72-1.69.86-.43,1.78-.63,2.72-.63,2.52,0,3.78.92,3.89,2.29l.11.03c.6-1.37,2.61-2.32,4.52-2.32,1.69,0,2.83.34,3.38,1.06.54.72.8,1.69.8,2.92,0,.66-.03,1.69-.06,3.06-.03,1.4-.06,2.52-.06,3.38s.03,1.26.2,1.95c.17.72.57,1.06,1.23,1.06.34,0,.74-.17.94-.31l.14-.09.11.09s-.69,1.78-3.18,1.78c-1.4,0-2.58-.72-2.58-2.32,0-.77.03-1.92.06-3.38.03-1.46.03-2.72.03-3.72,0-1.23-.03-1.72-.31-2.55-.29-.8-.97-1.17-2.12-1.17-1.23,0-2.09.86-2.49,2.03-.4,1.17-.54,2.12-.54,3.01,0,.03,0,.86.03,2.52.03,1.66.03,2.52.03,2.61,0,1.03-.11,1.63-.4,2.06-.23.37-.17.34-.49.66-.14.14-.23.23-.23.26-.72-.11-.92-.14-1.4-.4-.49-.26-.69-.86-.69-1.8,0-.77.03-1.92.06-3.44.03-1.52.03-2.78.03-3.78,0-.94,0-1.37-.17-2.12-.09-.37-.23-.66-.4-.86-.34-.4-1-.74-1.95-.74-.69,0-1.35.34-1.95,1.06-.6.72-.92,1.69-.92,2.89,0,.83.03,2.03.06,3.55.03,1.55.06,2.78.06,3.69,0,1.29-.6,1.95-1.8,1.95-.43,0-1.12-.09-2.03-.29.14-.09.4-.72.57-2.98Z"/>
        <path class="cls-1" d="M568.95,353.03c-.92,1.03-2,1.55-3.29,1.55-.37,0-.72-.09-1-.26v-.14c.66-.26,1.17-.66,1.49-1.2.31-.54.6-1.75.8-3.55.2-1.83.31-4.55.31-8.13,0-2.46-.09-4.07-.23-4.78-.14-.72-.52-1.17-1.09-1.37l-.74-.29v-1.2c1.35,0,1.95-.34,1.95-1.72,0-4.21,2.2-6.3,5.75-6.3,2.83,0,4.72,1.37,4.72,3.32l-.14.09c-.6-1-1.8-1.49-3.55-1.49-.94,0-1.8.31-2.52.92-.74.63-1.12,1.66-1.12,3.06v.77l-.09,1.35h2.06c.69,0,1.26-.11,1.4-.23l.14-.06c.03.11.03.37.03.77,0,1.15-.49,1.46-1.6,1.46-.09,0-.4,0-.94-.03h-.97c-.09,1-.11,2.06-.11,3.24,0,.89.03,2.4.06,4.55.03,2.18.03,4.01.03,5.47,0,1.75-.46,3.15-1.35,4.21Z"/>
        <path class="cls-1" d="M577.05,335.53c1.35-1.55,3.18-2.32,5.55-2.32s4.07.66,5.35,2c1.29,1.35,1.92,2.95,1.92,4.81,0,2.26-.66,4.24-2,5.87-1.35,1.66-3.21,2.49-5.55,2.49s-4.07-.72-5.35-2.15c-1.29-1.4-1.92-3.12-1.92-5.1,0-2.18.66-4.04,2-5.61ZM579.63,345.18c.72,1.26,1.69,1.89,2.98,1.89,1.2,0,2.15-.66,2.81-1.95.66-1.29.97-2.81.97-4.58,0-1.63-.34-3.06-1.06-4.24-.72-1.17-1.75-1.78-3.03-1.78-1.2,0-2.12.6-2.78,1.8-.66,1.2-.97,2.63-.97,4.32s.37,3.26,1.09,4.52Z"/>
        <path class="cls-1" d="M593.49,343.49c.03-1.12.06-1.92.06-2.43,0-3.46-.29-6.1-.49-6.81-.09-.37-.17-.57-.23-.63.6-.17,1.06-.26,1.4-.26,1.37,0,2.32.69,2.32,1.83l-.2,1.06.11.03c.37-.86,1-1.57,1.83-2.12.83-.54,1.66-.8,2.49-.8.94,0,1.4.37,1.4,1.12s-.11,1.43-.34,2.03l-.14.06c-1.06-.54-1.83-.8-2.29-.8-1.92,0-2.86,1.83-2.86,5.5,0,3.35.29,5.7.46,6.24.09.29.14.43.2.46-1.17.2-1.86.29-2,.29-1.17,0-1.8-.52-1.8-2.2,0-.6.03-1.43.09-2.55Z"/>
        <path class="cls-1" d="M605.02,340c.03-1.2.06-1.95.06-2.26,0-1.17-.06-1.89-.2-2.2-.14-.29-.52-.52-1.12-.69v-1.2c.57,0,1.37-.43,2.43-1.29,1.06-.86,1.69-1.55,1.89-2.06l.66.23-.57,3.12h2.35c.69,0,1.26-.11,1.4-.23l.14-.06c.03.11.03.37.03.77,0,1.15-.49,1.46-1.6,1.46l-2.32-.06c-.06,2.26-.09,4.09-.09,5.55,0,1.63.09,2.61.4,3.64.32,1.06,1,1.6,2.06,1.6.83,0,2-.54,2.58-1l.46-.34.14.11c-.03.2-.09.37-.54,1.15-.26.37-.52.72-.8,1-.6.57-1.8,1.15-3.09,1.15-3.18,0-4.32-2.03-4.32-5.55,0-.69.03-1.63.06-2.83Z"/>
      </g>
      <path class="cls-1" d="M441.44,333.61c.56-.56,1.22-.99,1.98-1.3.76-.31,1.6-.46,2.51-.46.97,0,1.87.2,2.7.59.83.39,1.57.97,2.22,1.73l2.93-2.68c-.93-1.14-2.09-2-3.47-2.58-1.38-.59-2.92-.88-4.61-.88-1.51,0-2.91.25-4.21.74-1.3.49-2.42,1.2-3.38,2.11-.96.91-1.7,1.98-2.24,3.21-.53,1.23-.8,2.58-.8,4.05s.27,2.82.8,4.05c.53,1.23,1.27,2.3,2.22,3.21.95.91,2.07,1.62,3.37,2.11,1.29.49,2.7.74,4.21.74,1.71,0,3.26-.3,4.64-.89,1.38-.6,2.53-1.46,3.47-2.6l-2.93-2.68c-.65.76-1.39,1.35-2.22,1.75-.83.4-1.73.6-2.7.6-.91,0-1.75-.15-2.51-.46-.76-.31-1.43-.74-1.98-1.3-.56-.56-.99-1.22-1.3-1.98-.31-.76-.46-1.61-.46-2.54s.15-1.78.46-2.54c.31-.76.74-1.43,1.3-1.98Z"/>
      <polygon class="cls-1" points="493.63 340.23 483.91 328.36 480.16 328.36 480.16 347.92 484.63 347.92 484.63 336.05 494.36 347.92 498.1 347.92 498.1 328.36 493.63 328.36 493.63 340.23"/>
      <path class="cls-1" d="M473.93,330.87c-.97-.91-2.1-1.62-3.4-2.11-1.29-.49-2.72-.74-4.26-.74s-2.97.25-4.26.75c-1.29.5-2.43,1.21-3.39,2.12-.97.91-1.72,1.98-2.25,3.2-.25.57-.43,1.17-.56,1.8h4.71c.03-.1.06-.2.1-.29.31-.75.74-1.42,1.29-1.98.55-.57,1.2-1.01,1.94-1.31.74-.31,1.55-.46,2.43-.46s1.68.15,2.42.46c.74.31,1.38.74,1.94,1.31.56.57.99,1.23,1.3,1.98.31.75.46,1.6.46,2.53s-.15,1.77-.46,2.53c-.31.75-.74,1.42-1.3,1.98-.56.57-1.21,1.01-1.94,1.31-.74.31-1.54.46-2.42.46s-1.69-.15-2.43-.46c-.75-.31-1.39-.74-1.94-1.31-.55-.57-.98-1.23-1.29-1.98-.05-.12-.09-.25-.13-.38h-4.7c.13.65.33,1.28.58,1.88.53,1.23,1.28,2.3,2.25,3.21.97.91,2.1,1.62,3.41,2.12,1.3.5,2.73.75,4.28.75s2.94-.25,4.23-.74c1.29-.49,2.43-1.2,3.4-2.11.97-.91,1.72-1.99,2.25-3.23.53-1.24.8-2.58.8-4.04s-.27-2.82-.8-4.05c-.53-1.23-1.28-2.3-2.25-3.21Z"/>
      <path class="cls-1" d="M441.87,338.41c.16,2.21,1.97,3.99,4.19,4.1,1.8.09,3.39-.9,4.16-2.38.36-.69,1.07-1.11,1.85-1.11h10.24c.63,0,1.23.29,1.63.78.5.63,1.28,1.03,2.14,1.03,1.57,0,2.84-1.32,2.74-2.92-.08-1.38-1.21-2.5-2.59-2.57-.94-.05-1.78.37-2.31,1.04-.39.49-.99.77-1.62.77h-10.24c-.77,0-1.49-.42-1.84-1.11-.74-1.42-2.22-2.39-3.93-2.39-2.55,0-4.6,2.16-4.42,4.75Z"/>
    </g>
  </g>
  <g>
    <g>
      <g>
        <g>
          <g>
            <path class="cls-1" d="M4.85,163.51c-1.56-.13-3.08-.79-4.26-1.98-.12-.12-.22-.24-.33-.36-.11.55-.2,1.12-.24,1.69-.38,6.18,3.76,11.46,9.44,12.84,1.5.37,2.94-.82,2.94-2.37,0-1.13-.79-2.08-1.89-2.36-3.31-.85-5.73-3.88-5.66-7.47Z"/>
            <path class="cls-1" d="M11.61,151.28c-.58.04-1.14.12-1.69.24.12.11.24.21.36.33,1.19,1.19,1.84,2.71,1.98,4.26,3.59-.07,6.62,2.36,7.47,5.66.28,1.1,1.23,1.89,2.36,1.89,1.55,0,2.73-1.44,2.37-2.94-1.38-5.67-6.66-9.82-12.84-9.44Z"/>
          </g>
          <path class="cls-1" d="M8.95,153.17c1.94,1.94,1.94,5.09,0,7.03-1.94,1.94-5.09,1.94-7.03,0-1.94-1.94-1.94-5.09,0-7.03,1.94-1.94,5.09-1.94,7.03,0Z"/>
        </g>
        <g>
          <g>
            <path class="cls-1" d="M38.32,196.98c.13,1.56.79,3.08,1.98,4.26.12.12.24.22.36.33-.55.11-1.12.2-1.69.24-6.18.38-11.46-3.76-12.84-9.44-.37-1.5.82-2.94,2.37-2.94,1.13,0,2.08.79,2.36,1.89.85,3.31,3.88,5.73,7.47,5.66Z"/>
            <path class="cls-1" d="M50.55,190.22c-.04.58-.12,1.14-.24,1.69-.11-.12-.21-.24-.33-.36-1.19-1.19-2.71-1.84-4.26-1.98.07-3.59-2.36-6.62-5.66-7.47-1.1-.28-1.89-1.23-1.89-2.36,0-1.55,1.44-2.73,2.94-2.37,5.67,1.38,9.82,6.66,9.44,12.84Z"/>
          </g>
          <path class="cls-1" d="M48.65,192.88c-1.94-1.94-5.09-1.94-7.03,0-1.94,1.94-1.94,5.09,0,7.03,1.94,1.94,5.09,1.94,7.03,0,1.94-1.94,1.94-5.09,0-7.03Z"/>
        </g>
        <g>
          <g>
            <path class="cls-1" d="M38.32,156.1c.13-1.56.79-3.08,1.98-4.26.12-.12.24-.22.36-.33-.55-.11-1.12-.2-1.69-.24-6.18-.38-11.46,3.76-12.84,9.44-.37,1.5.82,2.94,2.37,2.94,1.13,0,2.08-.79,2.36-1.89.85-3.31,3.88-5.73,7.47-5.66Z"/>
            <path class="cls-1" d="M50.55,162.86c-.04-.58-.12-1.14-.24-1.69-.11.12-.21.24-.33.36-1.19,1.19-2.71,1.84-4.26,1.98.07,3.59-2.36,6.62-5.66,7.47-1.1.28-1.89,1.23-1.89,2.36,0,1.55,1.44,2.73,2.94,2.37,5.67-1.38,9.82-6.66,9.44-12.84Z"/>
          </g>
          <path class="cls-1" d="M48.65,160.2c-1.94,1.94-5.09,1.94-7.03,0-1.94-1.94-1.94-5.09,0-7.03,1.94-1.94,5.09-1.94,7.03,0s1.94,5.09,0,7.03Z"/>
        </g>
        <g>
          <g>
            <path class="cls-1" d="M4.85,189.57c-1.56.13-3.08.79-4.26,1.98-.12.12-.22.24-.33.36-.11-.55-.2-1.12-.24-1.69-.38-6.18,3.76-11.46,9.44-12.84,1.5-.37,2.94.82,2.94,2.37,0,1.13-.79,2.08-1.89,2.36-3.31.85-5.73,3.88-5.66,7.47Z"/>
            <path class="cls-1" d="M11.61,201.8c-.58-.04-1.14-.12-1.69-.24.12-.11.24-.21.36-.33,1.19-1.19,1.84-2.71,1.98-4.26,3.59.07,6.62-2.36,7.47-5.66.28-1.1,1.23-1.89,2.36-1.89,1.55,0,2.73,1.44,2.37,2.94-1.38,5.67-6.66,9.82-12.84,9.44Z"/>
          </g>
          <path class="cls-1" d="M8.95,199.91c1.94-1.94,1.94-5.09,0-7.03-1.94-1.94-5.09-1.94-7.03,0-1.94,1.94-1.94,5.09,0,7.03,1.94,1.94,5.09,1.94,7.03,0Z"/>
        </g>
      </g>
      <g>
        <g>
          <path class="cls-1" d="M9.82,161.43c-1.16,1.34-1.14,3.36.05,4.67.97,1.07,2.41,1.4,3.68,1,.59-.18,1.23-.02,1.67.41l.96.96c.36.36.53.86.48,1.36-.07.64.14,1.3.63,1.79.89.89,2.34.85,3.19-.1.73-.82.73-2.09,0-2.91-.5-.56-1.21-.79-1.89-.71-.5.06-.99-.13-1.34-.48l-.96-.96c-.43-.43-.6-1.08-.41-1.66.38-1.21.09-2.6-.87-3.56-1.44-1.44-3.81-1.37-5.17.19Z"/>
          <path class="cls-1" d="M40.76,191.64c1.16-1.34,1.14-3.36-.05-4.67-.97-1.07-2.41-1.4-3.68-1-.59.18-1.23.02-1.67-.41l-.96-.96c-.36-.36-.53-.86-.48-1.36.07-.64-.14-1.3-.63-1.79-.89-.89-2.34-.85-3.19.1-.73.82-.73,2.09,0,2.91.5.56,1.21.79,1.89.71.5-.06.99.13,1.34.48l.96.96c.43.43.6,1.08.41,1.66-.38,1.21-.09,2.6.87,3.56,1.44,1.44,3.81,1.38,5.17-.19Z"/>
        </g>
        <g>
          <path class="cls-1" d="M40.39,161.07c-1.34-1.16-3.36-1.13-4.67.05-1.07.97-1.4,2.41-1,3.68.18.59.02,1.23-.41,1.67l-.96.96c-.36.36-.86.53-1.36.48-.64-.07-1.3.14-1.79.63-.89.89-.85,2.34.1,3.19.82.73,2.09.73,2.91,0,.56-.5.79-1.21.71-1.89-.06-.5.13-.99.48-1.34l.96-.96c.43-.43,1.08-.6,1.66-.41,1.21.38,2.6.09,3.56-.87,1.44-1.44,1.38-3.81-.19-5.17Z"/>
          <path class="cls-1" d="M10.18,192.01c1.34,1.16,3.36,1.13,4.67-.05,1.07-.97,1.4-2.41,1-3.68-.19-.59-.02-1.23.41-1.67l.96-.96c.36-.36.86-.53,1.36-.48.64.07,1.3-.14,1.79-.63.89-.89.85-2.34-.1-3.19-.82-.73-2.09-.73-2.91,0-.56.5-.79,1.21-.71,1.89.06.5-.13.99-.48,1.34l-.96.96c-.43.43-1.08.6-1.66.41-1.21-.38-2.6-.09-3.56.87-1.44,1.44-1.38,3.81.19,5.17Z"/>
        </g>
      </g>
      <path class="cls-1" d="M33.32,174.88c-.5-.63-1.16-1.04-1.86-1.4-.66-.34-1.36-.58-2.08-.78-.03,0-.06-.02-.09-.03-.02,0-.03-.02-.03-.04-.09-.36-.19-.72-.31-1.08-.34-.99-.78-1.93-1.5-2.71-.56-.61-1.22-1.04-2.09-1.04-.02,0-.05,0-.07,0,0,0,0,0,0,0-.02,0-.05,0-.07,0-.87,0-1.53.42-2.09,1.04-.72.78-1.16,1.72-1.5,2.71-.12.35-.22.71-.31,1.08,0,.02-.02.03-.03.04-.03.01-.06.02-.09.03-.72.19-1.42.44-2.08.78-.7.36-1.36.77-1.86,1.4-.85,1.07-.85,2.29.02,3.35.52.63,1.2,1.04,1.91,1.4.65.33,1.34.55,2.04.75.01,0,.03,0,.04.01.02,0,.03.02.04.04.01.05.03.1.04.15.23.87.52,1.71.96,2.5.37.67.84,1.27,1.47,1.72.45.33.98.48,1.5.46.53.02,1.05-.13,1.5-.46.63-.45,1.1-1.05,1.47-1.72.22-.4.41-.82.56-1.24.03-.07.05-.14.07-.2,0,0,0,0,0-.01.3-.89.45-1.96.52-2.62,0,0,0-.02,0-.03-.01-.03-.01-.08,0-.15.02-.14.04-.29.06-.43,0,0,0,0,0,0,.06-.56.08-1.13.1-1.69.02-.44-.03-.88-.04-1.32,0-.15-.07-.24-.22-.29-.23-.09-.46-.17-.69-.24-.15-.05-.2,0-.2.16,0,.26.08.51.08.77,0,.9.02,1.8-.13,2.7-.06.34-.12.69-.2,1.02,0,.02-.02.04-.04.04-.42.1-.85.17-1.28.22,0,0,0,0-.01,0-.03,0-.07,0-.12,0-.48.05-.95.09-1.43.09-.48,0-.95-.03-1.43-.09-.05,0-.09,0-.12,0,0,0,0,0-.01,0-.09-.01-.19-.02-.28-.04-.04,0-.07.03-.06.07.08.33.19.7.32,1.01,0,.02.03.03.05.04.51.05,1.03.06,1.55.06.77,0,1.54-.04,2.31-.15.03,0,.06-.01.09-.01.04,0,.07.04.06.08-.19.45-.43.88-.74,1.28-.23.3-.5.57-.83.76-.3.16-.59.25-.88.27,0,0,0,0,0,0-.29-.02-.58-.11-.88-.27-.34-.19-.6-.46-.83-.76-.19-.25-.36-.52-.5-.79,0,0,0,0,0,0-.28-.39-.51-1.2-.65-1.78,0,0,0,0,0,0-.04-.17-.08-.33-.11-.5,0-.04-.02-.08-.02-.1,0-.01,0-.03,0-.04,0,0,0,0,0,0-.03-.14-.05-.27-.07-.41-.15-.89-.13-1.8-.13-2.7,0-.26.09-.51.08-.77,0-.16-.05-.2-.2-.16-.23.07-.46.15-.69.24-.15.06-.21.15-.22.29-.02.44-.06.88-.04,1.32.03.71.04,1.42.16,2.13.03.19-.02.23-.21.16-.59-.25-1.13-.58-1.57-1.06-.71-.76-.81-1.67-.25-2.49.26-.38.6-.68.99-.92.94-.58,1.98-.89,3.06-1.09.7-.13,1.4-.18,2.11-.19.71,0,1.41.06,2.11.19,1.08.19,2.12.51,3.06,1.09.39.24.73.54.99.92.55.81.46,1.73-.25,2.49-.25.27-.53.49-.83.68-.01,0-.02.02-.03.04-.04.38-.11.88-.21,1.41,0,.04.03.08.07.07.4-.14.8-.29,1.18-.48.72-.36,1.39-.77,1.91-1.4.87-1.06.88-2.29.02-3.35ZM27.7,172.29s-.04.04-.07.05c0,0-.01,0-.02,0-.75-.13-1.51-.12-2.27-.17,0,0,0,0,0,0-.01,0-.03,0-.04,0,0,0,0,0,0,0-.01,0-.03,0-.04,0,0,0,0,0,0,0-.75.05-1.5.04-2.25.17-.04-.01-.08-.03-.11-.04,0,0,0,0,0,0-.05-.08.02-.16.06-.23.29-.64.67-1.21,1.22-1.65.35-.28.74-.44,1.13-.45,0,0,0,0,0,0,.39.02.78.17,1.13.45.55.44.93,1.01,1.22,1.65.03.07.11.15.06.23Z"/>
      <path class="cls-1" d="M25.29,174.66c1.04,0,1.88.84,1.88,1.88s-.84,1.88-1.88,1.88-1.88-.84-1.88-1.88.84-1.88,1.88-1.88Z"/>
    </g>
    <g>
      <g>
        <g>
          <path class="cls-1" d="M67.04,172.03c.56-.56,1.22-.99,1.98-1.3.76-.31,1.6-.46,2.51-.46.97,0,1.87.2,2.69.59.83.39,1.57.97,2.22,1.73l2.93-2.68c-.93-1.13-2.08-2-3.46-2.58-1.38-.59-2.91-.88-4.6-.88-1.51,0-2.91.25-4.2.74-1.29.49-2.42,1.2-3.38,2.11-.96.91-1.7,1.98-2.23,3.21-.53,1.23-.79,2.58-.79,4.05s.27,2.82.79,4.05c.53,1.23,1.27,2.3,2.22,3.21.95.91,2.07,1.61,3.36,2.11,1.29.49,2.69.74,4.2.74,1.71,0,3.26-.3,4.63-.89,1.38-.6,2.53-1.46,3.46-2.59l-2.93-2.68c-.65.76-1.39,1.34-2.22,1.74-.83.4-1.73.6-2.69.6-.91,0-1.75-.15-2.51-.46-.76-.31-1.42-.74-1.98-1.3-.56-.56-.99-1.22-1.3-1.98-.31-.76-.46-1.61-.46-2.54s.15-1.78.46-2.54c.31-.76.74-1.42,1.3-1.98Z"/>
          <polygon class="cls-1" points="119.39 178.64 109.68 166.79 105.94 166.79 105.94 186.32 110.4 186.32 110.4 174.47 120.12 186.32 123.85 186.32 123.85 166.79 119.39 166.79 119.39 178.64"/>
          <path class="cls-1" d="M99.49,169.3c-.97-.91-2.1-1.61-3.39-2.11-1.29-.49-2.71-.74-4.26-.74s-2.96.25-4.26.75c-1.29.5-2.42,1.21-3.39,2.12-.97.91-1.72,1.98-2.25,3.19-.25.57-.43,1.17-.56,1.8h4.71c.03-.1.06-.19.1-.29.31-.75.73-1.41,1.28-1.98.55-.57,1.19-1,1.94-1.31.74-.31,1.55-.46,2.43-.46s1.68.15,2.41.46c.73.31,1.38.74,1.94,1.31.56.57.99,1.23,1.3,1.98.31.75.46,1.59.46,2.53s-.15,1.77-.46,2.53c-.31.75-.74,1.41-1.3,1.98-.56.57-1.2,1-1.94,1.31-.74.31-1.54.46-2.41.46s-1.68-.15-2.43-.46c-.74-.31-1.39-.74-1.94-1.31-.55-.57-.98-1.23-1.28-1.98-.05-.12-.09-.25-.13-.38h-4.69c.13.65.33,1.28.58,1.88.53,1.23,1.28,2.3,2.25,3.21.97.91,2.1,1.62,3.4,2.12,1.3.5,2.73.75,4.27.75s2.93-.25,4.23-.74c1.29-.49,2.42-1.19,3.39-2.11.97-.91,1.72-1.99,2.25-3.22.53-1.24.8-2.58.8-4.03s-.27-2.82-.8-4.05c-.53-1.23-1.28-2.3-2.25-3.21Z"/>
        </g>
        <path class="cls-1" d="M67.48,176.83c.16,2.21,1.97,3.98,4.18,4.1,1.8.09,3.38-.9,4.15-2.37.36-.69,1.07-1.11,1.84-1.11h10.23c.63,0,1.23.29,1.63.78.5.63,1.27,1.03,2.14,1.03,1.57,0,2.84-1.32,2.74-2.91-.08-1.38-1.21-2.49-2.59-2.57-.93-.05-1.77.37-2.31,1.04-.39.49-.99.77-1.61.77h-10.22c-.77,0-1.49-.42-1.84-1.11-.74-1.42-2.22-2.38-3.93-2.38-2.55,0-4.6,2.16-4.41,4.75Z"/>
      </g>
      <g>
        <path class="cls-1" d="M128.33,167.16h10.12c1.45,0,2.68.22,3.7.65,1.02.43,1.84,1.07,2.49,1.89.64.83,1.12,1.83,1.41,3.01.3,1.18.45,2.52.45,4.03s-.15,2.82-.46,3.98c-.31,1.17-.79,2.16-1.44,2.98-.65.82-1.49,1.44-2.5,1.86-1.02.43-2.23.64-3.64.64h-10.12v-19.04ZM132.68,182.39h5.28c.8,0,1.46-.13,2-.38.53-.25.97-.62,1.29-1.1.33-.48.56-1.07.69-1.77.14-.7.2-1.49.2-2.38s-.06-1.72-.19-2.43c-.13-.72-.35-1.32-.67-1.82-.32-.5-.75-.88-1.29-1.14-.54-.26-1.22-.39-2.04-.39h-5.28v11.42Z"/>
        <path class="cls-1" d="M148.67,167.16h4.35v19.04h-4.35v-19.04Z"/>
        <path class="cls-1" d="M162.81,178.5v-3.81h6.88c.98,0,1.77.3,2.37.9.6.6.9,1.39.9,2.37v4.98c0,.98-.3,1.77-.9,2.37-.6.6-1.39.9-2.37.9h-6.45c-1.41,0-2.63-.21-3.64-.64-1.02-.43-1.85-1.05-2.5-1.86-.65-.82-1.13-1.81-1.44-2.98-.31-1.17-.46-2.5-.46-3.98s.15-2.85.44-4.04c.29-1.19.76-2.19,1.4-3.01.64-.82,1.48-1.44,2.5-1.88,1.02-.44,2.26-.65,3.71-.65h8.16v3.81h-7.7c-.83,0-1.52.13-2.05.39-.53.26-.96.64-1.26,1.14-.31.5-.53,1.11-.65,1.82-.13.72-.19,1.53-.19,2.43s.07,1.68.2,2.38c.14.7.36,1.29.68,1.77.32.48.74.85,1.28,1.1.53.25,1.2.38,2,.38h3.81c.33,0,.59-.1.79-.3.2-.2.3-.46.3-.79v-1.71c0-.33-.1-.59-.3-.79-.2-.2-.46-.3-.79-.3h-4.71Z"/>
        <path class="cls-1" d="M175.13,167.16h4.35v19.04h-4.35v-19.04Z"/>
        <path class="cls-1" d="M186.83,170.97h-5.44v-3.81h15.23v3.81h-5.44v15.23h-4.35v-15.23Z"/>
        <path class="cls-1" d="M206.44,173.31c-.33-.92-.7-1.39-1.11-1.39-.2,0-.4.11-.6.34-.2.23-.38.57-.54,1.02l-4.76,12.92h-4.62l6.04-16.4c.16-.45.4-.87.71-1.24.31-.37.66-.69,1.06-.97.4-.27.83-.48,1.29-.63.46-.14.94-.22,1.43-.22,1.03,0,1.95.28,2.75.84.8.56,1.37,1.31,1.71,2.23l6.01,16.37h-4.62l-4.73-12.89Z"/>
        <path class="cls-1" d="M220.42,178.04c0,.78.06,1.44.19,1.99.13.54.35.99.67,1.35.32.35.74.61,1.26.78.53.16,1.19.24,1.99.24h4.51v3.81h-4.98c-1.41,0-2.62-.15-3.63-.45-1.01-.3-1.84-.77-2.49-1.43-.65-.65-1.13-1.49-1.43-2.52-.3-1.02-.45-2.25-.45-3.69v-10.96h4.35v10.88Z"/>
      </g>
    </g>
  </g>
</svg>