<?xml version="1.0" encoding="UTF-8"?>
<svg id="Layer_1" data-name="Layer 1" xmlns="http://www.w3.org/2000/svg" viewBox="0 0 277.56 165.34">
  <defs>
    <style>
      .cls-1 {
        fill: #fff;
      }

      .cls-2 {
        fill: #df7b31;
      }
    </style>
  </defs>
  <g>
    <g>
      <g>
        <path class="cls-1" d="M33.17,117.44c.74-.74,1.61-1.31,2.62-1.72,1.01-.41,2.12-.61,3.32-.61,1.28,0,2.47.26,3.56.78,1.1.52,2.07,1.28,2.94,2.29l3.88-3.54c-1.23-1.5-2.76-2.64-4.58-3.42-1.82-.77-3.85-1.16-6.09-1.16-1.99,0-3.85.33-5.56.98-1.71.65-3.2,1.58-4.47,2.79-1.27,1.21-2.25,2.62-2.95,4.25-.7,1.62-1.05,3.41-1.05,5.35s.35,3.73,1.05,5.35c.7,1.62,1.68,3.04,2.94,4.25,1.26,1.21,2.74,2.14,4.45,2.79,1.71.65,3.56.98,5.56.98,2.26,0,4.31-.39,6.13-1.18,1.82-.79,3.35-1.93,4.58-3.43l-3.88-3.55c-.86,1.01-1.84,1.78-2.94,2.31-1.1.53-2.28.79-3.56.79-1.21,0-2.31-.2-3.32-.61-1.01-.41-1.88-.98-2.62-1.72-.74-.74-1.31-1.61-1.72-2.62-.41-1.01-.61-2.13-.61-3.36s.2-2.35.61-3.36c.41-1.01.98-1.88,1.72-2.62Z"/>
        <polygon class="cls-1" points="102.45 126.18 89.6 110.49 84.65 110.49 84.65 136.34 90.56 136.34 90.56 120.66 103.41 136.34 108.35 136.34 108.35 110.49 102.45 110.49 102.45 126.18"/>
        <path class="cls-1" d="M121.26,117.44c.75-.74,1.64-1.31,2.68-1.72,1.03-.41,2.17-.61,3.4-.61,1.33,0,2.55.24,3.66.72,1.11.48,2.14,1.23,3.1,2.23l3.8-3.54c-1.26-1.45-2.8-2.56-4.63-3.32-1.83-.76-3.9-1.14-6.18-1.14-2.07,0-3.96.33-5.69.98-1.72.65-3.22,1.58-4.5,2.79-1.28,1.21-2.27,2.62-2.97,4.25-.7,1.62-1.05,3.41-1.05,5.35s.35,3.73,1.05,5.35c.7,1.62,1.68,3.04,2.94,4.25,1.26,1.21,2.75,2.14,4.47,2.79,1.72.65,3.61.98,5.65.98,1.85,0,3.69-.28,5.54-.83,1.85-.55,3.48-1.37,4.91-2.46v-10.49h-5.47v7.58c-.4.21-.8.4-1.2.54-1.12.39-2.27.59-3.45.59s-2.36-.21-3.38-.63c-1.02-.42-1.91-1-2.66-1.73-.75-.74-1.33-1.62-1.74-2.64-.41-1.02-.61-2.12-.61-3.31s.2-2.35.61-3.36c.41-1.01.98-1.88,1.74-2.62Z"/>
        <path class="cls-1" d="M160.12,128.02c1.67-.73,2.97-1.78,3.88-3.18.91-1.39,1.37-3.06,1.37-5s-.46-3.58-1.37-4.99c-.91-1.4-2.2-2.48-3.88-3.23-1.67-.75-3.67-1.13-5.98-1.13h-11.19v25.85h6.02v-7.24h5.17c.09,0,.17,0,.26-.01l5.02,7.25h6.43l-5.76-8.31s.03,0,.04-.01ZM157.94,116.53c.94.78,1.4,1.88,1.4,3.3s-.47,2.54-1.4,3.32c-.94.79-2.31,1.18-4.14,1.18h-4.84v-8.97h4.84c1.82,0,3.2.39,4.14,1.16Z"/>
        <path class="cls-1" d="M192.73,113.82c-1.28-1.21-2.78-2.14-4.49-2.79-1.71-.65-3.59-.98-5.63-.98s-3.92.33-5.63,1c-1.71.66-3.21,1.6-4.49,2.81-1.28,1.21-2.27,2.62-2.97,4.23-.7,1.61-1.05,3.39-1.05,5.34s.35,3.69,1.05,5.32c.7,1.62,1.69,3.04,2.97,4.25,1.28,1.21,2.78,2.14,4.5,2.81,1.72.66,3.61,1,5.65,1s3.88-.33,5.59-.98c1.71-.65,3.21-1.58,4.49-2.79,1.28-1.21,2.27-2.63,2.97-4.27.7-1.64,1.05-3.42,1.05-5.34s-.35-3.73-1.05-5.35c-.7-1.62-1.69-3.04-2.97-4.25ZM190.09,126.76c-.41,1-.98,1.87-1.72,2.62-.74.75-1.59,1.33-2.57,1.74-.97.41-2.04.61-3.19.61s-2.23-.2-3.21-.61c-.99-.41-1.84-.98-2.57-1.74-.73-.75-1.29-1.63-1.7-2.62-.41-1-.61-2.11-.61-3.34s.2-2.34.61-3.34c.41-1,.97-1.87,1.7-2.62.73-.75,1.58-1.33,2.57-1.73.98-.41,2.05-.61,3.21-.61s2.22.2,3.19.61c.97.41,1.83.98,2.57,1.73.74.75,1.31,1.62,1.72,2.62.41,1,.61,2.11.61,3.34s-.2,2.34-.61,3.34Z"/>
        <path class="cls-1" d="M218.54,124.79c0,2.44-.51,4.2-1.51,5.3-1.01,1.09-2.42,1.64-4.25,1.64s-3.2-.55-4.21-1.64c-1.01-1.1-1.51-2.86-1.51-5.3v-14.29h-6.02v14.44c0,3.82,1.03,6.74,3.1,8.79,2.07,2.04,4.94,3.06,8.6,3.06s6.5-1.02,8.57-3.06c2.07-2.04,3.1-4.97,3.1-8.79v-14.44h-5.87v14.29Z"/>
        <path class="cls-1" d="M251.4,114.85c-.91-1.4-2.2-2.48-3.88-3.23-1.67-.75-3.67-1.13-5.98-1.13h-11.19v25.85h6.02v-7.13h5.17c2.31,0,4.31-.38,5.98-1.14,1.67-.76,2.97-1.84,3.88-3.23.91-1.39,1.37-3.06,1.37-5s-.46-3.58-1.37-4.99ZM245.35,123.16c-.94.79-2.31,1.18-4.14,1.18h-4.84v-8.97h4.84c1.82,0,3.2.39,4.14,1.16.94.78,1.4,1.88,1.4,3.3s-.47,2.54-1.4,3.32Z"/>
        <path class="cls-1" d="M76.12,113.82c-1.28-1.21-2.78-2.14-4.49-2.79-1.71-.65-3.59-.98-5.63-.98s-3.92.33-5.63,1c-1.71.66-3.21,1.6-4.49,2.81-1.28,1.21-2.27,2.62-2.97,4.23-.33.75-.57,1.55-.75,2.38h6.23c.04-.13.08-.26.13-.38.41-1,.97-1.87,1.7-2.62.73-.75,1.58-1.33,2.57-1.73.98-.41,2.05-.61,3.21-.61s2.22.2,3.19.61c.97.41,1.83.98,2.57,1.73.74.75,1.31,1.62,1.72,2.62.41,1,.61,2.11.61,3.34s-.2,2.34-.61,3.34c-.41,1-.98,1.87-1.72,2.62-.74.75-1.59,1.33-2.57,1.74-.97.41-2.04.61-3.19.61s-2.23-.2-3.21-.61c-.99-.41-1.84-.98-2.57-1.74-.73-.75-1.29-1.63-1.7-2.62-.07-.16-.12-.34-.18-.51h-6.21c.18.86.43,1.69.77,2.48.7,1.62,1.69,3.04,2.97,4.25,1.28,1.21,2.78,2.14,4.5,2.81,1.72.66,3.61,1,5.65,1s3.88-.33,5.59-.98c1.71-.65,3.21-1.58,4.49-2.79,1.28-1.21,2.27-2.63,2.97-4.27.7-1.64,1.05-3.42,1.05-5.34s-.35-3.73-1.05-5.35c-.7-1.62-1.69-3.04-2.97-4.25Z"/>
      </g>
      <path class="cls-2" d="M33.75,123.78c.21,2.92,2.61,5.27,5.54,5.42,2.38.12,4.47-1.19,5.49-3.14.47-.91,1.42-1.47,2.44-1.47h13.53c.84,0,1.63.38,2.15,1.03.67.83,1.69,1.36,2.83,1.36,2.08,0,3.75-1.75,3.63-3.86-.11-1.82-1.6-3.3-3.42-3.4-1.24-.07-2.35.48-3.05,1.38-.51.65-1.31,1.01-2.14,1.01h-13.53c-1.02,0-1.97-.56-2.44-1.46-.98-1.87-2.94-3.15-5.2-3.15-3.38,0-6.08,2.86-5.84,6.28Z"/>
    </g>
    <g>
      <g>
        <g>
          <g>
            <path class="cls-1" d="M101.93,22.1c-2.81-.24-5.54-1.42-7.69-3.56-.21-.21-.4-.43-.59-.65-.2,1-.37,2.01-.43,3.05-.69,11.14,6.78,20.67,17.01,23.16,2.71.66,5.3-1.48,5.3-4.27,0-2.04-1.43-3.75-3.4-4.26-5.96-1.53-10.33-7-10.21-13.47Z"/>
            <path class="cls-1" d="M114.12.04c-1.04.06-2.05.22-3.05.43.22.19.44.38.65.59,2.14,2.14,3.33,4.88,3.56,7.69,6.47-.12,11.93,4.25,13.47,10.21.51,1.98,2.22,3.4,4.26,3.4,2.79,0,4.93-2.59,4.27-5.3C134.79,6.83,125.27-.65,114.12.04Z"/>
          </g>
          <path class="cls-1" d="M109.32,3.46c3.5,3.5,3.5,9.17,0,12.67s-9.17,3.5-12.67,0-3.5-9.17,0-12.67c3.5-3.5,9.17-3.5,12.67,0Z"/>
        </g>
        <g>
          <g>
            <path class="cls-1" d="M162.28,82.44c.24,2.81,1.42,5.54,3.56,7.69.21.21.43.4.65.59-1,.2-2.01.37-3.05.43-11.15.69-20.67-6.78-23.16-17.01-.66-2.71,1.48-5.3,4.27-5.3,2.04,0,3.75,1.43,4.26,3.4,1.53,5.96,7,10.33,13.47,10.21Z"/>
            <path class="cls-1" d="M184.33,70.25c-.06,1.04-.22,2.05-.43,3.05-.19-.22-.38-.44-.59-.65-2.14-2.14-4.88-3.33-7.69-3.56.12-6.47-4.25-11.93-10.21-13.47-1.98-.51-3.4-2.22-3.4-4.26,0-2.79,2.59-4.93,5.3-4.27,10.23,2.49,17.71,12.01,17.01,23.16Z"/>
          </g>
          <path class="cls-1" d="M180.91,75.06c-3.5-3.5-9.17-3.5-12.67,0s-3.5,9.17,0,12.67,9.17,3.5,12.67,0c3.5-3.5,3.5-9.17,0-12.67Z"/>
        </g>
        <g>
          <g>
            <path class="cls-1" d="M162.28,8.75c.24-2.81,1.42-5.54,3.56-7.69.21-.21.43-.4.65-.59-1-.2-2.01-.37-3.05-.43-11.15-.69-20.67,6.78-23.16,17.01-.66,2.71,1.48,5.3,4.27,5.3,2.04,0,3.75-1.43,4.26-3.4,1.53-5.96,7-10.33,13.47-10.21Z"/>
            <path class="cls-1" d="M184.33,20.94c-.06-1.04-.22-2.05-.43-3.05-.19.22-.38.44-.59.65-2.14,2.14-4.88,3.33-7.69,3.56.12,6.47-4.25,11.93-10.21,13.47-1.98.51-3.4,2.22-3.4,4.26,0,2.79,2.59,4.93,5.3,4.27,10.23-2.49,17.71-12.01,17.01-23.16Z"/>
          </g>
          <path class="cls-1" d="M180.91,16.13c-3.5,3.5-9.17,3.5-12.67,0-3.5-3.5-3.5-9.17,0-12.67,3.5-3.5,9.17-3.5,12.67,0s3.5,9.17,0,12.67Z"/>
        </g>
        <g>
          <g>
            <path class="cls-1" d="M101.93,69.09c-2.81.24-5.54,1.42-7.69,3.56-.21.21-.4.43-.59.65-.2-1-.37-2.01-.43-3.05-.69-11.14,6.78-20.67,17.01-23.16,2.71-.66,5.3,1.48,5.3,4.27,0,2.04-1.43,3.75-3.4,4.26-5.96,1.53-10.33,7-10.21,13.47Z"/>
            <path class="cls-1" d="M114.12,91.15c-1.04-.06-2.05-.22-3.05-.43.22-.19.44-.38.65-.59,2.14-2.14,3.33-4.88,3.56-7.69,6.47.12,11.93-4.25,13.47-10.21.51-1.98,2.22-3.4,4.26-3.4,2.79,0,4.93,2.59,4.27,5.3-2.49,10.23-12.01,17.71-23.16,17.01Z"/>
          </g>
          <path class="cls-1" d="M109.32,87.73c3.5-3.5,3.5-9.17,0-12.67s-9.17-3.5-12.67,0-3.5,9.17,0,12.67c3.5,3.5,9.17,3.5,12.67,0Z"/>
        </g>
      </g>
      <path class="cls-2" d="M159.49,60.21c-1.58.18-3.16-.4-4.28-1.53l-4.4-4.4c-1.31-1.31-1.84-3.21-1.4-4.99.8-2.29.83-4.78.11-7.08-.59-1.87-.07-3.92,1.32-5.31l4.4-4.4c1.14-1.14,2.73-1.7,4.33-1.52,2.03.22,4.14-.44,5.7-2,2.82-2.82,2.72-7.47-.31-10.17-2.63-2.33-6.66-2.31-9.27.03-1.77,1.59-2.53,3.85-2.28,6.02.18,1.58-.4,3.16-1.53,4.28l-4.4,4.4c-1.39,1.39-3.43,1.91-5.3,1.32-.12-.04-.24-.07-.37-.1-.08-.02-.16-.05-.24-.07-.17-.04-.35-.08-.52-.12-.08-.02-.16-.03-.24-.05-.18-.03-.36-.06-.54-.08-.08-.01-.15-.02-.23-.03-.19-.02-.38-.03-.56-.05-.07,0-.14-.01-.21-.01-.2,0-.4,0-.61,0-.06,0-.11,0-.17,0-.25,0-.49.02-.73.04-.01,0-.02,0-.04,0-.14.01-.27.03-.41.05-.04,0-.09.01-.13.02-.34.05-.68.11-1.01.19-.06.01-.12.03-.19.05-.19.05-.38.1-.57.16,0,0,0,0-.01,0-1.87.59-3.92.07-5.31-1.32l-4.4-4.4c-1.14-1.14-1.7-2.73-1.52-4.33.22-2.03-.44-4.14-2-5.7-2.82-2.82-7.47-2.72-10.17.31-2.33,2.63-2.31,6.66.03,9.27,1.59,1.77,3.85,2.53,6.01,2.28,1.58-.18,3.16.4,4.28,1.53l4.4,4.4c1.31,1.31,1.84,3.21,1.4,4.99-.8,2.29-.84,4.78-.11,7.08.59,1.88.07,3.92-1.32,5.31l-4.4,4.4c-1.14,1.14-2.73,1.7-4.33,1.52-2.03-.22-4.14.44-5.7,2-2.82,2.82-2.72,7.47.31,10.17,2.63,2.33,6.66,2.31,9.27-.03,1.77-1.59,2.53-3.85,2.28-6.01-.18-1.58.4-3.16,1.53-4.28l4.4-4.4c1.39-1.39,3.43-1.91,5.3-1.32.12.04.24.07.37.1.08.02.16.05.24.07.17.04.35.08.53.12.08.02.16.03.23.05.18.03.36.06.54.08.07,0,.15.02.22.03.19.02.38.03.57.05.07,0,.14.01.2.01.2,0,.41,0,.61,0,.05,0,.11,0,.16,0,.25,0,.5-.02.75-.04,0,0,.02,0,.02,0,.14-.01.27-.03.41-.05.04,0,.09-.01.13-.02.34-.05.68-.11,1.02-.19.06-.01.12-.03.18-.05.19-.05.38-.1.57-.16,0,0,0,0,.01,0,1.87-.59,3.92-.07,5.31,1.32l4.4,4.4c1.14,1.14,1.7,2.73,1.52,4.33-.22,2.03.44,4.14,2,5.7,2.82,2.82,7.47,2.72,10.17-.31,2.33-2.63,2.31-6.66-.03-9.27-1.59-1.77-3.85-2.53-6.02-2.28ZM136.98,50.43c-.67-.25-1.3-.64-1.84-1.18-2.02-2.02-2.02-5.3,0-7.31.5-.5,1.09-.88,1.71-1.13.01,0,.02,0,.03-.01.15-.06.29-.11.44-.15,0,0,.02,0,.03,0,.14-.04.29-.08.43-.1,1.14-.22,2.34-.05,3.39.5.45.24.87.54,1.25.92,2.02,2.02,2.02,5.3,0,7.32-.5.5-1.09.88-1.71,1.13-.01,0-.02,0-.03.01-.14.06-.29.11-.44.15-.03,0-.06.01-.09.02-.12.03-.25.07-.37.09-.93.18-1.9.1-2.8-.24Z"/>
    </g>
  </g>
  <g>
    <path class="cls-2" d="M2.78,161.89H0v-11.94h2.78v11.94ZM8.4,156.99H2.56v-2.34h5.84v2.34ZM8.19,149.95h2.76v11.94h-2.76v-11.94Z"/>
    <path class="cls-2" d="M16.43,162.03c-.71,0-1.31-.12-1.83-.37-.51-.24-.91-.58-1.19-1s-.42-.89-.42-1.42.13-1.01.4-1.42c.27-.42.69-.74,1.27-.96.58-.23,1.34-.34,2.29-.34h2.42v1.54h-2.15c-.63,0-1.06.1-1.29.31-.23.21-.35.46-.35.77,0,.34.13.61.4.81.27.2.63.3,1.08.3s.86-.1,1.22-.31c.36-.2.61-.52.76-.94l.41,1.25c-.19.57-.55,1.01-1.06,1.32-.51.31-1.17.47-1.98.47ZM19.23,161.89v-1.79l-.17-.39v-3.21c0-.57-.17-1.01-.52-1.33-.35-.32-.88-.48-1.6-.48-.49,0-.97.08-1.44.23-.47.15-.88.36-1.22.62l-.94-1.86c.5-.36,1.1-.64,1.81-.83.7-.19,1.42-.28,2.15-.28,1.4,0,2.49.33,3.26.99.77.66,1.16,1.69,1.16,3.09v5.24h-2.49Z"/>
    <path class="cls-2" d="M24.13,165.2v-12.49h2.54v1.88l-.05,2.73.17,2.71v5.17h-2.66ZM29.54,162.03c-.76,0-1.43-.17-2.01-.51s-1.03-.86-1.36-1.56c-.32-.7-.49-1.58-.49-2.65s.15-1.97.46-2.66c.31-.69.75-1.21,1.34-1.55.59-.34,1.27-.51,2.06-.51.88,0,1.66.2,2.35.59.69.39,1.23.94,1.64,1.65.4.71.61,1.54.61,2.49s-.2,1.8-.61,2.5c-.4.7-.95,1.25-1.64,1.64-.69.39-1.47.59-2.35.59ZM29.09,159.84c.44,0,.84-.1,1.19-.31.35-.21.63-.5.84-.88.21-.38.32-.83.32-1.36s-.11-.99-.32-1.37c-.21-.38-.49-.66-.84-.86-.35-.2-.74-.3-1.19-.3s-.84.1-1.19.3c-.35.2-.63.49-.84.86-.21.38-.32.83-.32,1.37s.11.98.32,1.36c.21.38.49.67.84.88.35.2.75.31,1.19.31Z"/>
    <path class="cls-2" d="M35.9,165.2v-12.49h2.54v1.88l-.05,2.73.17,2.71v5.17h-2.66ZM41.31,162.03c-.76,0-1.43-.17-2.01-.51s-1.03-.86-1.36-1.56c-.32-.7-.49-1.58-.49-2.65s.15-1.97.46-2.66c.31-.69.75-1.21,1.34-1.55.59-.34,1.27-.51,2.06-.51.88,0,1.66.2,2.35.59.69.39,1.23.94,1.64,1.65.4.71.61,1.54.61,2.49s-.2,1.8-.61,2.5-.95,1.25-1.64,1.64c-.69.39-1.47.59-2.35.59ZM40.87,159.84c.44,0,.84-.1,1.19-.31.35-.21.63-.5.84-.88.21-.38.32-.83.32-1.36s-.11-.99-.32-1.37c-.21-.38-.49-.66-.84-.86-.35-.2-.74-.3-1.19-.3s-.84.1-1.19.3c-.35.2-.63.49-.84.86-.21.38-.32.83-.32,1.37s.1.98.32,1.36c.21.38.49.67.84.88.35.2.75.31,1.19.31Z"/>
    <path class="cls-2" d="M49,151.43c-.5,0-.9-.14-1.21-.43-.31-.28-.46-.64-.46-1.06s.15-.77.46-1.06c.31-.28.71-.43,1.21-.43s.89.13,1.2.4c.31.27.47.61.47,1.03,0,.44-.15.81-.46,1.1-.31.29-.71.44-1.21.44ZM47.67,161.89v-9.18h2.66v9.18h-2.66Z"/>
    <path class="cls-2" d="M58.39,152.58c.73,0,1.38.15,1.95.44.57.29,1.03.73,1.36,1.33.33.6.5,1.36.5,2.29v5.26h-2.66v-4.85c0-.74-.16-1.29-.49-1.64-.32-.35-.78-.53-1.37-.53-.42,0-.8.09-1.13.27-.34.18-.6.45-.79.8-.19.35-.28.82-.28,1.4v4.54h-2.66v-9.18h2.54v2.54l-.48-.77c.33-.61.8-1.09,1.42-1.42.61-.33,1.31-.49,2.1-.49Z"/>
    <path class="cls-2" d="M69.16,162.03c-1.05,0-1.96-.21-2.75-.61-.78-.41-1.39-.97-1.83-1.68-.43-.71-.65-1.52-.65-2.43s.21-1.72.62-2.44c.42-.72,1-1.28,1.74-1.68.75-.4,1.58-.61,2.52-.61s1.71.19,2.43.58c.72.39,1.29.93,1.71,1.64.42.71.63,1.55.63,2.54,0,.1,0,.22-.02.35-.01.13-.02.25-.03.37h-7.46v-1.55h6.06l-1.04.46c.01-.48-.08-.89-.27-1.25-.19-.35-.46-.63-.8-.83-.34-.2-.74-.3-1.19-.3s-.86.1-1.2.3c-.35.2-.62.48-.81.84-.19.36-.29.78-.29,1.27v.41c0,.51.11.96.34,1.33.23.38.54.66.94.86.4.2.88.3,1.43.3.48,0,.9-.07,1.27-.22.37-.15.71-.37,1.02-.67l1.42,1.54c-.42.48-.95.84-1.59,1.1-.64.26-1.37.38-2.2.38Z"/>
    <path class="cls-2" d="M78.46,162.03c-.78,0-1.54-.09-2.25-.28-.72-.19-1.29-.42-1.72-.71l.87-1.89c.43.25.94.46,1.51.62.57.16,1.14.25,1.7.25.61,0,1.05-.07,1.31-.22.26-.15.38-.35.38-.61,0-.22-.1-.38-.3-.49-.2-.11-.46-.19-.79-.25-.32-.06-.68-.11-1.08-.17-.4-.06-.79-.14-1.19-.24-.39-.1-.76-.25-1.09-.44-.34-.19-.6-.45-.8-.78-.2-.33-.3-.76-.3-1.28,0-.58.17-1.09.51-1.54.34-.45.82-.8,1.45-1.05.63-.25,1.38-.38,2.27-.38.64,0,1.28.07,1.92.21.64.14,1.19.34,1.63.59l-.9,1.89c-.43-.25-.87-.43-1.32-.53-.45-.1-.88-.15-1.29-.15-.61,0-1.06.08-1.33.24-.27.16-.41.36-.41.61,0,.23.1.4.31.52.2.12.47.21.8.26.33.06.69.11,1.09.17.4.06.79.14,1.18.24.39.1.75.25,1.08.44.34.19.6.45.8.78.2.33.3.76.3,1.28,0,.56-.17,1.06-.51,1.49s-.83.78-1.48,1.03-1.42.38-2.35.38Z"/>
    <path class="cls-2" d="M87.52,162.03c-.78,0-1.54-.09-2.25-.28-.72-.19-1.29-.42-1.72-.71l.87-1.89c.43.25.94.46,1.51.62.57.16,1.14.25,1.7.25.61,0,1.05-.07,1.31-.22.26-.15.38-.35.38-.61,0-.22-.1-.38-.3-.49-.2-.11-.46-.19-.79-.25-.32-.06-.69-.11-1.08-.17-.4-.06-.79-.14-1.19-.24-.39-.1-.76-.25-1.09-.44-.34-.19-.6-.45-.8-.78-.2-.33-.3-.76-.3-1.28,0-.58.17-1.09.51-1.54.34-.45.82-.8,1.45-1.05.63-.25,1.38-.38,2.27-.38.64,0,1.28.07,1.92.21.64.14,1.19.34,1.63.59l-.9,1.89c-.43-.25-.87-.43-1.32-.53-.45-.1-.88-.15-1.29-.15-.61,0-1.06.08-1.33.24-.27.16-.41.36-.41.61,0,.23.1.4.31.52.2.12.47.21.8.26.33.06.69.11,1.09.17.4.06.79.14,1.18.24.39.1.75.25,1.08.44.34.19.6.45.8.78.2.33.3.76.3,1.28,0,.56-.17,1.06-.51,1.49s-.83.78-1.48,1.03c-.64.25-1.42.38-2.35.38Z"/>
    <path class="cls-2" d="M97.22,154.96v-2.05h6.36v2.05h-6.36ZM98.64,161.89v-9.38c0-1.05.31-1.88.92-2.49s1.49-.92,2.63-.92c.38,0,.74.04,1.11.12.36.08.67.2.92.36l-.7,1.94c-.15-.1-.31-.18-.49-.24-.18-.06-.38-.09-.58-.09-.39,0-.69.11-.9.32-.21.22-.32.56-.32,1.02v.85l.09,1.13v7.37h-2.68Z"/>
    <path class="cls-2" d="M104.92,161.89v-9.18h2.54v2.61l-.36-.77c.27-.65.71-1.14,1.31-1.48.6-.34,1.34-.5,2.2-.5v2.47c-.1-.02-.2-.04-.3-.05-.1-.01-.19-.02-.28-.02-.75,0-1.35.21-1.79.63-.44.42-.67,1.07-.67,1.95v4.33h-2.66Z"/>
    <path class="cls-2" d="M116.62,162.03c-.97,0-1.83-.21-2.58-.61-.76-.41-1.35-.97-1.78-1.68-.43-.71-.65-1.52-.65-2.43s.22-1.74.65-2.45c.43-.71,1.03-1.27,1.78-1.67.76-.4,1.62-.61,2.58-.61s1.85.2,2.61.61c.76.4,1.36.96,1.79,1.67.43.71.65,1.53.65,2.45s-.22,1.73-.65,2.44c-.43.71-1.03,1.26-1.79,1.67-.76.41-1.63.61-2.61.61ZM116.62,159.84c.46,0,.86-.1,1.2-.3.35-.2.63-.49.84-.88.21-.39.32-.84.32-1.36s-.1-.99-.32-1.37c-.21-.38-.49-.66-.84-.86-.35-.2-.74-.3-1.19-.3s-.84.1-1.19.3c-.35.2-.63.49-.84.86-.21.38-.32.83-.32,1.37s.11.98.32,1.36c.21.39.49.68.84.88.35.2.74.3,1.18.3Z"/>
    <path class="cls-2" d="M135.21,152.58c.73,0,1.37.15,1.94.44.56.29,1,.73,1.32,1.33.32.6.48,1.36.48,2.29v5.26h-2.66v-4.85c0-.74-.15-1.29-.45-1.64-.3-.35-.73-.53-1.27-.53-.4,0-.75.09-1.06.26-.31.18-.54.44-.71.79-.16.35-.25.8-.25,1.36v4.61h-2.66v-4.85c0-.74-.15-1.29-.45-1.64-.3-.35-.74-.53-1.31-.53-.39,0-.73.09-1.04.26-.31.18-.55.44-.72.79-.17.35-.26.8-.26,1.36v4.61h-2.66v-9.18h2.54v2.49l-.48-.72c.31-.63.76-1.1,1.35-1.42.59-.32,1.26-.49,2-.49.84,0,1.58.21,2.22.64.64.43,1.06,1.08,1.26,1.95l-.94-.26c.31-.71.8-1.27,1.47-1.7.67-.43,1.45-.64,2.34-.64Z"/>
    <path class="cls-2" d="M152.08,162.1c-.92,0-1.78-.15-2.57-.45-.79-.3-1.48-.73-2.06-1.29-.58-.56-1.03-1.21-1.36-1.96-.32-.75-.49-1.58-.49-2.47s.16-1.72.49-2.47c.32-.75.78-1.4,1.36-1.96.59-.56,1.27-.99,2.06-1.29.79-.3,1.65-.45,2.57-.45,1.04,0,1.97.18,2.82.54s1.55.88,2.12,1.58l-1.79,1.64c-.4-.47-.85-.82-1.36-1.06-.51-.24-1.06-.36-1.65-.36-.56,0-1.07.09-1.54.28-.47.19-.87.45-1.21.79s-.61.75-.79,1.21c-.19.47-.28.98-.28,1.55s.09,1.09.28,1.55c.19.47.45.87.79,1.21s.75.61,1.21.79c.47.19.98.28,1.54.28.59,0,1.14-.12,1.65-.37.51-.24.96-.6,1.36-1.07l1.79,1.64c-.57.69-1.27,1.22-2.12,1.59s-1.79.55-2.83.55Z"/>
    <path class="cls-2" d="M158.68,161.89v-9.18h2.54v2.61l-.36-.77c.27-.65.71-1.14,1.31-1.48.6-.34,1.34-.5,2.2-.5v2.47c-.1-.02-.2-.04-.3-.05-.1-.01-.19-.02-.28-.02-.75,0-1.35.21-1.79.63-.44.42-.67,1.07-.67,1.95v4.33h-2.66Z"/>
    <path class="cls-2" d="M170.59,162.03c-1.05,0-1.96-.21-2.75-.61-.78-.41-1.39-.97-1.83-1.68-.43-.71-.65-1.52-.65-2.43s.21-1.72.62-2.44c.42-.72,1-1.28,1.74-1.68.75-.4,1.58-.61,2.52-.61s1.71.19,2.43.58c.72.39,1.29.93,1.71,1.64.42.71.63,1.55.63,2.54,0,.1,0,.22-.02.35-.01.13-.02.25-.03.37h-7.46v-1.55h6.06l-1.04.46c.01-.48-.08-.89-.27-1.25-.19-.35-.46-.63-.8-.83-.34-.2-.74-.3-1.19-.3s-.86.1-1.2.3c-.35.2-.62.48-.81.84-.19.36-.29.78-.29,1.27v.41c0,.51.11.96.34,1.33.23.38.54.66.94.86.4.2.88.3,1.43.3.48,0,.9-.07,1.27-.22.37-.15.71-.37,1.02-.67l1.42,1.54c-.42.48-.95.84-1.59,1.1-.64.26-1.37.38-2.2.38Z"/>
    <path class="cls-2" d="M179.64,162.03c-.71,0-1.31-.12-1.83-.37-.51-.24-.91-.58-1.19-1s-.42-.89-.42-1.42.13-1.01.4-1.42c.27-.42.69-.74,1.27-.96.58-.23,1.34-.34,2.29-.34h2.42v1.54h-2.15c-.63,0-1.06.1-1.29.31-.23.21-.35.46-.35.77,0,.34.13.61.4.81.27.2.63.3,1.08.3s.86-.1,1.22-.31c.36-.2.61-.52.76-.94l.41,1.25c-.19.57-.55,1.01-1.06,1.32-.51.31-1.17.47-1.98.47ZM182.44,161.89v-1.79l-.17-.39v-3.21c0-.57-.17-1.01-.52-1.33-.35-.32-.88-.48-1.6-.48-.49,0-.97.08-1.44.23-.47.15-.88.36-1.22.62l-.94-1.86c.5-.36,1.1-.64,1.81-.83.71-.19,1.42-.28,2.15-.28,1.4,0,2.49.33,3.26.99.77.66,1.16,1.69,1.16,3.09v5.24h-2.49Z"/>
    <path class="cls-2" d="M186.24,154.96v-2.05h6.36v2.05h-6.36ZM191.09,162.03c-1.08,0-1.92-.28-2.53-.83-.6-.55-.9-1.37-.9-2.47v-8.05h2.68v8c0,.39.1.69.3.9.2.22.47.32.81.32.43,0,.8-.11,1.09-.34l.7,1.88c-.26.19-.58.34-.96.44-.38.1-.78.14-1.19.14Z"/>
    <path class="cls-2" d="M196.09,151.43c-.5,0-.9-.14-1.21-.43-.31-.28-.46-.64-.46-1.06s.15-.77.46-1.06c.31-.28.71-.43,1.21-.43s.89.13,1.2.4c.31.27.47.61.47,1.03,0,.44-.15.81-.46,1.1-.31.29-.71.44-1.21.44ZM194.76,161.89v-9.18h2.66v9.18h-2.66Z"/>
    <path class="cls-2" d="M205.47,152.58c.73,0,1.38.15,1.95.44.57.29,1.03.73,1.36,1.33s.5,1.36.5,2.29v5.26h-2.66v-4.85c0-.74-.16-1.29-.49-1.64-.32-.35-.78-.53-1.37-.53-.42,0-.8.09-1.13.27-.34.18-.6.45-.79.8-.19.35-.28.82-.28,1.4v4.54h-2.66v-9.18h2.54v2.54l-.48-.77c.33-.61.8-1.09,1.42-1.42.61-.33,1.31-.49,2.1-.49Z"/>
    <path class="cls-2" d="M215.57,161.45c-.83,0-1.59-.18-2.29-.55-.69-.37-1.25-.89-1.66-1.55-.41-.67-.61-1.44-.61-2.33s.21-1.68.61-2.35c.41-.67.96-1.18,1.66-1.54.69-.36,1.46-.55,2.29-.55s1.49.16,2.07.47c.59.31,1.04.8,1.37,1.46.33.66.5,1.5.5,2.51s-.17,1.85-.5,2.5c-.33.65-.79,1.14-1.37,1.46-.59.32-1.28.48-2.07.48ZM216,165.34c-.86,0-1.7-.11-2.5-.32-.8-.21-1.47-.53-2-.95l1.06-1.93c.4.33.89.59,1.48.78.59.19,1.18.28,1.78.28.93,0,1.62-.21,2.05-.63.43-.42.65-1.05.65-1.88v-1.37l.17-2.32-.05-2.34v-1.96h2.53v7.64c0,1.69-.44,2.95-1.33,3.76-.89.81-2.16,1.22-3.82,1.22ZM216.12,159.28c.47,0,.88-.1,1.25-.29.36-.19.65-.46.85-.8s.31-.73.31-1.18-.1-.85-.31-1.19c-.2-.34-.49-.59-.85-.78-.36-.18-.78-.27-1.25-.27s-.87.09-1.24.27c-.37.18-.66.44-.87.78-.21.34-.32.73-.32,1.19s.1.84.32,1.18c.21.34.5.61.87.8.37.19.78.29,1.24.29Z"/>
    <path class="cls-2" d="M232.23,161.89l-5.17-11.94h3l4.5,10.58h-1.76l4.57-10.58h2.75l-5.17,11.94h-2.73Z"/>
    <path class="cls-2" d="M244.02,162.03c-.71,0-1.31-.12-1.83-.37-.51-.24-.91-.58-1.19-1s-.42-.89-.42-1.42.13-1.01.4-1.42c.27-.42.69-.74,1.27-.96.58-.23,1.34-.34,2.29-.34h2.42v1.54h-2.15c-.63,0-1.06.1-1.29.31-.23.21-.35.46-.35.77,0,.34.13.61.4.81.27.2.63.3,1.08.3s.86-.1,1.22-.31c.36-.2.61-.52.76-.94l.41,1.25c-.19.57-.55,1.01-1.06,1.32-.51.31-1.17.47-1.98.47ZM246.81,161.89v-1.79l-.17-.39v-3.21c0-.57-.17-1.01-.52-1.33-.35-.32-.88-.48-1.6-.48-.49,0-.97.08-1.44.23-.47.15-.88.36-1.22.62l-.94-1.86c.5-.36,1.1-.64,1.81-.83.7-.19,1.42-.28,2.15-.28,1.4,0,2.49.33,3.26.99.77.66,1.16,1.69,1.16,3.09v5.24h-2.49Z"/>
    <path class="cls-2" d="M251.71,161.89v-12.66h2.66v12.66h-2.66Z"/>
    <path class="cls-2" d="M260.72,162.03c-.77,0-1.46-.15-2.05-.44s-1.05-.75-1.38-1.37c-.33-.61-.5-1.39-.5-2.32v-5.19h2.66v4.78c0,.77.16,1.34.49,1.7s.78.54,1.37.54c.41,0,.77-.09,1.09-.27.32-.18.57-.46.76-.82.19-.36.28-.82.28-1.36v-4.56h2.64v9.18h-2.53v-2.54l.46.75c-.32.64-.77,1.12-1.37,1.44s-1.24.49-1.94.49Z"/>
    <path class="cls-2" d="M273.12,162.03c-1.05,0-1.96-.21-2.75-.61-.78-.41-1.39-.97-1.83-1.68-.43-.71-.65-1.52-.65-2.43s.21-1.72.62-2.44c.41-.72,1-1.28,1.74-1.68.75-.4,1.58-.61,2.52-.61s1.71.19,2.43.58c.72.39,1.29.93,1.71,1.64.42.71.63,1.55.63,2.54,0,.1,0,.22-.02.35-.01.13-.02.25-.03.37h-7.46v-1.55h6.06l-1.04.46c.01-.48-.08-.89-.27-1.25-.19-.35-.46-.63-.8-.83-.34-.2-.74-.3-1.19-.3s-.86.1-1.2.3c-.35.2-.62.48-.81.84-.19.36-.29.78-.29,1.27v.41c0,.51.11.96.34,1.33.23.38.54.66.94.86.4.2.88.3,1.43.3.48,0,.9-.07,1.27-.22.37-.15.71-.37,1.02-.67l1.42,1.54c-.42.48-.95.84-1.59,1.1-.64.26-1.37.38-2.2.38Z"/>
  </g>
</svg>