<?xml version="1.0" encoding="UTF-8"?>
<svg id="Layer_1" data-name="Layer 1" xmlns="http://www.w3.org/2000/svg" viewBox="0 0 264.44 165.47">
  <defs>
    <style>
      .cls-1 {
        fill: #fff;
      }

      .cls-2 {
        fill: #df7b31;
      }
    </style>
  </defs>
  <g>
    <g>
      <g>
        <path class="cls-1" d="M26.61,117.44c.74-.74,1.61-1.31,2.62-1.72,1.01-.41,2.12-.61,3.32-.61,1.28,0,2.47.26,3.56.78,1.1.52,2.07,1.28,2.94,2.29l3.88-3.54c-1.23-1.5-2.76-2.64-4.58-3.42-1.82-.77-3.85-1.16-6.09-1.16-1.99,0-3.85.33-5.56.98-1.71.65-3.2,1.58-4.47,2.79-1.27,1.21-2.25,2.62-2.95,4.25-.7,1.62-1.05,3.41-1.05,5.35s.35,3.73,1.05,5.35c.7,1.62,1.68,3.04,2.94,4.25,1.26,1.21,2.74,2.14,4.45,2.79,1.71.65,3.56.98,5.56.98,2.26,0,4.31-.39,6.13-1.18,1.82-.79,3.35-1.93,4.58-3.43l-3.88-3.55c-.86,1.01-1.84,1.78-2.94,2.31-1.1.53-2.28.79-3.56.79-1.21,0-2.31-.2-3.32-.61-1.01-.41-1.88-.98-2.62-1.72-.74-.74-1.31-1.61-1.72-2.62-.41-1.01-.61-2.13-.61-3.36s.2-2.35.61-3.36c.41-1.01.98-1.88,1.72-2.62Z"/>
        <polygon class="cls-1" points="95.89 126.18 83.04 110.49 78.09 110.49 78.09 136.34 84 136.34 84 120.66 96.85 136.34 101.79 136.34 101.79 110.49 95.89 110.49 95.89 126.18"/>
        <path class="cls-1" d="M114.7,117.44c.75-.74,1.64-1.31,2.68-1.72,1.03-.41,2.17-.61,3.4-.61,1.33,0,2.55.24,3.66.72,1.11.48,2.14,1.23,3.1,2.23l3.8-3.54c-1.26-1.45-2.8-2.56-4.63-3.32-1.83-.76-3.9-1.14-6.18-1.14-2.07,0-3.96.33-5.69.98-1.72.65-3.22,1.58-4.5,2.79-1.28,1.21-2.27,2.62-2.97,4.25-.7,1.62-1.05,3.41-1.05,5.35s.35,3.73,1.05,5.35c.7,1.62,1.68,3.04,2.94,4.25,1.26,1.21,2.75,2.14,4.47,2.79,1.72.65,3.61.98,5.65.98,1.85,0,3.69-.28,5.54-.83,1.85-.55,3.48-1.37,4.91-2.46v-10.49h-5.47v7.58c-.4.21-.8.4-1.2.54-1.12.39-2.27.59-3.45.59s-2.36-.21-3.38-.63c-1.02-.42-1.91-1-2.66-1.73-.75-.74-1.33-1.62-1.74-2.64-.41-1.02-.61-2.12-.61-3.31s.2-2.35.61-3.36c.41-1.01.98-1.88,1.74-2.62Z"/>
        <path class="cls-1" d="M153.56,128.02c1.67-.73,2.97-1.78,3.88-3.18.91-1.39,1.37-3.06,1.37-5s-.46-3.58-1.37-4.99c-.91-1.4-2.2-2.48-3.88-3.23-1.67-.75-3.67-1.13-5.98-1.13h-11.19v25.85h6.02v-7.24h5.17c.09,0,.17,0,.26-.01l5.02,7.25h6.43l-5.76-8.31s.03,0,.04-.01ZM151.38,116.53c.94.78,1.4,1.88,1.4,3.3s-.47,2.54-1.4,3.32c-.94.79-2.31,1.18-4.14,1.18h-4.84v-8.97h4.84c1.82,0,3.2.39,4.14,1.16Z"/>
        <path class="cls-1" d="M186.17,113.82c-1.28-1.21-2.78-2.14-4.49-2.79-1.71-.65-3.59-.98-5.63-.98s-3.92.33-5.63,1c-1.71.66-3.21,1.6-4.49,2.81-1.28,1.21-2.27,2.62-2.97,4.23-.7,1.61-1.05,3.39-1.05,5.34s.35,3.69,1.05,5.32c.7,1.62,1.69,3.04,2.97,4.25,1.28,1.21,2.78,2.14,4.5,2.81,1.72.66,3.61,1,5.65,1s3.88-.33,5.59-.98c1.71-.65,3.21-1.58,4.49-2.79,1.28-1.21,2.27-2.63,2.97-4.27.7-1.64,1.05-3.42,1.05-5.34s-.35-3.73-1.05-5.35c-.7-1.62-1.69-3.04-2.97-4.25ZM183.53,126.76c-.41,1-.98,1.87-1.72,2.62-.74.75-1.59,1.33-2.57,1.74-.97.41-2.04.61-3.19.61s-2.23-.2-3.21-.61c-.99-.41-1.84-.98-2.57-1.74-.73-.75-1.29-1.63-1.7-2.62-.41-1-.61-2.11-.61-3.34s.2-2.34.61-3.34c.41-1,.97-1.87,1.7-2.62.73-.75,1.58-1.33,2.57-1.73.98-.41,2.05-.61,3.21-.61s2.22.2,3.19.61c.97.41,1.83.98,2.57,1.73.74.75,1.31,1.62,1.72,2.62.41,1,.61,2.11.61,3.34s-.2,2.34-.61,3.34Z"/>
        <path class="cls-1" d="M211.98,124.79c0,2.44-.51,4.2-1.51,5.3-1.01,1.09-2.42,1.64-4.25,1.64s-3.2-.55-4.21-1.64c-1.01-1.1-1.51-2.86-1.51-5.3v-14.29h-6.02v14.44c0,3.82,1.03,6.75,3.1,8.79,2.07,2.04,4.94,3.06,8.6,3.06s6.5-1.02,8.57-3.06c2.07-2.04,3.1-4.97,3.1-8.79v-14.44h-5.87v14.29Z"/>
        <path class="cls-1" d="M244.84,114.85c-.91-1.4-2.2-2.48-3.88-3.23-1.67-.75-3.67-1.13-5.98-1.13h-11.19v25.85h6.02v-7.13h5.17c2.31,0,4.31-.38,5.98-1.14,1.67-.76,2.97-1.84,3.88-3.23.91-1.39,1.37-3.06,1.37-5s-.46-3.58-1.37-4.99ZM238.79,123.16c-.94.79-2.31,1.18-4.14,1.18h-4.84v-8.97h4.84c1.82,0,3.2.39,4.14,1.16.94.78,1.4,1.88,1.4,3.3s-.47,2.54-1.4,3.32Z"/>
        <path class="cls-1" d="M69.56,113.82c-1.28-1.21-2.78-2.14-4.49-2.79-1.71-.65-3.59-.98-5.63-.98s-3.92.33-5.63,1c-1.71.66-3.21,1.6-4.49,2.81-1.28,1.21-2.27,2.62-2.97,4.23-.33.75-.57,1.55-.75,2.38h6.23c.04-.13.08-.26.13-.38.41-1,.97-1.87,1.7-2.62.73-.75,1.58-1.33,2.57-1.73.98-.41,2.05-.61,3.21-.61s2.22.2,3.19.61c.97.41,1.83.98,2.57,1.73.74.75,1.31,1.62,1.72,2.62.41,1,.61,2.11.61,3.34s-.2,2.34-.61,3.34c-.41,1-.98,1.87-1.72,2.62-.74.75-1.59,1.33-2.57,1.74-.97.41-2.04.61-3.19.61s-2.23-.2-3.21-.61c-.99-.41-1.84-.98-2.57-1.74-.73-.75-1.29-1.63-1.7-2.62-.07-.16-.12-.34-.18-.51h-6.21c.18.86.43,1.69.77,2.48.7,1.62,1.69,3.04,2.97,4.25,1.28,1.21,2.78,2.14,4.5,2.81,1.72.66,3.61,1,5.65,1s3.88-.33,5.59-.98c1.71-.65,3.21-1.58,4.49-2.79,1.28-1.21,2.27-2.63,2.97-4.27.7-1.64,1.05-3.42,1.05-5.34s-.35-3.73-1.05-5.35c-.7-1.62-1.69-3.04-2.97-4.25Z"/>
      </g>
      <path class="cls-2" d="M27.19,123.78c.21,2.92,2.61,5.27,5.54,5.42,2.38.12,4.47-1.19,5.49-3.14.47-.91,1.42-1.47,2.44-1.47h13.53c.84,0,1.63.38,2.15,1.03.67.83,1.69,1.36,2.83,1.36,2.08,0,3.75-1.75,3.63-3.86-.11-1.82-1.6-3.3-3.42-3.4-1.24-.07-2.35.48-3.05,1.38-.51.65-1.31,1.01-2.14,1.01h-13.53c-1.02,0-1.97-.56-2.44-1.46-.98-1.87-2.94-3.15-5.2-3.15-3.38,0-6.08,2.86-5.84,6.28Z"/>
    </g>
    <g>
      <g>
        <g>
          <g>
            <path class="cls-1" d="M95.37,22.1c-2.81-.24-5.54-1.42-7.69-3.56-.21-.21-.4-.43-.59-.65-.2,1-.37,2.01-.43,3.05-.69,11.14,6.78,20.67,17.01,23.16,2.71.66,5.3-1.48,5.3-4.27,0-2.04-1.43-3.75-3.4-4.26-5.96-1.53-10.33-7-10.21-13.47Z"/>
            <path class="cls-1" d="M107.56.04c-1.04.06-2.05.22-3.05.43.22.19.44.38.65.59,2.14,2.14,3.33,4.88,3.56,7.69,6.47-.12,11.93,4.25,13.47,10.21.51,1.98,2.22,3.4,4.26,3.4,2.79,0,4.93-2.59,4.27-5.3C128.23,6.83,118.7-.65,107.56.04Z"/>
          </g>
          <path class="cls-1" d="M102.76,3.46c3.5,3.5,3.5,9.17,0,12.67s-9.17,3.5-12.67,0-3.5-9.17,0-12.67c3.5-3.5,9.17-3.5,12.67,0Z"/>
        </g>
        <g>
          <g>
            <path class="cls-1" d="M155.72,82.44c.24,2.81,1.42,5.54,3.56,7.69.21.21.43.4.65.59-1,.2-2.01.37-3.05.43-11.15.69-20.67-6.78-23.16-17.01-.66-2.71,1.48-5.3,4.27-5.3,2.04,0,3.75,1.43,4.26,3.4,1.53,5.96,7,10.33,13.47,10.21Z"/>
            <path class="cls-1" d="M177.77,70.25c-.06,1.04-.22,2.05-.43,3.05-.19-.22-.38-.44-.59-.65-2.14-2.14-4.88-3.33-7.69-3.56.12-6.47-4.25-11.93-10.21-13.47-1.98-.51-3.4-2.22-3.4-4.26,0-2.79,2.59-4.93,5.3-4.27,10.23,2.49,17.71,12.01,17.01,23.16Z"/>
          </g>
          <path class="cls-1" d="M174.35,75.06c-3.5-3.5-9.17-3.5-12.67,0s-3.5,9.17,0,12.67,9.17,3.5,12.67,0c3.5-3.5,3.5-9.17,0-12.67Z"/>
        </g>
        <g>
          <g>
            <path class="cls-1" d="M155.72,8.75c.24-2.81,1.42-5.54,3.56-7.69.21-.21.43-.4.65-.59-1-.2-2.01-.37-3.05-.43-11.15-.69-20.67,6.78-23.16,17.01-.66,2.71,1.48,5.3,4.27,5.3,2.04,0,3.75-1.43,4.26-3.4,1.53-5.96,7-10.33,13.47-10.21Z"/>
            <path class="cls-1" d="M177.77,20.94c-.06-1.04-.22-2.05-.43-3.05-.19.22-.38.44-.59.65-2.14,2.14-4.88,3.33-7.69,3.56.12,6.47-4.25,11.93-10.21,13.47-1.98.51-3.4,2.22-3.4,4.26,0,2.79,2.59,4.93,5.3,4.27,10.23-2.49,17.71-12.01,17.01-23.16Z"/>
          </g>
          <path class="cls-1" d="M174.35,16.13c-3.5,3.5-9.17,3.5-12.67,0-3.5-3.5-3.5-9.17,0-12.67,3.5-3.5,9.17-3.5,12.67,0s3.5,9.17,0,12.67Z"/>
        </g>
        <g>
          <g>
            <path class="cls-1" d="M95.37,69.09c-2.81.24-5.54,1.42-7.69,3.56-.21.21-.4.43-.59.65-.2-1-.37-2.01-.43-3.05-.69-11.14,6.78-20.67,17.01-23.16,2.71-.66,5.3,1.48,5.3,4.27,0,2.04-1.43,3.75-3.4,4.26-5.96,1.53-10.33,7-10.21,13.47Z"/>
            <path class="cls-1" d="M107.56,91.15c-1.04-.06-2.05-.22-3.05-.43.22-.19.44-.38.65-.59,2.14-2.14,3.33-4.88,3.56-7.69,6.47.12,11.93-4.25,13.47-10.21.51-1.98,2.22-3.4,4.26-3.4,2.79,0,4.93,2.59,4.27,5.3-2.49,10.23-12.01,17.71-23.16,17.01Z"/>
          </g>
          <path class="cls-1" d="M102.76,87.73c3.5-3.5,3.5-9.17,0-12.67s-9.17-3.5-12.67,0-3.5,9.17,0,12.67c3.5,3.5,9.17,3.5,12.67,0Z"/>
        </g>
      </g>
      <path class="cls-2" d="M152.93,60.21c-1.58.18-3.16-.4-4.28-1.53l-4.4-4.4c-1.31-1.31-1.84-3.21-1.4-4.99.8-2.29.83-4.78.11-7.08-.59-1.87-.07-3.92,1.32-5.31l4.4-4.4c1.14-1.14,2.73-1.7,4.33-1.52,2.03.22,4.14-.44,5.7-2,2.82-2.82,2.72-7.47-.31-10.17-2.63-2.33-6.66-2.31-9.27.03-1.77,1.59-2.53,3.85-2.28,6.02.18,1.58-.4,3.16-1.53,4.28l-4.4,4.4c-1.39,1.39-3.43,1.91-5.3,1.32-.12-.04-.24-.07-.37-.1-.08-.02-.16-.05-.24-.07-.17-.04-.35-.08-.52-.12-.08-.02-.16-.03-.24-.05-.18-.03-.36-.06-.54-.08-.08-.01-.15-.02-.23-.03-.19-.02-.38-.03-.56-.05-.07,0-.14-.01-.21-.01-.2,0-.4,0-.61,0-.06,0-.11,0-.17,0-.25,0-.49.02-.73.04-.01,0-.02,0-.04,0-.14.01-.27.03-.41.05-.04,0-.09.01-.13.02-.34.05-.68.11-1.01.19-.06.01-.12.03-.19.05-.19.05-.38.1-.57.16,0,0,0,0-.01,0-1.87.59-3.92.07-5.31-1.32l-4.4-4.4c-1.14-1.14-1.7-2.73-1.52-4.33.22-2.03-.44-4.14-2-5.7-2.82-2.82-7.47-2.72-10.17.31-2.33,2.63-2.31,6.66.03,9.27,1.59,1.77,3.85,2.53,6.01,2.28,1.58-.18,3.16.4,4.28,1.53l4.4,4.4c1.31,1.31,1.84,3.21,1.4,4.99-.8,2.29-.84,4.78-.11,7.08.59,1.88.07,3.92-1.32,5.31l-4.4,4.4c-1.14,1.14-2.73,1.7-4.33,1.52-2.03-.22-4.14.44-5.7,2-2.82,2.82-2.72,7.47.31,10.17,2.63,2.33,6.66,2.31,9.27-.03,1.77-1.59,2.53-3.85,2.28-6.01-.18-1.58.4-3.16,1.53-4.28l4.4-4.4c1.39-1.39,3.43-1.91,5.3-1.32.12.04.24.07.37.1.08.02.16.05.24.07.17.04.35.08.53.12.08.02.16.03.23.05.18.03.36.06.54.08.07,0,.15.02.22.03.19.02.38.03.57.05.07,0,.14.01.2.01.2,0,.41,0,.61,0,.05,0,.11,0,.16,0,.25,0,.5-.02.75-.04,0,0,.02,0,.02,0,.14-.01.27-.03.41-.05.04,0,.09-.01.13-.02.34-.05.68-.11,1.02-.19.06-.01.12-.03.18-.05.19-.05.38-.1.57-.16,0,0,0,0,.01,0,1.87-.59,3.92-.07,5.31,1.32l4.4,4.4c1.14,1.14,1.7,2.73,1.52,4.33-.22,2.03.44,4.14,2,5.7,2.82,2.82,7.47,2.72,10.17-.31,2.33-2.63,2.31-6.66-.03-9.27-1.59-1.77-3.85-2.53-6.02-2.28ZM130.42,50.43c-.67-.25-1.3-.64-1.84-1.18-2.02-2.02-2.02-5.3,0-7.31.5-.5,1.09-.88,1.71-1.13.01,0,.02,0,.03-.01.15-.06.29-.11.44-.15,0,0,.02,0,.03,0,.14-.04.29-.08.43-.1,1.14-.22,2.34-.05,3.39.5.45.24.87.54,1.25.92,2.02,2.02,2.02,5.3,0,7.32-.5.5-1.09.88-1.71,1.13-.01,0-.02,0-.03.01-.14.06-.29.11-.44.15-.03,0-.06.01-.09.02-.12.03-.25.07-.37.09-.93.18-1.9.1-2.8-.24Z"/>
    </g>
  </g>
  <g>
    <path class="cls-2" d="M2.78,161.89H0v-11.94h2.78v11.94ZM8.39,156.99H2.56v-2.34h5.84v2.34ZM8.19,149.95h2.76v11.94h-2.76v-11.94Z"/>
    <path class="cls-2" d="M16.43,162.03c-.71,0-1.31-.12-1.83-.37-.51-.24-.91-.58-1.19-1s-.42-.89-.42-1.42.13-1.01.4-1.42c.27-.42.69-.74,1.27-.96.58-.23,1.34-.34,2.29-.34h2.42v1.54h-2.15c-.63,0-1.06.1-1.29.31-.23.2-.35.46-.35.77,0,.34.13.61.4.81.27.2.63.3,1.08.3s.86-.1,1.22-.31c.36-.2.61-.52.76-.94l.41,1.25c-.19.57-.55,1.01-1.06,1.32-.51.31-1.17.47-1.98.47ZM19.23,161.89v-1.79l-.17-.39v-3.21c0-.57-.17-1.01-.52-1.33-.35-.32-.88-.48-1.6-.48-.49,0-.97.08-1.44.23-.47.15-.88.36-1.22.62l-.94-1.86c.5-.36,1.1-.64,1.81-.83.71-.19,1.42-.28,2.15-.28,1.4,0,2.49.33,3.26.99.77.66,1.16,1.69,1.16,3.09v5.24h-2.49ZM17.37,165.47c-.33,0-.61-.1-.84-.31-.23-.2-.34-.48-.34-.84s.11-.64.34-.86c.23-.22.51-.33.84-.33s.61.11.84.33c.23.22.34.51.34.86s-.11.63-.34.84c-.23.2-.51.31-.84.31Z"/>
    <path class="cls-2" d="M29.71,152.58c.73,0,1.38.15,1.95.44.57.29,1.03.73,1.36,1.33.33.6.5,1.36.5,2.29v5.26h-2.66v-4.85c0-.74-.16-1.29-.49-1.64-.32-.35-.78-.53-1.37-.53-.42,0-.8.09-1.13.27-.34.18-.6.45-.79.8s-.28.82-.28,1.4v4.54h-2.66v-9.18h2.54v2.54l-.48-.77c.33-.61.8-1.09,1.42-1.42.61-.33,1.31-.49,2.1-.49Z"/>
    <path class="cls-2" d="M41.5,152.58c.73,0,1.38.15,1.95.44.57.29,1.03.73,1.36,1.33s.5,1.36.5,2.29v5.26h-2.66v-4.85c0-.74-.16-1.29-.49-1.64-.32-.35-.78-.53-1.37-.53-.42,0-.8.09-1.13.27-.34.18-.6.45-.79.8s-.28.82-.28,1.4v4.54h-2.66v-12.66h2.66v6.02l-.6-.77c.33-.61.8-1.09,1.42-1.42.61-.33,1.31-.49,2.1-.49Z"/>
    <path class="cls-2" d="M52.72,161.89v-11.94h5.17c1.07,0,1.99.17,2.76.52.77.35,1.37.84,1.79,1.49.42.65.63,1.42.63,2.3s-.21,1.67-.63,2.31c-.42.64-1.02,1.14-1.79,1.49-.77.35-1.7.53-2.76.53h-3.65l1.26-1.25v4.54h-2.78ZM55.51,157.66l-1.26-1.31h3.5c.84,0,1.48-.18,1.91-.55.43-.36.65-.88.65-1.54s-.22-1.17-.65-1.53-1.07-.54-1.91-.54h-3.5l1.26-1.31v6.77Z"/>
    <path class="cls-2" d="M70.61,152.58c.73,0,1.38.15,1.95.44.57.29,1.03.73,1.36,1.33.33.6.5,1.36.5,2.29v5.26h-2.66v-4.85c0-.74-.16-1.29-.49-1.64-.32-.35-.78-.53-1.37-.53-.42,0-.8.09-1.13.27-.34.18-.6.45-.79.8s-.28.82-.28,1.4v4.54h-2.66v-12.66h2.66v6.02l-.6-.77c.33-.61.8-1.09,1.42-1.42.61-.33,1.31-.49,2.1-.49Z"/>
    <path class="cls-2" d="M80.69,162.03c-.77,0-1.46-.15-2.05-.44s-1.05-.75-1.38-1.37c-.33-.61-.5-1.39-.5-2.32v-5.19h2.66v4.78c0,.77.16,1.34.49,1.7s.78.54,1.37.54c.41,0,.77-.09,1.09-.27.32-.18.57-.46.76-.82.19-.36.28-.82.28-1.36v-4.56h2.64v9.18h-2.53v-2.54l.46.75c-.32.64-.77,1.12-1.37,1.44s-1.24.49-1.94.49ZM79.87,151.53l2.3-2.46h2.85l-3.07,2.46h-2.08Z"/>
    <path class="cls-2" d="M92.98,162.03c-.99,0-1.87-.2-2.64-.61-.77-.4-1.37-.96-1.81-1.68-.44-.72-.66-1.53-.66-2.44s.22-1.73.66-2.44c.44-.71,1.04-1.26,1.81-1.67.77-.41,1.65-.61,2.64-.61s1.81.2,2.53.61c.72.4,1.24.98,1.56,1.71l-2.05,1.13c-.25-.43-.55-.75-.9-.95-.35-.2-.74-.3-1.16-.3-.44,0-.85.1-1.21.3-.36.2-.65.49-.87.86-.22.38-.32.83-.32,1.37s.11.99.32,1.37c.22.38.51.67.87.87.36.2.77.3,1.21.3.42,0,.81-.1,1.16-.3.35-.2.65-.52.9-.96l2.05,1.13c-.32.73-.84,1.3-1.56,1.71-.72.41-1.57.61-2.53.61Z"/>
    <path class="cls-2" d="M102.36,154.96v-2.05h6.36v2.05h-6.36ZM107.21,162.03c-1.08,0-1.92-.28-2.53-.83-.6-.55-.9-1.37-.9-2.47v-8.05h2.68v8c0,.39.1.69.3.9.2.22.47.32.81.32.43,0,.8-.11,1.09-.34l.7,1.88c-.26.19-.58.34-.96.44-.38.1-.78.15-1.19.15Z"/>
    <path class="cls-2" d="M114.75,162.03c-.77,0-1.46-.15-2.05-.44-.59-.3-1.05-.75-1.38-1.37-.33-.61-.5-1.39-.5-2.32v-5.19h2.66v4.78c0,.77.16,1.34.49,1.7.32.36.78.54,1.37.54.41,0,.77-.09,1.09-.27.32-.18.57-.46.76-.82.19-.36.28-.82.28-1.36v-4.56h2.64v9.18h-2.53v-2.54l.46.75c-.32.64-.77,1.12-1.37,1.44s-1.24.49-1.94.49ZM114.95,151.53l-3.07-2.46h2.85l2.3,2.46h-2.08ZM118.42,154.49v-1.77h.46c.32,0,.57-.1.75-.3.18-.2.27-.46.27-.78,0-.2-.03-.39-.1-.57-.07-.18-.15-.33-.24-.45l1.59-.58c.16.23.29.48.39.77.1.28.15.6.15.94,0,.85-.26,1.52-.77,2.01-.51.49-1.22.73-2.12.73h-.39Z"/>
    <path class="cls-2" d="M127.85,161.89v-11.94h2.75v11.94h-2.75ZM130.31,159.16l-.14-3.19,5.72-6.02h3.07l-5.14,5.55-1.57,1.64-1.94,2.03ZM136.02,161.89l-4.25-5.19,1.81-1.98,5.68,7.17h-3.24Z"/>
    <path class="cls-2" d="M141.62,151.43c-.5,0-.9-.14-1.21-.43-.31-.28-.46-.64-.46-1.06s.15-.77.46-1.06c.31-.28.71-.43,1.21-.43s.89.13,1.2.4c.31.27.47.61.47,1.03,0,.44-.15.81-.46,1.1-.31.29-.71.43-1.21.43ZM140.29,161.89v-9.18h2.66v9.18h-2.66Z"/>
    <path class="cls-2" d="M149.98,162.03c-1.05,0-1.96-.21-2.75-.61-.78-.41-1.39-.97-1.83-1.68-.43-.71-.65-1.52-.65-2.43s.21-1.72.62-2.44c.42-.72,1-1.28,1.74-1.68.75-.4,1.58-.61,2.52-.61s1.71.19,2.43.58c.72.39,1.29.93,1.71,1.64.42.71.63,1.55.63,2.54,0,.1,0,.22-.02.35-.01.13-.02.25-.03.37h-7.46v-1.55h6.06l-1.04.46c.01-.48-.08-.89-.27-1.25-.19-.35-.46-.63-.8-.83-.34-.2-.74-.3-1.19-.3s-.86.1-1.2.3c-.35.2-.62.48-.81.84-.19.36-.29.78-.29,1.27v.41c0,.51.11.96.34,1.33.23.38.54.66.94.86.4.2.88.3,1.43.3.48,0,.9-.07,1.27-.22.37-.15.71-.37,1.02-.67l1.42,1.54c-.42.48-.95.84-1.59,1.1-.64.26-1.37.38-2.2.38ZM146.16,151.53l2.27-1.94h2.32l2.27,1.94h-1.96l-2.3-1.54h1.67l-2.3,1.54h-1.96ZM151.64,149.9l1.88-2.06h2.73l-2.68,2.06h-1.93Z"/>
    <path class="cls-2" d="M161.77,152.58c.73,0,1.38.15,1.95.44.57.29,1.03.73,1.36,1.33.33.6.5,1.36.5,2.29v5.26h-2.66v-4.85c0-.74-.16-1.29-.49-1.64-.32-.35-.78-.53-1.37-.53-.42,0-.8.09-1.13.27-.34.18-.6.45-.79.8s-.28.82-.28,1.4v4.54h-2.66v-9.18h2.54v2.54l-.48-.77c.33-.61.8-1.09,1.42-1.42.61-.33,1.31-.49,2.1-.49Z"/>
    <path class="cls-2" d="M175.47,161.89v-9.69h-3.82v-2.25h10.41v2.25h-3.82v9.69h-2.76Z"/>
    <path class="cls-2" d="M186.19,162.03c-.71,0-1.31-.12-1.83-.37-.51-.24-.91-.58-1.19-1s-.42-.89-.42-1.42.13-1.01.4-1.42c.27-.42.69-.74,1.27-.96.58-.23,1.34-.34,2.29-.34h2.42v1.54h-2.15c-.63,0-1.06.1-1.29.31-.23.2-.35.46-.35.77,0,.34.13.61.4.81.27.2.63.3,1.08.3s.86-.1,1.22-.31c.36-.2.61-.52.76-.94l.41,1.25c-.19.57-.55,1.01-1.06,1.32-.51.31-1.17.47-1.98.47ZM188.99,161.89v-1.79l-.17-.39v-3.21c0-.57-.17-1.01-.52-1.33-.35-.32-.88-.48-1.6-.48-.49,0-.97.08-1.44.23-.47.15-.88.36-1.22.62l-.94-1.86c.5-.36,1.1-.64,1.81-.83.71-.19,1.42-.28,2.15-.28,1.4,0,2.49.33,3.26.99.77.66,1.16,1.69,1.16,3.09v5.24h-2.49ZM187.13,165.47c-.33,0-.61-.1-.84-.31-.23-.2-.34-.48-.34-.84s.11-.64.34-.86c.23-.22.51-.33.84-.33s.61.11.84.33c.23.22.34.51.34.86s-.11.63-.34.84c-.23.2-.51.31-.84.31Z"/>
    <path class="cls-2" d="M198.24,162.03c-.97,0-1.83-.21-2.59-.61-.76-.41-1.35-.97-1.78-1.68-.43-.71-.65-1.52-.65-2.43s.22-1.74.65-2.45c.43-.71,1.03-1.27,1.78-1.67.76-.4,1.62-.61,2.59-.61s1.85.2,2.61.61c.76.4,1.36.96,1.79,1.67.43.71.65,1.53.65,2.45s-.22,1.73-.65,2.44c-.43.71-1.03,1.26-1.79,1.67-.76.41-1.63.61-2.61.61ZM198.24,159.84c.46,0,.86-.1,1.2-.3.35-.2.63-.49.84-.88.21-.39.32-.84.32-1.36s-.1-.99-.32-1.37c-.21-.38-.49-.66-.84-.86-.35-.2-.74-.3-1.19-.3s-.84.1-1.19.3c-.35.2-.63.49-.84.86-.21.38-.32.83-.32,1.37s.1.98.32,1.36c.21.39.49.68.84.88.35.2.74.3,1.18.3Z"/>
    <path class="cls-2" d="M215.84,162.1c-.94,0-1.81-.15-2.61-.45-.8-.3-1.48-.73-2.06-1.29-.58-.56-1.03-1.21-1.36-1.96-.32-.75-.49-1.58-.49-2.47s.16-1.72.49-2.47c.32-.75.78-1.4,1.37-1.96.59-.56,1.29-.99,2.08-1.29.8-.3,1.67-.45,2.63-.45,1.06,0,2.01.18,2.86.53.85.35,1.56.86,2.14,1.54l-1.76,1.64c-.44-.47-.92-.81-1.43-1.03-.51-.22-1.08-.33-1.69-.33-.57,0-1.09.09-1.57.28-.48.19-.89.45-1.24.79-.35.34-.61.75-.8,1.21-.19.47-.28.98-.28,1.55s.09,1.06.28,1.53c.19.47.46.88.8,1.22.35.34.76.61,1.23.8.47.19.99.29,1.56.29s1.08-.09,1.6-.27c.52-.18,1.02-.48,1.51-.9l1.57,2c-.66.5-1.42.88-2.27,1.13-.85.26-1.71.38-2.56.38ZM218.15,160.22v-4.49h2.53v4.85l-2.53-.36Z"/>
    <path class="cls-2" d="M224.38,151.43c-.5,0-.9-.14-1.21-.43-.31-.28-.46-.64-.46-1.06s.15-.77.46-1.06c.31-.28.71-.43,1.21-.43s.89.13,1.2.4c.31.27.47.61.47,1.03,0,.44-.15.81-.46,1.1-.31.29-.71.43-1.21.43ZM223.05,161.89v-9.18h2.66v9.18h-2.66Z"/>
    <path class="cls-2" d="M231.01,162.03c-.71,0-1.31-.12-1.83-.37-.51-.24-.91-.58-1.19-1s-.42-.89-.42-1.42.13-1.01.4-1.42c.27-.42.69-.74,1.27-.96.58-.23,1.34-.34,2.29-.34h2.42v1.54h-2.15c-.63,0-1.06.1-1.29.31-.23.2-.35.46-.35.77,0,.34.13.61.4.81.27.2.63.3,1.08.3s.86-.1,1.22-.31c.36-.2.61-.52.76-.94l.41,1.25c-.19.57-.55,1.01-1.06,1.32-.51.31-1.17.47-1.98.47ZM233.81,161.89v-1.79l-.17-.39v-3.21c0-.57-.17-1.01-.52-1.33-.35-.32-.88-.48-1.6-.48-.49,0-.97.08-1.44.23-.47.15-.88.36-1.22.62l-.94-1.86c.5-.36,1.1-.64,1.81-.83.71-.19,1.42-.28,2.15-.28,1.4,0,2.49.33,3.26.99.77.66,1.16,1.69,1.16,3.09v5.24h-2.49ZM230.6,151.53l2.3-2.46h2.85l-3.07,2.46h-2.08Z"/>
    <path class="cls-2" d="M246.2,161.89v-9.69h-3.82v-2.25h10.41v2.25h-3.82v9.69h-2.76Z"/>
    <path class="cls-2" d="M254.08,161.89v-9.18h2.54v2.61l-.36-.77c.27-.65.71-1.14,1.31-1.48.6-.34,1.34-.5,2.2-.5v2.47c-.1-.02-.2-.04-.3-.05-.1-.01-.19-.02-.28-.02-.75,0-1.35.21-1.79.63-.44.42-.67,1.07-.67,1.95v4.33h-2.66Z"/>
    <path class="cls-2" d="M262.77,151.43c-.5,0-.9-.14-1.21-.43-.31-.28-.46-.64-.46-1.06s.15-.77.46-1.06c.31-.28.71-.43,1.21-.43s.89.13,1.2.4c.31.27.47.61.47,1.03,0,.44-.15.81-.46,1.1-.31.29-.71.43-1.21.43ZM261.44,161.89v-9.18h2.66v9.18h-2.66ZM262.77,165.47c-.33,0-.61-.1-.84-.31-.23-.2-.34-.48-.34-.84s.11-.64.34-.86c.23-.22.51-.33.84-.33s.61.11.84.33c.23.22.34.51.34.86s-.11.63-.34.84c-.23.2-.51.31-.84.31Z"/>
  </g>
</svg>